{"glyphs":{"0":{"ha":922,"x_min":154,"x_max":930,"o":"m 394 -20 q 257 20 311 -20 q 179 124 204 60 q 154 265 154 189 q 230 536 154 414 q 426 741 306 658 q 531 801 475 774 q 649 828 587 828 q 797 785 734 828 q 895 673 860 743 q 930 523 930 604 q 886 341 930 427 q 773 186 842 256 q 627 68 704 117 q 516 8 576 35 q 394 -20 456 -20 m 534 726 q 443 699 479 726 q 384 630 406 672 q 347 539 361 587 q 326 448 334 491 q 318 397 321 422 q 315 346 315 372 q 335 219 315 280 q 401 120 355 159 q 522 81 446 81 q 623 120 578 81 q 701 218 669 159 q 749 339 732 277 q 766 448 766 401 q 739 579 766 516 q 660 684 712 643 q 534 726 608 726 z "},"1":{"ha":602,"x_min":146,"x_max":602,"o":"m 602 101 q 568 79 591 95 q 516 44 544 62 q 466 13 488 26 q 435 0 443 0 l 146 0 q 160 17 152 9 q 176 31 168 24 q 225 86 208 58 q 251 156 242 115 l 367 714 l 196 624 l 199 648 l 535 827 l 422 280 q 388 182 412 235 q 326 101 363 130 l 602 101 z "},"2":{"ha":789,"x_min":39,"x_max":889,"o":"m 768 101 q 711 68 742 92 q 651 22 680 43 q 601 0 621 0 l 39 0 q 140 125 79 71 q 267 226 201 180 q 352 280 309 254 q 439 332 395 306 q 514 376 471 351 q 602 431 558 401 q 679 497 646 462 q 721 570 711 532 q 723 587 723 577 q 701 647 723 621 q 646 691 680 673 q 578 719 613 709 q 514 728 543 728 q 413 685 448 728 q 366 582 377 642 l 200 469 q 247 576 213 530 q 327 659 281 623 q 420 729 372 696 q 525 795 469 762 q 643 827 581 827 q 714 820 673 827 q 796 795 756 812 q 863 752 836 779 q 889 686 889 725 q 888 671 889 677 q 877 626 884 647 q 859 583 870 605 q 770 472 827 521 q 644 384 713 423 q 503 310 574 344 q 369 243 431 276 q 263 176 306 211 q 208 101 220 142 l 768 101 z "},"3":{"ha":744,"x_min":-70,"x_max":879,"o":"m 879 814 q 675 590 779 701 q 446 393 570 480 q 557 383 501 392 q 659 351 613 374 q 733 287 705 329 q 761 176 761 244 q 714 -7 761 73 q 586 -145 668 -87 q 456 -225 527 -187 q 308 -289 385 -264 q 158 -313 231 -313 q 101 -310 138 -313 q 25 -296 64 -306 q -42 -270 -15 -287 q -70 -226 -70 -253 q -47 -178 -70 -202 q 10 -134 -24 -155 q 76 -96 43 -113 q 127 -71 109 -80 q 104 -95 115 -80 q 94 -126 94 -110 q 122 -169 94 -152 q 192 -194 151 -185 q 270 -207 233 -203 q 327 -211 308 -211 q 528 -131 457 -211 q 599 76 599 -52 q 570 188 599 145 q 494 252 541 230 q 390 282 446 274 q 277 292 333 291 q 506 490 407 387 q 712 711 606 593 l 210 711 q 244 735 221 718 q 294 770 267 751 q 343 801 321 788 q 376 814 366 814 l 879 814 z "},"4":{"ha":907,"x_min":28,"x_max":999,"o":"m 999 425 q 853 326 932 371 q 689 264 775 280 q 650 173 680 214 q 580 101 621 132 l 823 101 q 766 69 796 94 q 708 22 736 44 q 657 0 680 0 l 411 0 q 491 65 467 25 q 522 154 514 105 q 540 256 530 203 l 28 256 q 227 429 123 336 q 427 621 331 522 q 595 821 524 720 q 643 892 624 862 q 682 947 663 922 q 728 995 701 971 q 800 1045 755 1018 q 826 1061 813 1053 q 851 1077 839 1068 l 708 358 l 768 358 q 889 373 825 358 q 999 425 954 389 m 657 832 q 447 576 559 694 q 197 358 335 458 l 563 358 l 657 832 z "},"5":{"ha":752,"x_min":-29,"x_max":863,"o":"m 863 814 q 829 790 852 807 q 779 755 806 774 q 730 724 752 737 q 699 711 707 711 l 378 711 q 330 542 356 626 q 269 376 304 458 q 382 408 318 400 q 501 416 447 416 q 646 368 591 416 q 700 227 700 319 q 692 156 700 192 q 622 -2 675 76 q 492 -143 568 -80 q 329 -245 416 -207 q 159 -283 242 -283 q 115 -278 144 -283 q 53 -264 85 -273 q -3 -240 20 -254 q -29 -208 -26 -227 q 23 -136 -1 -159 q 73 -101 47 -113 q 126 -75 98 -89 q 193 -32 155 -62 q 160 -64 178 -43 q 141 -103 141 -84 q 162 -139 141 -124 q 214 -163 184 -153 q 274 -177 245 -173 q 319 -182 303 -182 q 393 -160 358 -182 q 454 -103 427 -138 q 499 -29 481 -68 q 524 44 517 10 q 532 122 532 85 q 482 266 532 214 q 340 318 432 318 q 218 299 279 318 q 100 262 157 280 q 176 483 146 370 q 229 711 205 597 l 380 814 l 863 814 z "},"6":{"ha":862,"x_min":155,"x_max":1113,"o":"m 1113 1011 l 956 919 q 928 971 957 954 q 861 996 899 989 q 798 1002 823 1002 q 617 957 695 1002 q 483 837 538 911 q 391 673 427 762 q 338 496 355 584 q 405 552 365 521 q 490 614 444 584 q 580 663 535 644 q 663 682 625 682 q 771 646 725 682 q 842 554 817 610 q 867 442 867 499 q 862 386 867 412 q 836 309 853 346 q 795 238 819 272 q 718 146 765 193 q 613 60 670 100 q 495 -5 555 20 q 377 -29 434 -29 q 244 15 292 -29 q 175 128 195 60 q 155 268 155 196 q 198 510 155 390 q 319 736 241 630 q 498 925 396 843 q 718 1054 600 1007 q 960 1101 836 1101 q 1024 1096 988 1101 q 1086 1072 1060 1090 q 1113 1015 1113 1054 l 1113 1011 m 533 586 q 461 564 494 586 q 402 507 428 541 q 357 434 376 472 q 327 364 338 395 q 337 270 329 321 q 366 175 346 220 q 421 101 385 130 q 512 72 456 72 q 594 98 559 72 q 652 166 629 125 q 687 253 675 208 q 698 338 698 299 q 688 416 698 374 q 659 498 679 459 q 608 561 640 536 q 533 586 576 586 z "},"7":{"ha":771,"x_min":-13,"x_max":897,"o":"m 897 814 l 637 320 q 586 224 612 272 q 530 132 560 176 q 424 1 487 69 q 287 -131 361 -67 q 136 -244 213 -194 q -12 -321 58 -295 l -13 -317 q 135 -219 70 -269 q 254 -110 199 -170 q 363 31 309 -50 q 557 366 471 192 q 733 711 644 540 l 193 711 q 227 735 204 718 q 277 770 250 751 q 327 801 304 788 q 359 814 349 814 l 897 814 z "},"8":{"ha":828,"x_min":87,"x_max":908,"o":"m 660 575 q 738 519 701 551 q 800 447 776 488 q 825 355 825 407 q 788 238 825 295 q 693 134 752 182 q 564 49 634 85 q 426 -7 494 13 q 305 -28 358 -28 q 149 30 211 -28 q 87 183 87 87 q 127 331 87 265 q 229 449 168 397 q 355 540 291 501 q 277 597 310 562 q 245 686 245 632 q 278 800 245 742 q 366 911 311 858 q 485 1006 420 964 q 614 1073 550 1048 q 731 1097 679 1097 q 818 1078 777 1097 q 883 1024 858 1059 q 908 940 908 989 q 883 838 908 890 q 820 737 859 786 q 739 647 782 688 q 660 575 696 605 m 572 994 q 488 969 523 994 q 435 903 453 943 q 417 817 417 863 q 453 710 417 753 q 541 638 489 667 q 642 585 593 608 q 690 661 667 616 q 730 753 714 706 q 746 841 746 801 q 693 955 746 916 q 572 994 641 994 m 374 531 q 288 418 321 486 q 254 279 254 349 q 317 128 254 182 q 473 73 380 73 q 606 118 558 73 q 654 251 654 163 q 628 353 654 310 q 558 427 601 395 q 467 483 515 458 q 374 531 418 508 z "},"9":{"ha":862,"x_min":-113,"x_max":845,"o":"m -113 -211 l 43 -119 q 72 -171 43 -153 q 139 -196 101 -189 q 201 -202 176 -202 q 383 -157 304 -202 q 517 -37 461 -111 q 609 127 573 38 q 662 304 644 216 q 595 248 635 279 q 510 186 555 216 q 420 137 465 157 q 337 118 375 118 q 229 154 275 118 q 158 246 183 191 q 132 358 132 301 q 138 414 132 388 q 163 491 146 454 q 204 562 180 528 q 282 654 235 607 q 387 741 330 701 q 505 805 444 781 q 623 829 566 829 q 756 785 707 829 q 825 672 804 741 q 845 532 845 604 q 802 290 845 410 q 681 64 758 170 q 502 -125 604 -43 q 282 -254 400 -207 q 40 -301 164 -301 q -24 -296 12 -301 q -87 -272 -60 -290 q -113 -214 -113 -254 l -113 -211 m 467 214 q 539 237 506 214 q 597 294 572 259 q 642 367 623 328 q 673 436 661 405 q 662 530 671 479 q 634 626 654 581 q 579 700 614 671 q 488 728 543 728 q 405 702 440 728 q 347 634 370 675 q 313 547 324 593 q 302 463 302 501 q 311 384 302 427 q 340 302 321 341 q 392 239 360 264 q 467 214 423 214 z "},"Ð":{"ha":1350,"x_min":117,"x_max":1363,"o":"m 200 0 q 269 97 249 42 q 301 213 289 153 l 454 973 l 289 973 q 326 997 303 981 q 375 1031 349 1013 q 423 1063 401 1050 q 456 1076 445 1076 l 789 1076 q 943 1063 863 1076 q 1098 1022 1023 1050 q 1233 947 1173 994 q 1328 833 1293 901 q 1363 675 1363 766 q 1354 583 1363 631 q 1265 376 1330 469 q 1107 213 1200 283 q 904 96 1014 143 q 679 24 793 48 q 458 0 564 0 l 200 0 m 374 100 l 651 100 q 891 136 779 100 q 1082 253 1003 172 q 1188 470 1161 334 q 1199 535 1195 503 q 1202 601 1202 568 q 1165 769 1202 702 q 1066 878 1128 837 q 924 939 1003 918 q 762 966 846 960 q 600 973 677 973 l 454 254 q 428 170 444 203 q 374 100 412 137 m 822 528 q 783 508 805 524 q 738 474 761 492 q 694 441 715 455 q 657 427 673 427 l 117 427 q 156 447 134 431 q 201 482 178 463 q 245 514 224 500 q 283 528 267 528 l 822 528 z "},"ð":{"ha":845,"x_min":137,"x_max":1061,"o":"m 1061 985 q 1000 950 1027 975 q 945 904 973 925 q 880 883 917 883 q 900 774 894 829 q 907 664 907 719 q 879 406 907 532 q 830 287 867 347 q 741 172 793 227 q 625 75 688 118 q 497 8 563 33 q 371 -17 432 -17 q 249 16 301 -17 q 166 105 196 50 q 137 229 137 161 q 169 368 137 298 q 255 501 201 438 q 377 614 309 564 q 516 692 444 663 q 656 721 589 721 q 730 710 697 721 q 709 798 722 755 q 678 883 696 842 l 436 883 q 492 924 460 900 q 557 967 524 948 q 621 985 591 985 q 472 1132 558 1072 q 510 1152 488 1136 q 555 1188 532 1168 q 598 1221 578 1207 q 633 1235 619 1235 q 652 1225 640 1235 q 668 1210 663 1215 q 769 1108 726 1162 q 844 985 812 1054 l 1061 985 m 488 621 q 405 592 439 621 q 347 517 370 563 q 314 423 325 472 q 304 335 304 374 q 330 207 304 264 q 408 116 357 150 q 534 83 460 83 q 619 112 584 83 q 676 187 654 142 q 709 281 699 232 q 720 370 720 331 q 660 549 720 477 q 488 621 601 621 z "},"Þ":{"ha":926,"x_min":123,"x_max":1034,"o":"m 382 219 q 290 101 351 148 l 526 101 q 470 70 500 94 q 412 22 441 45 q 359 0 383 0 l 123 0 q 187 56 165 29 q 221 117 210 83 q 243 199 233 151 l 364 795 l 193 795 q 226 819 203 803 q 276 853 249 836 q 326 884 303 871 q 358 897 349 897 l 385 897 l 406 1002 q 446 1029 426 1016 q 486 1056 466 1042 q 530 1079 507 1069 q 572 1103 553 1088 l 530 897 q 604 899 567 898 q 679 900 642 900 q 795 893 733 900 q 911 866 857 887 q 1000 803 966 846 q 1034 690 1034 761 q 1027 626 1034 658 q 968 498 1013 559 q 859 386 924 437 q 720 296 794 334 q 570 236 645 257 q 431 214 495 214 q 382 219 405 214 m 420 352 q 518 328 468 337 q 619 318 568 318 q 779 365 720 318 q 859 511 838 412 q 864 549 862 530 q 867 587 867 568 q 832 704 867 661 q 744 766 798 746 q 628 790 690 785 q 509 795 566 795 l 420 352 z "},"þ":{"ha":922,"x_min":156,"x_max":966,"o":"m 307 -311 q 322 -344 307 -335 q 360 -353 338 -353 q 408 -341 384 -353 q 336 -420 383 -386 q 236 -454 290 -454 q 174 -429 192 -454 q 156 -362 156 -403 q 157 -335 156 -349 q 161 -307 159 -321 l 399 875 q 404 918 404 899 q 392 965 404 945 q 349 985 380 985 q 310 980 330 985 q 272 967 290 975 q 343 1019 304 991 q 425 1066 382 1046 q 510 1085 468 1085 q 555 1061 544 1085 q 566 1008 566 1037 q 563 966 566 987 q 555 924 560 945 l 496 636 q 576 686 533 661 q 664 729 618 712 q 755 747 709 747 q 912 689 859 747 q 966 530 966 631 q 935 366 966 446 q 849 217 904 286 q 724 96 795 148 q 572 14 652 43 q 408 -16 491 -16 q 387 -15 397 -16 q 366 -12 376 -15 l 308 -294 q 307 -311 307 -302 m 600 646 q 535 624 565 646 q 485 577 505 603 l 407 193 q 476 112 429 139 q 579 84 523 84 q 685 115 643 84 q 753 195 728 146 q 788 301 778 245 q 799 410 799 358 q 779 529 799 476 q 716 614 760 583 q 600 646 672 646 z "},"½":{"ha":1188,"x_min":64,"x_max":1316,"o":"m 1148 1223 q 966 869 1074 1038 q 740 542 859 701 q 561 309 652 425 q 369 87 469 194 q 300 15 336 52 q 224 -49 264 -21 q 144 -96 186 -75 q 64 -145 102 -117 q 320 124 189 -24 q 574 434 451 272 q 800 764 697 597 q 969 1093 902 932 q 975 1108 970 1096 q 981 1122 979 1120 q 1061 1177 1015 1156 q 1148 1223 1107 1199 m 544 526 q 490 495 519 520 q 431 448 460 471 q 378 425 401 425 l 146 425 q 203 492 180 463 q 238 574 227 522 q 280 785 261 679 q 320 998 300 892 q 253 953 286 976 q 182 912 219 930 q 183 917 182 914 q 184 921 183 919 q 213 944 186 927 q 281 985 241 962 q 365 1031 322 1008 q 441 1072 408 1054 q 486 1095 475 1089 l 396 646 q 369 576 389 612 q 315 526 348 540 l 544 526 m 1219 101 q 1180 81 1202 97 q 1135 46 1158 65 q 1091 14 1112 28 q 1054 0 1069 0 l 686 0 q 734 91 696 50 q 825 166 772 131 q 935 234 878 201 q 1042 302 992 267 q 1122 377 1091 337 q 1153 467 1153 417 q 1126 536 1153 512 q 1060 570 1099 561 q 985 580 1021 580 q 959 498 959 541 q 960 477 959 488 q 962 456 961 466 q 935 433 956 448 q 885 403 913 419 q 833 374 858 387 q 798 355 809 361 q 793 393 793 374 q 795 422 793 410 q 846 512 805 467 q 945 596 888 557 q 1060 657 1002 634 q 1161 681 1118 681 q 1233 671 1197 681 q 1292 636 1269 661 q 1316 568 1316 612 q 1284 465 1316 512 q 1201 379 1252 418 q 1093 304 1151 339 q 983 236 1036 269 q 893 170 930 203 q 849 101 857 137 l 1219 101 z "},"¼":{"ha":1188,"x_min":60,"x_max":1296,"o":"m 1144 1223 q 964 869 1071 1038 q 738 542 857 701 q 570 325 656 432 q 391 116 484 218 q 310 29 353 73 q 220 -49 268 -16 q 140 -96 182 -75 q 60 -145 98 -117 q 323 129 193 -17 q 571 432 452 274 q 790 757 690 591 q 966 1093 891 924 q 972 1108 967 1096 q 979 1122 977 1120 q 1058 1177 1015 1156 q 1144 1223 1102 1198 m 541 526 q 486 495 516 520 q 427 448 456 471 q 374 425 397 425 l 144 425 q 201 492 178 463 q 236 574 224 522 q 278 785 259 679 q 318 998 298 892 q 249 954 283 976 q 178 912 215 931 q 179 917 178 914 q 180 921 179 919 q 210 945 182 927 q 278 985 237 962 q 362 1031 319 1008 q 439 1072 405 1055 q 484 1095 473 1089 l 393 646 q 366 575 386 611 q 311 526 345 540 l 541 526 m 1082 165 q 1058 131 1072 146 q 1027 101 1044 115 l 1185 101 q 1152 79 1176 95 q 1101 44 1128 62 q 1050 13 1073 26 q 1019 0 1027 0 l 852 0 q 912 64 898 22 q 936 150 927 105 l 542 151 q 583 176 558 158 q 633 212 608 193 q 673 243 658 231 q 855 400 772 319 q 1022 570 937 481 q 1100 627 1050 601 q 1187 671 1149 652 l 1102 252 l 1119 252 q 1210 259 1174 252 q 1296 289 1246 265 q 1233 241 1270 266 q 1155 195 1195 216 q 1082 165 1115 175 m 1004 477 q 862 359 935 416 q 711 252 789 303 l 956 252 l 1004 477 z "},"¹":{"ha":561,"x_min":235,"x_max":633,"o":"m 633 526 q 579 495 610 520 q 518 448 548 471 q 467 425 488 425 l 235 425 q 293 492 270 463 q 328 574 316 522 q 370 785 351 679 q 410 998 389 892 q 341 952 376 975 q 270 912 307 930 q 302 943 274 924 q 369 986 330 963 q 451 1031 409 1008 q 527 1070 493 1053 q 576 1095 561 1088 l 486 646 q 458 576 479 612 q 404 526 437 540 l 633 526 z "},"¾":{"ha":1188,"x_min":35,"x_max":1341,"o":"m 1190 1223 q 1009 869 1116 1038 q 783 542 902 701 q 616 326 701 433 q 439 119 531 219 q 356 31 399 75 q 265 -49 313 -14 q 185 -98 227 -77 q 105 -145 144 -119 q 308 64 203 -51 q 516 306 412 178 q 713 566 619 433 q 884 833 807 700 q 1012 1093 960 967 q 1017 1108 1014 1098 q 1024 1122 1020 1118 q 1104 1176 1060 1157 q 1190 1223 1149 1196 m 705 1076 q 571 950 644 1006 q 423 842 498 895 q 492 836 455 840 q 563 819 530 831 q 618 782 597 807 q 639 715 639 758 q 635 677 639 696 q 591 595 626 635 q 505 520 556 555 q 397 458 454 485 q 287 416 340 431 q 194 401 234 401 q 156 402 182 401 q 102 410 130 404 q 55 425 75 415 q 35 452 35 435 q 56 485 35 467 q 107 519 77 502 q 167 551 138 536 q 212 576 196 566 q 219 580 216 578 q 212 576 216 578 q 199 548 199 565 q 219 526 199 534 q 268 512 239 517 q 321 505 296 507 q 357 503 347 503 q 402 506 380 503 q 448 514 425 509 q 475 613 475 559 q 453 682 475 656 q 397 719 431 707 q 325 735 363 731 q 254 739 287 739 q 401 851 330 791 q 538 975 472 911 l 200 975 q 233 998 210 981 q 284 1032 256 1014 q 334 1063 311 1050 q 366 1076 357 1076 l 705 1076 m 1126 165 q 1103 131 1117 146 q 1074 101 1090 115 l 1232 101 q 1198 79 1222 95 q 1147 44 1175 62 q 1096 13 1119 26 q 1065 0 1073 0 l 897 0 q 957 64 943 22 q 981 150 972 105 l 587 151 q 643 186 610 162 q 698 227 675 210 q 889 391 800 304 q 1067 570 979 477 q 1115 608 1085 589 q 1176 643 1145 627 q 1232 671 1208 659 l 1147 252 l 1163 252 q 1254 259 1218 252 q 1341 289 1291 265 q 1277 241 1315 266 q 1200 195 1240 216 q 1126 165 1160 175 m 1048 477 q 907 359 980 416 q 756 252 833 303 l 1003 252 l 1048 477 z "},"³":{"ha":561,"x_min":100,"x_max":770,"o":"m 770 1076 q 636 950 709 1006 q 488 842 563 895 q 557 836 519 840 q 628 820 594 832 q 682 782 661 807 q 703 715 703 758 q 700 677 703 696 q 655 594 690 635 q 570 519 621 554 q 463 457 519 484 q 353 416 406 431 q 259 401 299 401 q 221 402 247 401 q 167 410 195 404 q 119 425 139 415 q 100 452 100 435 q 121 485 100 467 q 172 519 142 502 q 232 551 203 536 q 277 576 261 566 q 284 580 281 578 q 277 576 281 578 q 264 548 264 565 q 284 526 264 534 q 333 512 304 517 q 387 505 361 507 q 422 503 412 503 q 468 506 445 503 q 513 514 490 509 q 532 562 526 535 q 539 613 539 588 q 518 682 539 657 q 463 720 496 707 q 391 735 429 732 q 319 739 353 739 q 466 851 395 792 q 603 975 536 911 l 265 975 q 298 998 275 981 q 349 1032 321 1014 q 399 1063 376 1050 q 431 1076 422 1076 l 770 1076 z "},"²":{"ha":561,"x_min":115,"x_max":745,"o":"m 648 511 q 593 479 624 504 q 532 433 562 455 q 482 410 502 410 l 115 410 q 121 425 116 417 q 245 566 168 506 q 308 610 275 590 q 374 650 340 631 q 457 701 414 674 q 533 762 500 727 q 578 846 567 798 q 581 874 581 859 q 558 941 581 916 q 501 978 536 966 q 431 990 467 990 q 421 990 426 990 q 410 988 416 989 q 393 950 399 970 q 387 909 387 930 q 392 865 387 888 q 364 842 386 857 q 315 813 342 828 q 263 784 288 798 q 227 765 239 771 q 220 804 220 784 q 247 884 220 843 q 316 961 273 924 q 409 1028 359 998 q 506 1074 458 1057 q 589 1091 553 1091 q 662 1081 626 1091 q 721 1046 698 1071 q 745 977 745 1021 q 713 874 745 921 q 631 787 682 827 q 523 712 581 747 q 412 645 465 677 q 322 580 359 612 q 279 511 286 547 l 648 511 z "},"¦":{"ha":334,"x_min":54,"x_max":503,"o":"m 219 578 l 338 1169 q 362 1192 340 1179 q 412 1220 383 1205 q 467 1247 441 1234 q 503 1270 492 1261 l 384 681 q 360 657 381 670 q 310 630 338 644 q 255 603 281 616 q 219 578 230 590 m 54 -233 l 173 357 q 197 380 175 367 q 248 407 218 393 q 302 434 277 421 q 339 458 328 448 l 221 -132 q 198 -154 220 -140 q 146 -182 176 -167 q 90 -210 116 -197 q 54 -233 64 -224 z "},"×":{"ha":878,"x_min":219,"x_max":838,"o":"m 838 647 q 725 536 783 590 q 605 431 667 481 q 681 347 642 388 q 764 269 721 306 q 727 249 749 265 q 681 213 705 233 q 636 180 656 194 q 603 165 615 165 q 576 185 597 165 q 528 233 555 205 q 480 284 502 260 q 452 315 458 308 q 339 236 397 274 q 222 165 282 198 l 219 178 q 334 248 279 208 q 439 330 388 288 q 362 436 398 381 q 293 548 326 491 q 374 602 325 575 q 461 650 423 629 q 514 548 484 597 q 585 458 545 499 q 631 505 608 481 q 677 551 654 528 q 730 586 701 572 q 787 612 758 599 q 838 647 815 625 z "},"!":{"ha":351,"x_min":92,"x_max":481,"o":"m 175 252 q 230 520 202 387 q 283 788 257 654 q 296 847 288 812 q 310 917 304 882 q 315 974 315 951 q 312 990 315 982 q 298 998 309 998 q 271 983 291 998 q 244 962 251 968 l 245 972 q 289 1002 260 982 q 352 1043 318 1021 q 415 1079 386 1064 q 459 1094 445 1094 q 477 1084 473 1094 q 481 1063 481 1074 q 478 1036 481 1050 q 473 1008 476 1021 l 298 323 q 265 300 289 311 q 216 277 241 289 q 175 252 191 266 m 310 79 l 143 -23 l 92 102 l 256 203 l 310 79 z "},"\"":{"ha":519,"x_min":259,"x_max":682,"o":"m 502 733 q 511 817 507 775 q 515 901 515 859 q 514 935 515 911 q 506 980 513 959 q 483 999 500 1000 q 534 1041 504 1019 q 597 1079 564 1063 q 661 1094 631 1094 q 678 1084 674 1094 q 682 1063 682 1074 q 681 1047 682 1055 q 679 1031 680 1039 q 612 870 660 938 q 502 733 564 802 m 277 733 q 288 817 283 774 q 292 901 292 859 q 290 935 292 911 q 282 980 289 959 q 259 999 275 1000 q 310 1041 280 1019 q 374 1079 340 1063 q 436 1094 407 1094 q 454 1083 450 1094 q 458 1061 458 1072 q 457 1045 458 1053 q 454 1029 456 1038 q 388 868 435 934 q 277 733 340 802 z "},"#":{"ha":878,"x_min":127,"x_max":912,"o":"m 912 563 q 858 531 888 555 q 800 483 829 506 q 748 460 770 460 l 698 460 l 633 312 l 819 312 q 781 293 803 309 q 736 257 760 277 q 691 224 713 238 q 652 210 669 210 l 587 210 q 553 123 569 168 q 510 41 537 78 q 459 2 494 19 q 391 -29 425 -14 q 344 -60 357 -43 l 466 210 l 395 210 q 362 123 378 168 q 319 41 346 78 q 276 8 305 22 q 226 -17 247 -7 q 186 -36 210 -24 q 151 -60 163 -47 l 276 210 l 127 210 q 174 233 154 217 q 213 268 194 250 q 258 299 233 286 q 321 312 283 312 l 384 460 l 225 460 q 279 494 250 469 q 337 541 309 519 q 389 563 365 563 l 426 563 q 451 642 439 600 q 486 716 464 684 q 527 750 498 735 q 576 774 555 766 q 616 792 595 783 q 651 817 636 802 l 550 563 l 616 563 q 643 641 629 600 q 678 716 657 682 q 720 750 690 734 q 770 774 750 766 q 809 793 787 782 q 844 817 832 804 l 740 563 l 912 563 m 575 460 l 507 460 l 441 312 l 511 312 l 575 460 z "},"$":{"ha":708,"x_min":130,"x_max":798,"o":"m 313 102 l 313 102 q 262 105 293 103 q 201 115 231 108 q 150 136 171 122 q 130 172 130 149 q 152 216 130 195 q 207 256 174 237 q 270 290 239 275 q 319 318 301 306 q 322 320 321 319 q 319 318 322 320 q 300 299 309 311 q 292 273 292 287 q 320 231 292 245 q 382 212 347 217 q 436 207 416 207 q 517 225 480 207 q 555 296 555 244 q 532 349 555 329 q 472 382 509 369 q 395 406 436 395 q 318 432 355 417 q 259 471 282 447 q 236 534 236 495 q 239 561 236 547 q 279 659 248 608 q 355 755 310 709 q 453 834 401 802 q 461 882 457 858 q 469 929 465 905 q 487 974 475 961 q 527 1001 498 986 q 552 1014 539 1008 q 578 1027 565 1021 q 613 1044 595 1036 q 646 1065 631 1053 l 609 886 q 657 883 626 886 q 721 872 688 880 q 775 851 753 865 q 798 818 798 838 q 774 771 798 793 q 716 731 750 750 q 649 696 682 713 q 600 665 617 680 q 620 688 610 674 q 631 717 631 703 q 604 755 631 740 q 545 778 578 770 q 495 785 513 785 q 407 754 439 785 q 374 665 374 722 q 399 592 374 619 q 463 549 424 566 q 545 522 502 533 q 628 496 589 510 q 691 458 667 481 q 716 396 716 435 q 680 302 716 349 q 589 214 644 255 q 474 145 533 173 l 450 26 q 411 -3 431 12 q 369 -29 391 -18 q 326 -50 347 -40 q 285 -75 304 -60 l 321 102 l 313 102 z "},"%":{"ha":1054,"x_min":3,"x_max":1298,"o":"m 1105 1223 q 924 869 1031 1038 q 699 542 817 701 q 615 431 664 495 q 509 297 566 368 q 394 159 452 227 q 280 36 335 91 q 181 -49 225 -18 q 101 -97 142 -75 q 22 -145 60 -118 q 224 64 119 -51 q 432 306 328 178 q 629 567 535 433 q 800 834 723 701 q 928 1093 877 967 q 933 1108 930 1098 q 940 1122 936 1118 q 1020 1176 975 1156 q 1105 1223 1064 1196 m 187 414 q 48 475 93 414 q 3 625 3 536 q 41 790 3 719 q 141 916 79 861 q 279 1016 204 970 q 371 1066 321 1042 q 471 1091 420 1091 q 568 1063 528 1091 q 631 989 609 1035 q 652 890 652 943 q 624 765 652 831 q 546 637 595 699 q 437 525 498 575 q 312 444 376 474 q 187 414 248 414 m 292 990 q 281 990 286 990 q 270 988 275 989 q 195 868 223 938 q 167 730 167 799 q 186 624 167 674 q 247 544 206 574 q 349 513 288 513 q 364 513 357 513 q 379 515 372 514 q 434 594 410 549 q 472 690 458 640 q 486 785 486 740 q 435 932 486 875 q 292 990 385 990 m 835 -14 q 695 47 740 -14 q 650 195 650 107 q 688 361 650 290 q 787 487 725 432 q 924 587 849 542 q 1017 638 967 613 q 1118 663 1067 663 q 1216 634 1175 663 q 1277 560 1256 606 q 1298 460 1298 514 q 1270 336 1298 401 q 1193 209 1241 271 q 1084 96 1144 146 q 959 16 1023 46 q 835 -14 895 -14 m 937 563 q 926 562 931 563 q 916 562 921 562 q 843 439 871 509 q 815 300 815 369 q 834 195 815 244 q 894 116 854 146 q 996 85 934 85 q 1010 86 1003 85 q 1025 89 1018 87 q 1081 166 1056 121 q 1120 262 1105 212 q 1135 357 1135 313 q 1082 505 1135 447 q 937 563 1029 563 z "},"&":{"ha":1138,"x_min":-115,"x_max":1542,"o":"m 1542 843 q 1500 818 1519 833 q 1461 788 1481 802 q 1374 743 1417 757 q 1278 730 1331 730 q 1242 731 1260 730 q 1206 733 1224 732 q 1154 568 1200 649 q 1044 419 1108 488 q 916 300 980 350 q 968 236 939 271 q 1030 169 996 201 q 1101 116 1063 136 q 1179 95 1138 95 q 1257 103 1218 95 q 1331 129 1295 111 q 1235 64 1285 96 q 1129 12 1184 33 q 1017 -9 1075 -9 q 913 25 960 -9 q 829 106 867 59 q 757 191 790 153 q 583 91 675 138 q 393 13 491 43 q 195 -17 295 -17 q 93 -6 147 -17 q -8 28 39 4 q -85 93 -56 52 q -115 192 -115 133 q -79 319 -115 262 q 16 422 -42 376 q 137 504 73 468 q 254 568 200 540 q 166 614 204 581 q 129 703 129 648 q 164 808 129 753 q 255 915 199 863 q 376 1008 311 966 q 504 1074 441 1050 q 614 1099 567 1099 q 704 1081 662 1099 q 771 1028 745 1063 q 798 941 798 993 q 757 813 798 871 q 658 709 717 755 q 545 633 600 664 q 675 552 616 602 q 786 446 734 503 q 888 330 838 388 q 999 492 954 403 q 1044 682 1044 582 q 1037 751 1044 718 q 951 758 995 758 q 871 751 911 758 q 795 727 831 745 q 894 793 847 764 q 994 841 941 823 q 1112 859 1046 859 q 1270 845 1192 859 q 1427 832 1348 832 q 1542 843 1486 832 m 456 998 q 424 996 440 998 q 392 990 408 994 q 323 904 353 952 q 293 800 293 857 q 315 730 293 756 q 371 688 336 703 q 443 664 405 673 q 513 646 481 654 q 576 688 551 653 q 614 766 602 723 q 627 844 627 810 q 578 959 627 920 q 456 998 529 998 m 749 201 q 630 336 690 269 q 501 459 570 404 q 342 545 431 514 q 238 520 290 534 q 145 482 186 506 q 79 416 104 458 q 54 307 54 374 q 81 205 54 247 q 150 136 107 163 q 245 98 193 110 q 349 85 297 85 q 485 99 412 85 q 628 138 558 113 q 749 201 697 164 z "},"'":{"ha":318,"x_min":271,"x_max":469,"o":"m 288 733 q 299 817 295 774 q 303 901 303 859 q 302 935 303 911 q 294 980 300 959 q 271 999 287 1000 q 322 1041 292 1019 q 385 1079 352 1063 q 448 1094 418 1094 q 465 1083 461 1094 q 469 1061 469 1072 q 468 1045 469 1053 q 465 1029 467 1038 q 399 868 446 934 q 288 733 352 802 z "},"(":{"ha":490,"x_min":33,"x_max":871,"o":"m 871 1273 q 791 1222 827 1254 q 711 1172 755 1191 q 641 1144 671 1154 q 585 1124 610 1134 q 531 1096 559 1114 q 467 1045 503 1078 q 325 863 385 970 q 230 638 264 756 q 197 409 197 519 q 218 224 197 317 q 287 51 240 130 q 409 -77 334 -28 q 591 -127 484 -126 q 555 -151 578 -134 q 507 -185 532 -167 q 459 -215 481 -203 q 426 -228 437 -228 q 244 -178 319 -228 q 122 -47 169 -128 q 54 128 75 33 q 33 313 33 222 q 72 565 33 440 q 185 800 112 690 q 355 990 258 909 q 512 1104 426 1048 q 690 1203 598 1159 q 871 1273 783 1248 z "},")":{"ha":490,"x_min":-151,"x_max":687,"o":"m -151 -228 q -68 -177 -106 -208 q 16 -127 -30 -146 q 39 -118 27 -122 q 64 -110 52 -114 q 314 51 214 -54 q 466 295 415 157 q 516 590 516 434 q 503 741 516 663 q 462 892 490 819 q 389 1027 434 966 q 280 1126 344 1088 q 131 1172 216 1165 q 169 1196 146 1179 q 217 1230 192 1212 q 264 1260 242 1247 q 298 1273 286 1273 q 341 1267 319 1273 q 382 1255 362 1262 q 521 1166 463 1224 q 616 1034 579 1109 q 670 875 652 958 q 687 712 687 792 q 642 447 687 574 q 517 207 597 319 q 332 6 437 96 q 102 -143 226 -83 q -151 -228 -21 -203 z "},"*":{"ha":707,"x_min":193,"x_max":835,"o":"m 555 730 q 603 680 573 709 q 665 625 633 650 q 723 589 697 599 q 738 584 727 587 q 749 574 749 580 q 732 545 749 566 q 692 499 715 524 q 649 458 669 475 q 620 441 628 441 q 595 465 609 441 q 565 525 581 488 q 536 600 549 562 q 514 670 523 639 q 506 713 506 701 q 437 636 470 675 q 374 555 404 597 q 340 503 356 528 q 333 489 337 497 q 325 476 330 481 q 321 472 323 474 q 316 468 318 470 q 286 479 306 469 q 244 503 266 489 q 208 532 223 517 q 193 558 193 547 q 215 585 193 567 q 271 625 237 603 q 340 669 304 648 q 405 708 376 691 q 444 730 433 724 q 397 742 431 732 q 325 764 363 751 q 258 790 286 777 q 231 815 231 804 q 246 841 231 822 q 282 881 261 860 q 323 919 304 903 q 350 937 342 935 q 354 934 352 935 q 358 930 357 932 q 422 844 392 879 q 500 771 452 810 q 503 848 503 808 q 500 931 503 886 q 486 1013 497 976 q 482 1024 484 1019 q 480 1036 480 1029 q 501 1052 480 1044 q 550 1065 522 1059 q 603 1075 578 1072 q 637 1078 628 1078 q 650 1076 644 1078 q 656 1064 656 1074 q 645 1007 656 1045 q 617 925 633 968 q 584 843 600 881 q 557 787 567 805 q 659 854 611 818 q 750 935 707 890 q 762 941 756 941 q 783 925 770 941 q 807 889 795 910 q 827 848 819 867 q 835 821 835 829 q 810 800 835 811 q 748 777 785 788 q 670 755 710 765 q 599 738 631 745 q 555 730 567 731 z "},"+":{"ha":878,"x_min":181,"x_max":886,"o":"m 886 459 q 832 429 863 454 q 772 381 802 404 q 720 358 742 358 l 595 358 l 560 190 q 537 167 558 180 q 487 140 515 154 q 432 112 458 125 q 396 89 406 99 l 450 358 l 181 358 q 234 389 204 364 q 294 436 264 414 q 346 459 323 459 l 470 459 l 504 627 q 527 649 505 636 q 578 677 549 663 q 633 706 608 692 q 669 730 659 720 l 615 459 l 886 459 z "},",":{"ha":393,"x_min":109,"x_max":321,"o":"m 123 -210 q 171 -161 146 -190 q 214 -100 197 -133 q 232 -36 232 -68 q 228 -13 232 -24 q 209 -1 223 -1 q 184 -9 198 -1 q 160 -23 170 -18 l 109 102 l 273 203 q 306 130 290 168 q 321 52 321 93 q 298 -41 321 5 q 239 -125 275 -87 q 163 -185 203 -163 q 143 -197 153 -191 q 123 -210 133 -203 z "},"-":{"ha":435,"x_min":-43,"x_max":663,"o":"m 663 459 q 624 439 646 455 q 578 405 602 423 q 534 372 555 386 q 498 358 513 358 l -43 358 q -3 378 -25 362 q 41 413 18 394 q 86 445 64 431 q 124 459 107 459 l 663 459 z "},".":{"ha":393,"x_min":112,"x_max":331,"o":"m 331 79 l 163 -23 l 112 102 l 276 203 l 331 79 z "},"/":{"ha":740,"x_min":73,"x_max":878,"o":"m 878 1076 q 651 686 772 875 q 400 312 529 498 q 352 241 380 283 q 294 161 323 200 q 239 101 264 123 q 157 49 201 69 q 73 0 113 29 q 315 315 198 154 q 529 649 431 477 l 668 894 q 688 934 680 913 q 711 973 697 955 q 757 1010 726 992 q 822 1044 788 1027 q 878 1076 855 1060 z "},":":{"ha":381,"x_min":109,"x_max":422,"o":"m 422 557 l 257 456 l 204 580 l 370 682 l 422 557 m 326 79 l 160 -23 l 109 102 l 273 203 l 326 79 z "},";":{"ha":378,"x_min":105,"x_max":419,"o":"m 419 557 l 254 456 l 201 580 l 366 682 l 419 557 m 117 -210 q 167 -162 141 -190 q 211 -101 193 -134 q 229 -35 229 -68 q 223 -12 229 -23 q 204 -1 218 -1 q 179 -9 193 -1 q 157 -23 165 -18 l 105 102 l 269 203 q 302 131 286 168 q 317 54 317 94 q 295 -42 317 4 q 235 -124 272 -87 q 157 -185 199 -161 q 137 -197 147 -191 q 117 -210 127 -203 z "},"<":{"ha":878,"x_min":214,"x_max":873,"o":"m 873 782 q 732 642 812 705 q 565 525 652 578 q 393 424 478 472 q 572 270 484 348 q 737 101 661 192 q 681 68 711 90 q 621 27 650 47 q 570 0 592 7 q 446 105 503 47 q 332 221 388 162 q 214 334 276 281 q 296 381 258 353 q 375 435 334 410 q 472 491 423 464 q 566 552 520 519 q 638 614 604 581 q 708 681 673 648 q 763 719 733 705 q 821 746 792 732 q 873 782 850 760 z "},"=":{"ha":878,"x_min":162,"x_max":894,"o":"m 894 563 q 856 543 877 559 q 811 508 834 527 q 767 474 788 488 q 730 460 745 460 l 205 460 q 259 493 228 468 q 319 541 290 518 q 369 563 349 563 l 894 563 m 852 357 q 798 324 827 349 q 738 278 768 300 q 685 256 709 256 l 162 256 q 198 274 176 258 q 243 309 220 290 q 289 342 267 328 q 328 357 311 357 l 852 357 z "},">":{"ha":878,"x_min":180,"x_max":840,"o":"m 840 448 q 757 400 797 427 q 677 349 718 374 q 536 265 608 305 q 407 165 465 225 q 377 133 391 150 q 347 101 362 116 q 293 64 322 78 q 234 36 264 50 q 180 0 205 22 q 322 140 242 77 q 489 257 401 203 q 661 358 576 310 q 481 512 570 434 q 317 681 393 590 q 397 734 359 703 q 479 783 434 766 q 537 743 501 774 q 616 672 573 713 q 702 587 659 631 q 782 506 745 543 q 840 448 818 469 z "},"?":{"ha":694,"x_min":163,"x_max":872,"o":"m 317 241 q 317 258 317 250 q 351 365 317 318 q 439 455 386 412 q 548 544 492 498 q 647 645 604 589 q 707 776 691 701 q 711 819 711 797 q 681 918 711 878 q 603 978 651 958 q 500 999 555 999 q 410 966 448 999 q 351 885 372 933 q 330 789 330 836 q 340 722 330 755 l 174 621 q 163 686 163 651 q 198 807 163 747 q 290 920 233 867 q 416 1014 347 973 q 553 1078 484 1055 q 677 1101 621 1101 q 818 1047 764 1101 q 872 907 872 994 q 847 792 872 842 q 781 701 821 742 q 693 625 740 661 q 602 553 646 589 q 527 477 558 517 q 486 386 495 436 q 484 365 484 376 q 482 345 484 355 q 456 318 479 332 q 405 291 434 304 q 350 265 375 277 q 317 241 325 252 m 475 79 l 309 -23 l 258 102 l 423 203 l 475 79 z "},"@":{"ha":1196,"x_min":139,"x_max":1228,"o":"m 751 49 q 704 98 704 49 q 709 136 704 115 q 623 86 671 111 q 528 62 576 62 q 432 92 470 62 q 393 183 393 121 q 422 298 393 240 q 499 409 451 356 q 606 502 547 461 q 726 567 665 543 q 842 591 788 591 q 887 582 865 591 q 923 555 908 574 q 975 582 948 570 q 1025 614 1002 595 q 982 521 1008 577 q 929 404 956 465 q 884 286 903 342 q 866 193 866 230 q 905 151 866 151 l 912 151 q 985 261 950 199 q 1042 389 1020 322 q 1065 518 1065 455 q 1000 689 1065 626 q 828 751 935 751 q 667 719 745 751 q 525 631 590 687 q 410 503 459 575 q 334 350 361 431 q 307 189 307 270 q 333 53 307 114 q 412 -46 359 -9 q 545 -85 465 -83 q 490 -118 521 -94 q 429 -165 458 -143 q 380 -186 399 -186 q 244 -147 297 -186 q 165 -42 191 -107 q 139 98 139 22 q 169 265 139 182 q 248 421 198 348 q 358 551 297 494 q 492 654 412 600 q 663 754 572 707 q 845 829 755 800 q 1009 859 935 859 q 1173 789 1118 859 q 1228 617 1228 720 q 1220 537 1228 578 q 1177 418 1209 484 q 1097 288 1145 353 q 991 169 1048 223 q 872 82 933 115 q 751 49 810 49 m 691 486 q 635 465 659 486 q 595 411 611 444 q 570 343 578 378 q 562 283 562 309 q 599 193 562 220 q 694 165 635 165 q 718 184 705 165 q 744 228 731 202 q 765 277 756 254 q 776 311 773 300 q 783 376 783 345 q 763 454 783 421 q 691 486 743 486 z "},"A":{"ha":1354,"x_min":-36,"x_max":1351,"o":"m 1080 -14 q 1026 12 1038 -14 q 1008 71 1014 37 q 972 249 990 159 q 933 426 955 338 q 829 409 889 415 q 707 400 770 403 q 590 396 645 397 q 498 395 534 395 q 459 396 479 395 q 419 396 439 396 q 278 246 352 318 q 132 101 204 174 q 270 105 199 101 q 403 142 342 109 q 288 69 335 97 q 198 26 241 41 q 100 5 155 11 q -36 0 45 0 q 215 260 96 123 q 451 536 334 397 q 620 733 534 635 q 781 937 705 831 q 794 956 787 946 q 808 973 800 965 q 667 970 736 973 q 530 943 599 968 q 636 1015 590 988 q 726 1054 682 1041 q 823 1072 770 1067 q 949 1076 876 1076 l 975 1076 q 1088 634 1037 849 q 1172 185 1140 419 q 1188 120 1177 149 q 1244 92 1199 92 q 1299 102 1271 92 q 1351 125 1328 112 q 1293 86 1326 109 q 1220 40 1259 62 q 1145 2 1182 17 q 1080 -14 1109 -14 m 753 497 q 833 497 793 497 q 915 498 874 497 l 914 500 l 810 886 q 660 693 735 789 q 507 501 584 596 l 509 501 q 631 499 570 501 q 753 497 692 497 z "},"B":{"ha":1091,"x_min":212,"x_max":1151,"o":"m 905 632 q 1008 603 959 625 q 1088 540 1057 581 q 1120 439 1120 499 q 1080 312 1120 372 q 978 202 1041 252 q 840 113 914 152 q 692 48 765 74 q 564 12 620 22 q 474 2 519 4 q 382 0 428 0 l 212 0 q 252 49 237 28 q 275 94 267 70 q 292 155 284 117 l 457 973 l 293 973 q 326 997 302 980 q 377 1031 349 1013 q 427 1063 404 1050 q 459 1076 450 1076 l 874 1076 q 961 1072 913 1076 q 1052 1053 1008 1067 q 1123 1008 1095 1038 q 1151 924 1151 977 q 1113 799 1151 852 q 1018 704 1074 745 q 905 632 961 664 m 669 979 q 636 979 652 979 q 603 978 619 978 l 534 632 q 611 635 572 635 q 688 636 649 636 q 756 634 722 636 q 825 632 791 632 q 843 636 828 632 q 862 642 858 641 q 938 688 906 658 q 980 766 970 719 q 984 809 984 789 q 951 902 984 867 q 869 952 919 936 q 765 974 819 969 q 669 979 711 979 m 379 101 l 640 101 q 748 111 694 101 q 849 146 803 121 q 923 213 895 170 q 951 319 951 255 q 920 417 951 378 q 838 479 888 456 q 728 513 787 502 q 612 529 669 525 q 514 532 556 532 l 458 258 q 428 175 449 215 q 379 101 408 134 z "},"C":{"ha":949,"x_min":106,"x_max":1190,"o":"m 1190 1054 q 1163 1029 1190 1048 q 1098 987 1135 1010 q 1028 946 1061 964 q 986 922 996 928 q 1006 938 990 926 q 1021 955 1021 950 q 993 976 1021 967 q 925 990 964 985 q 852 999 886 996 q 806 1002 817 1002 q 526 934 646 1002 q 341 745 407 866 q 275 464 275 624 q 314 266 275 355 q 430 124 353 177 q 625 72 508 72 q 739 85 677 72 q 861 118 801 98 q 970 157 922 138 q 816 60 903 102 q 634 -7 728 17 q 452 -32 539 -32 q 264 17 341 -32 q 146 149 186 65 q 106 340 106 233 q 158 584 106 469 q 298 794 210 699 q 500 959 387 890 q 736 1067 612 1029 q 981 1105 861 1105 q 1025 1102 992 1105 q 1097 1092 1059 1099 q 1162 1076 1135 1086 q 1190 1054 1190 1067 z "},"D":{"ha":1350,"x_min":200,"x_max":1363,"o":"m 200 0 q 269 97 249 42 q 301 213 289 153 l 454 973 l 289 973 q 326 997 303 981 q 375 1031 349 1013 q 423 1063 401 1050 q 456 1076 445 1076 l 789 1076 q 943 1063 863 1076 q 1098 1022 1023 1050 q 1233 947 1173 994 q 1328 833 1293 901 q 1363 675 1363 766 q 1354 583 1363 631 q 1265 376 1330 469 q 1107 213 1200 283 q 904 96 1014 143 q 679 24 793 48 q 458 0 564 0 l 200 0 m 374 100 l 651 100 q 891 136 779 100 q 1082 253 1003 172 q 1188 470 1161 334 q 1199 535 1195 503 q 1202 601 1202 568 q 1165 769 1202 702 q 1066 878 1128 837 q 924 939 1003 918 q 762 966 846 960 q 600 973 677 973 l 454 254 q 428 170 444 203 q 374 100 412 137 z "},"E":{"ha":1021,"x_min":160,"x_max":1229,"o":"m 1229 1076 q 1165 1042 1202 1067 q 1094 995 1129 1017 q 1036 973 1059 973 l 569 973 l 494 610 l 1021 610 q 977 591 1002 606 q 935 564 952 576 q 900 543 921 555 q 857 519 878 530 q 819 509 835 509 l 474 509 l 426 267 q 410 208 421 243 q 382 142 399 173 q 342 101 366 112 l 900 101 q 982 115 935 101 q 1064 141 1029 130 q 1007 104 1048 127 q 919 57 967 81 q 829 17 871 33 q 769 0 788 0 l 160 0 q 236 108 212 55 q 274 234 259 161 l 329 509 l 225 509 l 347 591 l 423 973 l 284 973 q 320 997 294 981 q 375 1031 345 1013 q 430 1063 405 1050 q 464 1076 454 1076 l 1229 1076 z "},"F":{"ha":1064,"x_min":157,"x_max":1255,"o":"m 1255 1076 q 1202 1044 1232 1069 q 1143 996 1173 1019 q 1089 973 1113 973 l 566 973 l 485 568 l 1002 568 q 966 547 985 562 q 933 522 947 532 q 905 500 922 513 q 869 476 888 486 q 838 465 851 465 l 465 465 q 448 379 458 431 q 424 271 438 327 q 389 170 410 216 q 338 101 368 123 l 733 101 q 693 82 715 98 q 648 47 671 66 q 604 14 625 28 q 568 0 583 0 l 157 0 q 220 84 189 34 q 260 179 251 134 l 319 465 l 214 465 l 336 546 l 421 973 l 281 973 q 314 997 290 981 q 365 1031 337 1013 q 416 1063 393 1050 q 448 1076 439 1076 l 1255 1076 z "},"G":{"ha":1054,"x_min":140,"x_max":1149,"o":"m 947 901 q 969 919 957 907 q 981 943 981 930 q 959 972 981 960 q 904 993 937 985 q 833 1007 870 1002 q 767 1015 797 1013 q 724 1017 737 1017 q 567 981 635 1017 q 449 884 498 945 q 367 747 399 823 q 320 590 335 671 q 304 434 304 509 q 319 304 304 368 q 366 188 334 240 q 450 106 397 136 q 580 75 503 75 q 701 88 636 75 q 809 139 765 101 l 876 465 l 661 465 q 694 489 671 472 q 744 524 717 505 q 794 555 771 542 q 825 568 817 568 l 1130 568 q 1075 535 1101 554 q 1024 496 1049 515 l 972 237 q 871 142 930 189 q 743 56 812 94 q 604 -6 675 17 q 466 -29 532 -29 q 285 18 357 -29 q 176 148 212 66 q 140 332 140 229 q 155 473 140 402 q 262 738 184 615 q 376 882 309 814 q 524 1004 443 951 q 693 1088 604 1057 q 876 1118 783 1118 q 920 1114 888 1118 q 990 1103 951 1110 q 1066 1085 1029 1095 q 1126 1061 1102 1074 q 1149 1033 1149 1048 q 1123 1006 1149 1025 q 1059 965 1096 987 q 990 925 1022 943 q 947 901 958 907 z "},"H":{"ha":1430,"x_min":153,"x_max":1592,"o":"m 1592 1076 q 1553 1054 1575 1070 q 1508 1019 1531 1038 q 1463 987 1485 1000 q 1426 973 1442 973 l 1386 973 l 1248 289 q 1230 215 1239 244 q 1204 161 1221 186 q 1157 101 1188 136 l 1396 101 q 1356 80 1378 96 q 1311 46 1334 64 q 1266 14 1288 27 q 1230 0 1245 0 l 976 0 q 1028 54 1008 29 q 1060 107 1048 78 q 1081 179 1072 137 l 1147 509 l 468 509 l 424 289 q 406 216 415 245 q 380 161 397 186 q 334 101 364 135 l 573 101 q 519 71 549 96 q 458 23 488 46 q 406 0 428 0 l 153 0 q 224 78 204 34 q 256 179 245 121 l 417 973 l 277 973 q 310 997 287 980 q 361 1031 334 1013 q 412 1063 389 1050 q 444 1076 435 1076 l 769 1076 q 730 1055 751 1072 q 685 1020 708 1039 q 641 987 662 1001 q 602 973 619 973 l 562 973 l 488 610 l 1167 610 l 1240 973 l 1100 973 q 1134 997 1111 980 q 1184 1031 1158 1013 q 1234 1063 1211 1050 q 1266 1076 1257 1076 l 1592 1076 z "},"I":{"ha":627,"x_min":157,"x_max":789,"o":"m 789 1076 q 750 1056 772 1072 q 704 1021 728 1040 q 660 987 681 1002 q 623 973 638 973 l 566 973 l 428 289 q 396 188 419 243 q 338 101 374 132 l 577 101 q 538 81 560 97 q 493 46 516 65 q 449 14 470 28 q 412 0 428 0 l 157 0 q 228 79 208 40 q 260 179 248 117 l 421 973 l 281 973 q 315 997 292 980 q 366 1031 338 1013 q 415 1063 393 1050 q 448 1076 438 1076 l 789 1076 z "},"J":{"ha":738,"x_min":-271,"x_max":888,"o":"m 888 1076 q 833 1042 864 1067 q 772 995 802 1017 q 722 973 742 973 l 665 973 q 585 570 625 772 q 504 167 545 368 q 450 10 489 90 q 352 -145 410 -71 q 223 -278 294 -219 q 72 -371 152 -336 q -92 -406 -9 -406 q -134 -398 -104 -406 q -194 -378 -163 -391 q -248 -351 -226 -366 q -271 -321 -271 -336 q -243 -285 -271 -307 q -179 -239 -216 -262 q -107 -196 -141 -215 q -60 -172 -73 -178 q -88 -191 -75 -179 q -109 -219 -101 -203 q -58 -261 -93 -241 q 15 -293 -24 -281 q 79 -304 53 -304 q 189 -267 144 -304 q 262 -170 233 -229 q 309 -48 292 -111 q 337 64 327 14 l 520 973 l 381 973 q 414 997 391 980 q 465 1031 437 1013 q 515 1063 492 1050 q 547 1076 538 1076 l 888 1076 z "},"K":{"ha":1375,"x_min":168,"x_max":1442,"o":"m 1351 1076 q 1287 1036 1317 1061 q 1226 991 1257 1011 q 1155 971 1195 971 q 1114 972 1135 971 q 1074 973 1094 973 q 873 793 976 880 q 665 622 770 705 l 928 341 q 1003 261 963 303 q 1088 182 1043 219 q 1185 123 1134 146 q 1291 100 1236 100 q 1368 112 1324 100 q 1442 135 1411 124 q 1329 71 1393 102 q 1196 18 1264 39 q 1068 -3 1128 -3 q 962 27 1002 -3 q 880 101 923 58 q 682 314 778 205 q 503 543 585 422 q 765 753 634 648 q 1019 973 897 858 l 888 973 q 921 997 898 980 q 972 1031 945 1013 q 1023 1063 1000 1050 q 1055 1076 1046 1076 l 1351 1076 m 800 1076 q 743 1043 774 1068 q 683 996 712 1018 q 632 973 653 973 l 577 973 l 439 289 q 421 216 430 245 q 395 161 412 187 q 349 101 379 136 l 588 101 q 548 81 570 97 q 503 46 526 65 q 458 14 479 28 q 421 0 437 0 l 168 0 q 226 74 203 30 q 264 168 250 119 q 288 260 279 217 l 432 973 l 291 973 q 325 997 301 980 q 376 1031 348 1013 q 427 1063 404 1050 q 458 1076 450 1076 l 800 1076 z "},"L":{"ha":930,"x_min":146,"x_max":949,"o":"m 949 142 q 874 77 918 110 q 780 22 829 44 q 684 0 730 0 l 146 0 q 220 78 195 38 q 257 179 245 118 l 417 973 l 276 973 q 310 997 286 980 q 361 1031 333 1013 q 412 1063 389 1050 q 444 1076 435 1076 l 785 1076 q 728 1043 760 1068 q 668 996 697 1018 q 617 973 638 973 l 562 973 l 451 418 q 432 323 441 371 q 412 229 423 276 q 379 157 404 193 q 323 101 355 122 l 804 101 q 880 111 841 101 q 949 142 918 121 z "},"M":{"ha":1609,"x_min":135,"x_max":1599,"o":"m 1379 101 l 1599 101 q 1546 67 1578 92 q 1482 21 1514 43 q 1434 0 1451 0 l 1212 0 q 1257 74 1242 35 q 1280 157 1271 113 q 1339 498 1315 327 q 1389 841 1363 670 l 1050 361 q 986 266 1009 304 q 944 201 962 228 q 904 151 926 174 q 843 101 881 127 q 743 37 806 75 q 685 411 736 222 q 563 771 633 600 l 458 420 q 422 311 444 373 q 373 192 401 250 q 308 101 344 134 l 547 101 q 513 78 536 94 q 463 44 490 62 q 413 13 435 26 q 381 0 390 0 l 135 0 q 203 96 168 28 q 272 258 237 165 q 338 455 306 351 q 398 659 370 559 q 447 842 426 760 q 482 973 469 924 l 294 973 q 327 997 304 981 q 377 1032 350 1014 q 427 1063 404 1050 q 460 1076 450 1076 l 648 1076 l 796 592 q 849 415 823 504 q 890 235 876 327 q 1082 535 987 385 q 1282 829 1177 686 q 1344 916 1314 871 q 1413 996 1375 960 q 1491 1052 1447 1030 q 1576 1097 1535 1074 l 1452 274 q 1426 183 1445 229 q 1379 101 1407 137 z "},"N":{"ha":1430,"x_min":209,"x_max":1580,"o":"m 1580 1076 q 1525 1043 1550 1063 q 1475 1003 1500 1023 q 1418 975 1449 983 q 1324 559 1377 762 q 1195 155 1272 357 q 1180 115 1187 135 q 1160 77 1172 94 q 1124 40 1148 59 q 1073 4 1099 21 q 1027 -26 1046 -14 q 1015 58 1027 23 q 979 134 1003 92 q 905 264 941 199 q 834 395 870 330 q 699 633 768 515 q 553 863 630 751 l 467 435 q 432 266 450 352 q 379 101 413 179 l 621 101 q 587 79 610 95 q 535 44 563 62 q 484 13 507 26 q 454 0 461 0 l 209 0 q 307 167 277 76 q 356 355 336 258 q 414 663 387 509 q 465 973 442 818 l 294 973 q 327 997 304 980 q 378 1031 351 1013 q 429 1063 406 1050 q 460 1076 452 1076 l 742 1076 q 703 1053 721 1066 q 667 1025 686 1039 q 922 644 804 841 q 1147 245 1039 447 q 1200 419 1174 332 q 1245 596 1227 507 q 1279 784 1264 690 q 1307 973 1295 878 l 1133 973 q 1166 997 1143 980 q 1217 1031 1190 1013 q 1267 1063 1244 1050 q 1299 1076 1290 1076 l 1580 1076 z "},"O":{"ha":1088,"x_min":151,"x_max":1143,"o":"m 465 -61 q 288 -16 358 -61 q 184 109 218 30 q 151 289 151 188 q 155 366 151 328 q 167 442 159 404 q 262 701 194 576 q 364 848 304 775 q 498 979 424 920 q 658 1073 573 1038 q 833 1107 743 1107 q 1004 1056 935 1107 q 1108 923 1073 1005 q 1143 747 1143 840 q 1140 687 1143 717 q 1131 629 1137 658 q 1088 487 1117 557 q 1021 355 1059 418 q 921 215 981 288 q 787 80 861 142 q 631 -22 713 17 q 465 -61 549 -61 m 697 1004 q 547 962 611 1004 q 439 853 484 921 q 368 703 395 785 q 328 540 340 622 q 315 391 315 458 q 341 218 315 298 q 429 87 368 137 q 595 38 490 38 q 736 81 674 38 q 842 192 798 124 q 915 336 887 260 q 957 477 943 412 q 971 566 966 521 q 976 655 976 610 q 949 825 976 745 q 861 954 922 905 q 697 1004 800 1004 z "},"P":{"ha":1063,"x_min":178,"x_max":1150,"o":"m 483 395 q 459 283 471 336 q 421 186 447 231 q 345 101 395 140 l 581 101 q 524 68 553 93 q 465 22 494 43 q 414 0 437 0 l 178 0 q 241 58 218 31 q 276 119 264 85 q 298 201 289 152 l 455 973 l 282 973 q 315 997 292 980 q 366 1031 338 1013 q 417 1063 394 1050 q 449 1076 440 1076 l 938 1076 q 1091 1033 1032 1076 q 1150 889 1150 990 q 1107 709 1150 791 q 995 562 1064 627 q 846 450 926 496 q 734 409 798 420 q 605 396 671 398 q 483 395 538 395 m 511 531 q 588 513 542 522 q 681 500 634 505 q 759 496 727 496 q 881 532 831 496 q 956 628 930 569 q 981 754 981 687 q 943 872 981 829 q 846 938 905 916 q 722 966 787 960 q 600 973 656 973 l 511 531 z "},"Q":{"ha":1031,"x_min":110,"x_max":1434,"o":"m 425 -61 q 248 -16 317 -61 q 144 109 178 30 q 110 289 110 188 q 114 366 110 328 q 126 442 119 404 q 222 701 153 576 q 323 848 263 775 q 458 979 383 920 q 617 1073 532 1038 q 793 1107 702 1107 q 963 1056 895 1107 q 1067 923 1032 1005 q 1102 747 1102 840 q 1099 687 1102 717 q 1090 629 1096 658 q 1047 487 1076 557 q 981 355 1018 418 q 901 240 948 300 q 798 125 854 180 q 936 15 864 71 q 1088 -80 1008 -41 q 1259 -118 1168 -118 q 1348 -104 1299 -118 q 1434 -77 1398 -90 q 1332 -147 1390 -114 q 1211 -200 1274 -180 q 1089 -220 1148 -220 q 931 -184 1008 -220 q 782 -95 853 -148 q 648 9 710 -41 q 538 -42 594 -23 q 425 -61 481 -61 m 656 1004 q 507 962 570 1004 q 398 853 443 921 q 327 703 354 785 q 287 540 300 622 q 275 391 275 458 q 301 218 275 298 q 388 87 327 137 q 554 38 449 38 q 695 81 633 38 q 802 192 757 124 q 874 336 846 260 q 916 477 903 412 q 930 566 925 521 q 935 655 935 610 q 908 825 935 745 q 820 954 881 905 q 656 1004 759 1004 z "},"R":{"ha":1218,"x_min":151,"x_max":1270,"o":"m 445 441 q 421 320 433 380 q 388 205 410 260 q 323 101 366 149 l 562 101 q 508 68 538 92 q 448 22 477 43 q 397 0 418 0 l 151 0 q 214 81 192 37 q 246 179 235 125 l 406 973 l 245 973 q 278 997 255 980 q 329 1031 302 1013 q 379 1063 357 1050 q 411 1076 402 1076 l 825 1076 q 918 1071 869 1076 q 1010 1050 967 1066 q 1079 1000 1053 1034 q 1106 907 1106 966 q 1064 753 1106 823 q 956 629 1021 683 q 822 537 890 575 q 773 512 797 524 q 863 449 817 496 q 955 343 909 403 q 1044 229 1000 284 q 1125 136 1087 173 q 1196 100 1164 100 q 1234 107 1215 100 q 1270 124 1253 114 q 1158 35 1226 73 q 1021 -3 1090 -3 q 979 15 994 -3 q 950 54 964 34 l 774 304 q 726 367 748 341 q 676 409 705 393 q 602 432 648 425 q 540 438 571 436 q 477 441 509 439 l 478 441 q 445 441 462 441 m 551 973 l 465 545 l 590 545 q 738 565 664 545 q 865 633 811 586 q 937 762 920 681 q 941 805 941 783 q 915 892 941 859 q 846 943 888 925 q 757 967 804 960 q 669 973 710 973 l 551 973 z "},"S":{"ha":806,"x_min":40,"x_max":931,"o":"m 931 1046 q 905 1011 931 1034 q 842 966 879 989 q 773 925 806 943 q 728 901 741 907 q 751 921 739 907 q 763 947 763 934 q 743 969 763 960 q 694 983 722 978 q 641 990 666 988 q 606 993 615 993 q 492 975 543 993 q 411 916 441 957 q 381 805 381 875 q 411 709 381 745 q 487 651 440 673 q 585 611 533 629 q 683 571 637 593 q 759 511 730 548 q 789 413 789 474 q 753 275 789 340 q 659 157 718 210 q 528 64 600 103 q 381 3 456 24 q 243 -18 307 -18 q 190 -13 223 -18 q 122 3 157 -8 q 64 33 87 15 q 40 76 40 50 q 64 124 40 100 q 123 172 88 149 q 192 212 158 194 q 244 239 225 229 q 220 211 231 227 q 210 176 210 195 q 231 131 210 149 q 285 103 253 113 q 349 90 317 94 q 400 85 380 85 q 563 142 498 85 q 628 301 628 199 q 598 400 628 361 q 521 464 568 438 q 421 509 474 489 q 322 553 369 530 q 245 610 275 576 q 216 699 216 645 q 220 739 216 720 q 274 845 231 793 q 378 942 317 897 q 509 1021 439 987 q 645 1076 578 1056 q 763 1095 711 1095 q 801 1093 774 1095 q 858 1085 828 1090 q 910 1070 888 1079 q 931 1046 931 1061 z "},"T":{"ha":993,"x_min":229,"x_max":1239,"o":"m 1239 1076 q 1203 1055 1224 1071 q 1168 1029 1182 1040 q 1140 1008 1158 1021 q 1104 984 1122 994 q 1072 973 1085 973 l 766 973 l 627 289 q 609 222 621 259 q 576 151 596 184 q 530 101 557 118 l 777 101 q 739 82 761 98 q 693 47 717 66 q 647 14 669 28 q 610 0 625 0 l 349 0 q 425 77 402 39 q 460 179 448 115 l 621 973 l 229 973 q 263 997 239 980 q 314 1031 286 1013 q 364 1063 341 1050 q 396 1076 387 1076 l 1239 1076 z "},"U":{"ha":1356,"x_min":229,"x_max":1518,"o":"m 1518 1076 q 1462 1042 1493 1066 q 1402 996 1432 1017 q 1351 975 1373 975 l 1295 975 l 1158 291 q 1123 189 1147 241 q 1060 102 1098 136 l 1306 102 q 1251 68 1282 94 q 1191 22 1220 43 q 1141 0 1161 0 l 895 0 q 952 74 929 37 q 986 161 976 110 q 835 74 914 115 q 672 6 756 33 q 500 -20 588 -20 q 302 34 376 -20 q 229 220 229 87 q 233 287 229 253 q 244 353 237 320 l 368 975 l 243 975 q 276 998 253 981 q 327 1032 300 1014 q 377 1063 354 1050 q 409 1076 400 1076 l 721 1076 q 666 1042 696 1066 q 605 996 635 1017 q 553 975 575 975 l 514 975 q 455 686 486 830 q 397 396 424 541 q 391 357 393 376 q 389 318 389 338 q 427 181 389 233 q 530 106 466 130 q 671 83 594 83 q 780 98 721 83 q 895 137 838 113 q 991 188 951 161 l 1150 975 l 1011 975 q 1043 998 1020 981 q 1095 1032 1067 1014 q 1145 1063 1122 1050 q 1177 1076 1168 1076 l 1518 1076 z "},"V":{"ha":1238,"x_min":147,"x_max":1382,"o":"m 519 -44 q 485 220 500 87 q 450 485 471 353 q 393 745 430 616 q 373 812 386 772 q 341 892 360 852 q 295 958 321 931 q 232 984 268 984 q 189 973 210 984 q 147 955 168 962 q 219 1009 176 978 q 309 1064 262 1040 q 392 1088 355 1088 q 461 1044 429 1088 q 519 927 492 1001 q 569 764 547 854 q 609 578 591 673 q 641 396 627 484 q 665 243 655 309 q 681 145 675 177 q 764 243 713 185 q 876 369 815 300 q 996 510 936 437 q 1106 654 1056 583 q 1186 788 1156 726 q 1216 899 1216 851 q 1197 960 1216 936 q 1139 984 1179 984 q 1110 981 1124 984 q 1083 973 1096 978 q 1155 1016 1124 989 q 1218 1062 1185 1042 q 1300 1083 1251 1083 q 1382 1003 1382 1083 q 1348 882 1382 951 q 1256 733 1313 812 q 1132 572 1200 654 q 996 414 1064 490 q 869 272 927 337 q 777 163 812 208 q 724 97 745 122 q 676 52 703 72 q 602 7 650 33 q 559 -16 580 -4 q 519 -44 538 -27 z "},"W":{"ha":1609,"x_min":123,"x_max":1746,"o":"m 1026 -37 q 1006 329 1016 146 q 967 692 997 511 q 842 484 907 586 q 709 281 776 382 q 633 175 675 232 q 568 64 591 117 q 495 11 534 35 q 418 -37 457 -14 q 411 85 410 24 q 412 208 412 146 q 409 311 412 241 q 400 469 407 381 q 380 647 393 557 q 344 813 366 737 q 288 937 321 890 q 208 984 255 984 q 164 977 186 984 q 123 960 142 970 q 194 1014 151 984 q 283 1066 237 1044 q 368 1088 330 1088 q 402 1081 389 1088 q 430 1060 416 1074 q 479 969 458 1033 q 514 820 500 905 q 537 639 528 734 q 552 453 547 544 q 560 287 557 361 q 563 170 562 212 q 638 285 594 218 q 729 431 682 353 q 817 588 777 509 q 884 739 858 667 q 909 867 909 811 q 902 923 909 896 q 875 973 894 951 q 949 1024 913 997 q 1022 1076 985 1050 q 1067 986 1046 1051 q 1104 832 1088 921 q 1134 644 1121 743 q 1156 450 1147 545 q 1171 280 1166 355 q 1178 163 1177 204 q 1245 255 1204 199 q 1332 379 1285 311 q 1424 520 1379 448 q 1508 663 1470 593 q 1569 793 1546 733 q 1592 893 1592 852 q 1575 960 1592 929 q 1516 990 1558 990 q 1488 987 1502 990 q 1460 978 1474 983 q 1525 1021 1493 994 q 1590 1068 1556 1047 q 1662 1089 1624 1089 q 1724 1063 1703 1089 q 1746 998 1746 1037 q 1742 967 1746 981 q 1706 873 1735 931 q 1635 746 1677 816 q 1546 601 1594 675 q 1451 454 1498 526 q 1364 324 1404 383 q 1301 227 1324 265 q 1250 142 1274 184 q 1190 64 1226 99 q 1112 10 1160 37 q 1026 -37 1063 -17 z "},"X":{"ha":1065,"x_min":-16,"x_max":1268,"o":"m -16 0 q 253 262 119 132 q 521 525 387 393 l 392 865 q 372 915 384 886 q 342 964 361 943 q 295 985 323 985 q 252 976 273 985 q 212 956 230 967 q 281 1011 238 979 q 370 1066 324 1042 q 452 1089 416 1089 q 505 1059 489 1089 q 533 1000 522 1029 q 599 841 566 921 q 666 682 631 761 q 701 722 684 703 q 819 851 759 787 q 943 975 878 916 l 761 975 q 815 1008 785 984 q 877 1054 846 1033 q 927 1076 907 1076 l 1268 1076 q 1215 1042 1246 1067 q 1154 996 1183 1017 q 1106 975 1124 975 l 1015 975 q 893 852 954 914 q 774 728 833 790 q 730 681 752 705 q 686 634 708 657 q 690 626 688 630 q 715 562 699 606 q 754 461 732 518 q 800 345 777 404 q 847 233 824 286 q 889 145 870 180 q 918 102 907 110 q 942 90 930 96 q 968 84 955 84 q 1019 98 987 84 q 1068 121 1050 113 q 995 62 1039 94 q 903 7 951 31 q 814 -16 854 -16 q 754 7 774 -16 q 715 61 733 30 q 617 269 657 164 q 536 483 577 374 q 346 293 441 388 q 156 102 251 197 l 425 102 q 388 79 412 96 q 339 45 365 63 q 292 13 314 26 q 260 0 271 0 l -16 0 z "},"Y":{"ha":1137,"x_min":198,"x_max":1286,"o":"m 783 465 q 761 337 773 403 q 726 211 749 272 q 659 101 703 150 l 897 101 q 842 68 872 93 q 782 22 811 43 q 732 0 753 0 l 472 0 q 545 86 517 41 q 585 191 572 130 l 623 381 q 625 408 625 393 q 614 492 625 446 q 591 574 603 537 q 560 655 581 604 q 510 765 539 706 q 445 876 480 823 q 372 963 410 929 q 297 996 334 996 q 245 985 272 996 q 198 960 218 973 q 272 1020 229 990 q 363 1069 315 1050 q 456 1089 412 1089 q 535 1057 496 1089 q 608 971 573 1025 q 673 854 643 918 q 727 726 703 790 q 765 608 750 662 q 785 520 781 553 q 855 577 813 542 q 943 654 897 612 q 1028 743 988 697 q 1094 832 1068 788 q 1119 913 1119 876 q 1097 970 1119 949 q 1039 991 1075 991 q 998 987 1019 991 q 1049 1013 1027 996 q 1092 1049 1071 1031 q 1139 1081 1114 1068 q 1202 1094 1165 1094 q 1261 1075 1236 1094 q 1286 1019 1286 1055 q 1257 935 1286 983 q 1181 833 1228 887 q 1077 725 1133 779 q 963 620 1020 670 q 859 530 907 570 q 783 465 812 490 z "},"Z":{"ha":929,"x_min":9,"x_max":1070,"o":"m 1070 1074 q 971 982 1016 1033 q 884 878 926 930 l 565 491 q 406 298 486 395 q 227 124 326 201 q 336 137 281 130 q 446 143 391 143 q 638 137 542 143 q 829 132 734 132 q 904 145 860 132 q 978 170 948 159 q 889 95 943 135 q 774 28 834 56 q 664 0 714 0 l 9 0 q 168 137 90 59 q 318 302 245 215 q 460 478 391 390 q 592 644 528 566 q 718 797 654 721 q 858 935 781 872 q 792 931 825 933 q 726 928 759 928 q 554 933 640 928 q 382 941 468 937 l 373 941 q 305 931 338 941 q 241 906 271 921 q 323 991 282 951 q 415 1056 365 1031 q 530 1080 465 1080 q 734 1074 632 1080 q 937 1068 836 1068 q 1004 1070 970 1068 q 1070 1074 1037 1073 z "},"[":{"ha":490,"x_min":12,"x_max":787,"o":"m 787 1270 q 733 1239 764 1264 q 674 1192 703 1215 q 623 1169 644 1169 l 500 1169 l 264 -11 q 234 -79 256 -47 q 182 -132 212 -111 l 492 -132 q 458 -155 482 -138 q 407 -189 435 -171 q 357 -220 380 -207 q 325 -233 334 -233 l 12 -233 q 80 -142 59 -195 q 112 -34 100 -90 l 355 1169 q 379 1192 357 1176 q 431 1226 401 1208 q 486 1257 460 1244 q 519 1270 511 1270 l 787 1270 z "},"\\":{"ha":705,"x_min":281,"x_max":694,"o":"m 694 101 q 612 48 652 75 q 528 0 572 21 q 372 478 433 233 q 281 973 311 723 l 446 1076 q 540 581 476 825 q 694 101 604 336 z "},"]":{"ha":490,"x_min":-72,"x_max":705,"o":"m 705 1270 q 641 1181 664 1226 q 605 1077 617 1135 l 363 -132 q 340 -155 362 -138 q 287 -189 317 -171 q 231 -220 256 -207 q 196 -233 205 -233 l -72 -233 q -17 -202 -47 -227 q 43 -155 13 -178 q 96 -132 73 -132 l 216 -132 l 456 1048 q 487 1112 461 1076 q 531 1169 512 1147 l 227 1169 q 259 1192 236 1176 q 310 1226 283 1208 q 359 1257 337 1244 q 391 1270 382 1270 l 705 1270 z "},"^":{"ha":878,"x_min":162,"x_max":677,"o":"m 677 649 q 655 630 677 644 q 603 602 633 617 q 547 572 573 586 q 512 551 521 558 l 452 838 q 390 746 421 792 q 326 653 358 699 q 276 613 309 628 q 211 584 243 597 q 162 551 178 570 l 430 950 q 456 971 435 958 q 506 1001 478 985 q 558 1031 534 1017 q 594 1051 583 1045 q 624 918 609 985 q 652 783 638 850 q 661 742 655 768 q 672 689 667 715 q 677 649 677 663 z "},"_":{"ha":694,"x_min":-52,"x_max":652,"o":"m 652 -150 q 613 -170 635 -154 q 568 -204 591 -186 q 524 -237 545 -223 q 487 -251 503 -251 l -52 -251 q 2 -221 -28 -245 q 61 -173 32 -196 q 114 -150 91 -150 l 652 -150 z "},"`":{"ha":812,"x_min":603,"x_max":944,"o":"m 944 1039 q 894 1004 927 1027 q 828 961 861 981 q 779 937 795 941 q 673 1041 715 979 q 603 1173 631 1104 q 631 1195 608 1179 q 685 1230 655 1211 q 738 1261 714 1248 q 768 1274 762 1274 q 772 1270 772 1274 q 772 1263 772 1266 q 840 1137 795 1198 q 944 1039 884 1075 z "},"a":{"ha":928,"x_min":139,"x_max":875,"o":"m 757 156 q 776 105 757 120 q 830 90 795 90 q 875 95 853 90 q 811 47 846 73 q 740 5 777 22 q 664 -12 703 -12 q 611 -1 631 -12 q 590 47 590 11 q 592 73 590 60 q 596 98 593 85 q 519 47 559 74 q 437 3 479 21 q 348 -16 394 -16 q 192 41 245 -16 q 139 199 139 98 q 183 398 139 302 q 303 572 227 495 q 474 695 378 650 q 673 741 570 741 q 769 726 723 741 q 863 698 816 711 l 763 207 q 759 182 760 195 q 757 156 757 169 m 684 532 q 524 641 640 641 q 421 602 464 641 q 352 504 379 563 q 313 381 326 444 q 300 272 300 319 q 345 133 300 181 q 481 85 389 85 q 529 97 500 85 q 582 125 557 108 q 610 162 606 142 l 684 532 z "},"b":{"ha":854,"x_min":164,"x_max":895,"o":"m 370 -24 q 223 31 282 -24 q 164 176 164 87 q 170 227 164 199 q 244 603 205 415 q 321 979 284 791 q 327 1009 324 994 q 329 1040 329 1025 q 318 1082 329 1066 q 278 1099 307 1099 q 245 1096 262 1099 q 214 1088 229 1093 q 367 1188 289 1139 q 527 1274 444 1236 l 391 603 q 482 664 433 634 q 584 714 531 694 q 691 733 637 733 q 843 671 791 733 q 895 512 895 608 q 865 362 895 438 q 782 217 835 286 q 662 93 730 148 q 520 7 595 39 q 370 -24 445 -24 m 538 633 q 455 607 489 633 q 399 540 421 581 q 363 453 376 499 q 342 369 349 408 q 327 295 335 337 q 318 222 318 253 q 371 109 318 147 q 493 71 425 71 q 604 101 558 71 q 678 181 650 132 q 719 289 706 231 q 732 402 732 347 q 712 518 732 465 q 651 602 693 570 q 538 633 608 633 z "},"c":{"ha":759,"x_min":142,"x_max":872,"o":"m 689 578 q 700 589 692 581 q 708 602 708 597 q 689 623 708 613 q 642 639 669 632 q 590 649 614 646 q 556 653 566 653 q 446 623 492 653 q 369 543 399 592 q 325 435 339 493 q 310 322 310 377 q 375 148 310 206 q 554 90 441 90 q 647 102 601 90 q 734 135 692 114 q 629 61 688 94 q 504 7 569 27 q 377 -12 439 -12 q 207 48 273 -12 q 142 215 142 109 q 177 371 142 294 q 273 517 213 448 q 409 639 333 586 q 565 722 484 692 q 722 753 646 753 q 756 750 732 753 q 807 741 781 747 q 853 726 834 735 q 872 703 872 716 q 849 672 872 692 q 792 632 825 653 q 730 596 760 612 q 689 578 701 581 z "},"d":{"ha":928,"x_min":134,"x_max":1010,"o":"m 789 155 q 808 104 789 119 q 862 90 827 90 q 907 95 885 90 q 842 48 876 73 q 771 5 808 23 q 694 -12 734 -12 q 642 0 662 -12 q 621 47 621 12 q 623 73 621 60 q 628 98 625 85 q 545 47 590 74 q 451 3 499 21 q 357 -16 403 -16 q 193 43 252 -16 q 134 207 134 102 q 167 369 134 290 q 257 515 200 448 q 388 633 315 583 q 543 712 461 684 q 705 741 625 741 q 757 736 734 741 l 810 1005 q 814 1041 814 1025 q 803 1083 814 1067 q 764 1099 791 1099 q 730 1095 747 1099 q 697 1088 713 1092 q 850 1187 772 1138 q 1010 1274 927 1237 l 795 207 q 790 181 792 194 q 789 155 789 168 m 716 532 q 641 614 692 588 q 532 641 591 641 q 424 610 468 641 q 352 530 379 579 q 312 422 324 480 q 299 312 299 365 q 352 146 299 207 q 513 85 405 85 q 561 97 532 85 q 614 125 589 108 q 642 162 638 143 l 716 532 z "},"e":{"ha":752,"x_min":108,"x_max":834,"o":"m 269 279 q 310 167 273 208 q 403 108 347 126 q 522 90 460 90 q 634 103 578 90 q 743 138 691 117 q 628 60 694 94 q 492 8 563 26 q 355 -11 421 -11 q 231 20 287 -11 q 141 105 175 51 q 108 228 108 159 q 113 274 108 252 q 167 404 126 341 q 266 522 208 467 q 388 619 323 577 q 512 686 452 661 q 617 721 563 708 q 728 733 672 733 q 801 710 768 733 q 834 642 834 686 q 802 565 834 604 q 715 491 769 527 q 598 423 662 455 q 471 363 534 391 q 354 314 407 335 q 269 279 300 292 m 537 627 q 388 583 446 627 q 301 467 330 538 q 269 315 272 396 q 339 337 292 320 q 443 378 387 353 q 551 432 500 403 q 636 490 603 460 q 670 545 670 519 q 646 591 670 572 q 591 618 623 610 q 537 627 559 627 z "},"f":{"ha":568,"x_min":-183,"x_max":1002,"o":"m 1002 1221 q 978 1190 1002 1210 q 921 1150 954 1171 q 857 1115 887 1130 q 815 1097 827 1100 q 828 1107 819 1100 q 836 1120 836 1114 q 818 1141 836 1131 q 772 1160 799 1152 q 722 1173 746 1168 q 689 1178 699 1178 q 649 1176 669 1178 q 609 1169 629 1175 q 529 1040 556 1112 q 487 892 502 968 q 458 742 473 815 l 739 742 q 699 721 719 735 q 663 693 679 706 q 636 672 652 685 q 601 650 619 660 q 570 640 583 640 l 437 640 q 375 335 406 488 q 313 31 344 182 q 271 -94 300 -28 q 199 -222 242 -159 q 102 -337 156 -286 q -14 -419 48 -388 q -141 -450 -75 -450 q -169 -445 -154 -450 q -183 -423 -183 -439 q -160 -381 -183 -402 q -104 -342 -137 -361 q -41 -307 -71 -323 q 5 -280 -10 -291 q -12 -298 -3 -287 q -20 -321 -20 -309 q -8 -342 -20 -336 q 17 -349 4 -349 l 22 -349 q 116 -175 85 -269 q 166 17 146 -81 l 290 640 l 197 640 l 307 715 q 339 859 323 798 q 376 966 355 920 q 430 1050 397 1012 q 514 1126 463 1088 q 640 1208 565 1164 q 744 1258 688 1237 q 856 1279 799 1279 q 890 1275 867 1279 q 940 1263 914 1271 q 984 1244 966 1255 q 1002 1221 1002 1234 z "},"g":{"ha":853,"x_min":-24,"x_max":967,"o":"m 967 742 q 928 699 959 720 q 863 662 898 677 q 806 640 828 646 q 818 571 818 609 q 787 441 818 497 q 707 341 756 385 q 604 265 659 298 q 500 204 549 231 q 420 152 451 176 q 389 101 389 127 q 417 54 389 75 q 487 14 444 33 q 579 -25 530 -5 q 670 -68 627 -45 q 741 -120 713 -91 q 768 -188 768 -149 q 738 -263 768 -228 q 656 -329 707 -299 q 544 -381 605 -358 q 421 -421 483 -405 q 308 -446 360 -437 q 224 -454 256 -454 q 157 -450 198 -454 q 74 -434 115 -446 q 4 -400 33 -422 q -24 -342 -24 -378 q 13 -257 -24 -296 q 102 -184 49 -217 q 209 -125 155 -151 q 296 -81 262 -99 q 249 -52 273 -71 q 224 -5 224 -33 q 245 42 224 18 q 297 89 267 66 q 358 130 328 112 q 406 159 388 149 q 374 152 391 155 q 342 149 358 149 q 223 202 264 149 q 182 328 182 255 q 214 455 182 395 q 299 567 245 516 q 418 654 353 617 q 552 711 484 690 q 681 731 621 731 q 789 729 735 731 q 898 727 844 727 q 933 731 916 727 q 967 742 951 735 m 502 629 q 406 602 440 629 q 357 531 371 576 q 342 431 342 486 q 383 300 342 351 q 509 250 423 250 q 574 273 547 250 q 618 332 601 296 q 644 407 635 368 q 652 477 652 446 q 614 589 652 549 q 502 629 575 629 m 325 -94 q 275 -116 305 -102 q 215 -151 245 -131 q 165 -193 185 -170 q 145 -241 145 -216 q 169 -279 145 -262 q 228 -310 192 -296 q 303 -333 264 -323 q 376 -347 343 -342 q 425 -352 409 -352 q 477 -349 447 -352 q 537 -338 508 -347 q 587 -311 567 -329 q 607 -264 607 -294 q 573 -202 607 -230 q 492 -153 540 -174 q 398 -117 444 -132 q 325 -94 351 -102 z "},"h":{"ha":922,"x_min":149,"x_max":888,"o":"m 888 101 q 786 22 844 56 q 663 -12 728 -12 q 595 55 595 -12 q 601 103 595 79 q 611 151 606 127 q 639 291 625 221 q 668 430 654 360 q 675 474 672 452 q 679 517 679 496 q 638 602 679 583 q 541 621 598 621 q 439 585 476 621 q 382 494 401 548 q 351 389 362 440 q 330 275 340 332 q 308 162 319 218 q 304 143 306 153 q 302 124 302 134 q 336 89 302 89 q 360 93 348 89 q 385 101 373 96 q 311 23 358 58 q 210 -12 263 -12 q 162 12 174 -12 q 149 68 149 37 q 152 103 149 85 q 158 139 155 121 l 329 993 q 334 1023 332 1008 q 336 1053 336 1038 q 327 1094 336 1077 q 289 1111 317 1111 q 255 1108 272 1111 q 221 1100 238 1105 q 376 1196 297 1150 q 534 1286 455 1242 l 396 603 q 487 660 437 632 q 591 707 537 688 q 696 725 644 725 q 797 694 751 725 q 843 602 843 663 q 840 574 843 588 l 766 195 q 761 166 764 180 q 759 136 759 151 q 775 94 759 106 q 820 83 791 83 q 855 89 838 83 q 888 101 872 95 z "},"i":{"ha":523,"x_min":191,"x_max":603,"o":"m 603 1268 q 595 1217 600 1248 q 584 1156 591 1187 q 568 1106 578 1126 q 544 1088 566 1102 q 493 1056 522 1074 q 438 1024 463 1038 q 404 1004 412 1009 l 436 1166 l 603 1268 m 387 151 q 412 99 387 111 q 472 87 437 87 q 520 92 497 87 q 455 45 490 70 q 384 4 421 21 q 308 -14 347 -14 q 246 1 269 -14 q 222 58 222 16 q 224 81 222 70 q 228 104 225 92 l 300 459 q 305 488 302 473 q 307 516 307 502 q 296 557 307 541 q 257 574 285 574 q 223 571 240 574 q 191 564 207 568 q 345 663 268 613 q 505 751 422 713 l 391 185 q 387 151 387 166 z "},"j":{"ha":460,"x_min":-153,"x_max":585,"o":"m 585 1268 q 576 1217 581 1247 q 566 1157 572 1187 q 550 1106 559 1126 q 525 1084 547 1099 q 474 1053 503 1069 q 420 1022 446 1036 q 386 1004 395 1008 q 406 1084 399 1043 q 418 1166 412 1125 l 585 1268 m 487 751 q 429 463 458 607 q 370 174 399 319 q 352 90 361 132 q 334 6 343 48 q 291 -111 321 -49 q 218 -233 261 -173 q 122 -342 175 -293 q 11 -420 70 -391 q -111 -450 -49 -450 q -138 -445 -123 -450 q -153 -423 -153 -439 q -130 -381 -153 -402 q -74 -342 -106 -361 q -10 -307 -41 -323 q 36 -280 20 -291 q 19 -297 27 -287 q 11 -320 11 -308 q 22 -342 11 -335 q 47 -349 34 -349 l 52 -349 q 145 -175 116 -269 q 193 17 174 -81 q 238 234 215 125 q 281 452 260 343 q 287 483 285 467 q 290 514 290 498 q 280 556 290 538 q 242 574 270 574 q 208 571 225 574 q 174 564 191 568 q 329 661 250 615 q 487 751 408 707 z "},"k":{"ha":877,"x_min":147,"x_max":864,"o":"m 864 124 q 795 62 836 94 q 708 9 754 31 q 620 -12 663 -12 q 567 10 588 -12 q 530 55 547 32 q 438 191 484 122 q 345 326 393 259 q 341 308 343 317 q 338 292 340 300 q 320 217 331 256 q 310 141 310 179 q 319 102 310 119 q 353 85 328 85 q 388 94 368 85 q 329 51 363 77 q 259 5 295 25 q 193 -16 222 -16 q 157 1 166 -16 q 147 42 147 18 q 149 67 147 54 q 153 92 151 79 l 339 1021 q 342 1053 342 1038 q 331 1094 342 1077 q 292 1111 320 1111 q 259 1107 275 1111 q 226 1100 242 1104 q 379 1200 302 1150 q 541 1286 456 1249 l 400 602 q 488 655 435 627 q 595 704 540 684 q 693 724 650 724 q 762 702 732 724 q 793 638 793 680 q 764 562 793 598 q 692 494 735 525 q 606 438 650 463 q 531 399 562 414 q 563 350 541 385 q 613 272 585 315 q 670 188 642 229 q 723 121 699 148 q 761 95 747 95 q 814 103 787 95 q 864 124 841 112 m 524 621 q 453 594 482 621 q 403 525 423 567 q 370 435 383 482 q 349 346 357 387 l 349 346 q 426 373 379 355 q 518 416 472 391 q 596 474 565 442 q 628 545 628 507 q 593 604 628 586 q 524 621 558 621 z "},"l":{"ha":471,"x_min":163,"x_max":544,"o":"m 322 151 q 348 99 322 110 q 410 89 374 89 q 457 94 435 89 q 387 44 422 70 q 313 2 352 19 q 230 -16 274 -16 q 177 11 191 -16 q 163 71 163 37 q 167 115 163 93 q 175 159 170 138 l 336 958 q 341 989 339 973 q 343 1021 343 1006 q 326 1082 343 1061 q 267 1104 308 1104 q 237 1101 252 1104 q 544 1262 386 1194 l 329 202 q 324 177 326 190 q 322 151 322 164 z "},"m":{"ha":1422,"x_min":119,"x_max":1388,"o":"m 1388 101 q 1319 53 1356 79 q 1243 8 1282 26 q 1163 -11 1204 -11 q 1092 60 1092 -11 q 1096 106 1092 83 q 1105 151 1101 129 q 1134 292 1119 222 q 1162 433 1149 362 q 1168 467 1166 450 q 1171 500 1171 484 q 1134 594 1171 566 q 1034 621 1097 621 q 935 592 977 621 q 867 516 893 562 q 831 418 842 469 l 789 205 q 785 181 787 193 q 783 157 783 169 q 852 90 783 90 q 882 93 867 90 q 912 101 897 96 q 844 53 880 79 q 768 8 807 26 q 688 -11 728 -11 q 618 60 618 -11 q 623 106 618 83 q 632 151 627 129 q 661 292 646 222 q 689 433 675 362 q 695 467 692 450 q 697 501 697 484 q 663 593 697 564 q 568 621 629 621 q 467 584 507 621 q 401 493 426 547 q 367 389 377 439 l 321 157 q 319 137 319 146 q 329 101 319 116 q 361 85 338 85 q 380 88 371 85 q 397 94 389 90 q 338 51 374 77 q 264 5 302 25 q 197 -16 226 -16 q 164 -2 176 -16 q 153 32 153 11 q 155 50 153 41 l 253 531 q 256 550 255 541 q 258 568 258 559 q 237 616 258 604 q 184 629 217 629 q 152 625 168 629 q 119 616 135 622 q 181 649 156 630 q 228 687 205 668 q 280 719 251 706 q 356 731 310 731 q 421 668 421 731 q 417 633 421 650 q 410 600 414 616 q 512 653 452 624 q 635 704 572 683 q 746 725 697 725 q 832 697 794 725 q 871 618 871 670 q 869 598 871 608 q 947 637 902 616 q 1040 679 991 659 q 1136 712 1089 699 q 1220 725 1183 725 q 1309 693 1275 725 q 1343 606 1343 662 q 1339 574 1343 590 l 1263 193 q 1259 170 1261 181 q 1257 146 1257 158 q 1276 102 1257 113 q 1326 90 1295 90 q 1357 94 1341 90 q 1388 101 1373 97 z "},"n":{"ha":987,"x_min":171,"x_max":949,"o":"m 949 101 q 881 51 918 77 q 806 7 845 25 q 725 -11 766 -11 q 655 60 655 -11 q 660 106 655 83 q 669 151 664 129 q 697 291 682 221 q 726 430 712 360 q 730 460 728 445 q 732 491 732 475 q 695 590 732 558 q 594 621 659 621 q 518 599 548 621 q 469 541 488 576 q 439 465 450 505 q 420 389 428 425 l 373 150 q 372 136 372 143 q 383 101 372 117 q 415 85 394 85 q 433 88 425 85 q 451 94 442 90 q 390 51 426 77 q 317 5 355 25 q 250 -16 280 -16 q 216 -2 226 -16 q 206 34 206 12 q 208 56 206 45 q 212 77 210 66 q 258 304 233 191 q 305 531 283 417 q 308 549 307 540 q 309 566 309 557 q 290 615 309 601 q 237 629 270 629 q 203 625 220 629 q 171 616 186 622 q 232 649 207 629 q 279 687 256 668 q 332 718 302 705 q 408 731 361 731 q 474 666 474 731 q 471 634 474 650 q 464 603 468 618 q 553 660 504 632 q 656 707 603 688 q 760 725 709 725 q 858 694 814 725 q 902 603 902 663 q 899 574 902 589 l 825 205 q 822 181 823 193 q 820 157 820 169 q 889 90 820 90 q 919 93 904 90 q 949 101 934 96 z "},"o":{"ha":809,"x_min":65,"x_max":818,"o":"m 298 -12 q 176 21 229 -12 q 94 110 123 54 q 65 234 65 166 q 97 377 65 305 q 182 514 128 449 q 304 630 237 579 q 446 711 372 682 q 589 741 519 741 q 710 708 659 741 q 790 619 762 675 q 818 496 818 564 q 787 353 818 425 q 702 215 755 281 q 582 99 649 150 q 442 18 515 47 q 298 -12 369 -12 m 420 640 q 334 610 370 640 q 277 535 299 581 q 244 439 254 489 q 234 349 234 389 q 259 219 234 278 q 335 123 284 159 q 463 87 386 87 q 548 118 512 87 q 606 194 583 148 q 638 290 628 240 q 649 380 649 340 q 624 510 649 452 q 547 604 598 569 q 420 640 496 640 z "},"p":{"ha":922,"x_min":85,"x_max":894,"o":"m 237 -311 q 254 -345 237 -336 q 292 -353 271 -353 q 316 -350 304 -353 q 338 -341 328 -346 q 267 -419 313 -384 q 168 -454 220 -454 q 104 -428 123 -454 q 85 -360 85 -401 q 90 -307 85 -336 l 262 536 q 265 556 264 546 q 267 578 267 567 q 249 621 267 610 q 201 632 231 632 q 166 628 184 632 q 133 618 149 624 q 203 668 164 641 q 284 715 242 696 q 367 734 327 734 q 430 671 430 734 q 428 644 430 658 q 423 618 426 631 q 503 668 460 642 q 590 712 545 694 q 682 730 635 730 q 839 672 784 730 q 894 514 894 614 q 862 356 894 433 q 776 213 831 279 q 650 96 721 146 q 500 18 579 46 q 342 -10 421 -10 q 297 -7 319 -10 l 238 -294 q 237 -311 237 -302 m 525 627 q 461 607 492 627 q 412 560 429 587 l 338 197 q 407 116 361 143 q 511 89 453 89 q 615 119 573 89 q 682 197 657 149 q 718 300 707 245 q 729 406 729 355 q 680 567 729 507 q 525 627 631 627 z "},"q":{"ha":862,"x_min":105,"x_max":1001,"o":"m 1001 741 q 881 624 924 686 q 820 468 838 562 l 670 -280 q 668 -302 668 -292 q 678 -339 668 -324 q 712 -353 688 -353 q 737 -350 724 -353 q 760 -341 750 -346 q 684 -421 734 -387 q 580 -454 635 -454 q 539 -439 553 -454 q 520 -400 526 -423 q 515 -356 515 -378 q 522 -292 515 -326 l 600 94 q 525 46 565 71 q 442 4 485 21 q 356 -12 399 -12 q 227 20 284 -12 q 138 109 170 52 q 105 237 105 165 q 138 380 105 309 q 228 514 172 451 q 355 627 285 578 q 500 703 425 675 q 644 731 575 731 q 743 706 698 731 q 814 633 787 681 q 902 697 849 669 q 1001 741 954 726 m 678 464 q 605 582 655 536 q 475 627 554 627 q 380 602 419 627 q 318 536 342 577 q 283 446 294 495 q 272 350 272 397 q 336 161 272 234 q 520 89 401 89 q 564 95 545 89 q 604 115 583 102 l 678 464 z "},"r":{"ha":782,"x_min":147,"x_max":961,"o":"m 961 727 q 884 657 930 688 q 785 610 838 627 q 683 593 732 593 q 627 605 653 593 q 575 629 602 617 q 520 641 549 641 q 469 608 491 641 q 429 526 446 576 q 400 420 412 475 q 380 318 388 365 q 367 248 372 271 q 354 194 361 221 q 347 140 347 168 q 356 102 347 118 q 391 85 366 85 q 427 94 407 85 q 369 44 393 70 q 316 2 345 19 q 241 -16 288 -16 q 199 -1 218 -16 q 181 38 181 14 q 182 50 181 44 q 230 282 205 166 q 277 514 255 398 q 282 542 280 528 q 285 569 285 555 q 266 616 285 604 q 214 629 246 629 q 152 618 184 629 q 147 616 149 617 q 152 618 147 616 q 210 649 187 631 q 255 687 233 668 q 307 719 277 706 q 384 731 336 731 q 448 669 448 731 q 447 646 448 657 q 444 623 446 634 q 531 673 482 645 q 632 723 581 702 q 727 743 683 743 q 784 731 758 743 q 832 708 810 720 q 877 696 855 696 q 921 706 897 696 q 961 727 944 717 z "},"s":{"ha":627,"x_min":-10,"x_max":625,"o":"m 442 580 q 450 586 446 583 q 460 606 460 596 q 439 627 460 620 q 394 636 418 633 q 359 638 369 638 q 291 618 316 638 q 267 553 267 599 q 289 494 267 516 q 347 458 311 472 q 421 433 382 445 q 496 407 461 422 q 554 366 532 391 q 577 299 577 341 q 546 199 577 247 q 464 112 514 152 q 353 43 413 73 q 235 -2 293 14 q 132 -18 176 -18 q 79 -13 113 -18 q 18 7 45 -7 q -10 45 -10 21 q 12 87 -10 67 q 66 123 35 106 q 128 155 98 140 q 173 184 158 170 q 160 166 165 176 q 154 144 154 155 q 173 114 154 125 q 218 96 191 102 q 271 87 245 90 q 311 85 297 85 q 384 112 357 85 q 411 185 411 138 q 389 249 411 224 q 331 290 366 274 q 257 320 296 307 q 183 349 218 333 q 125 387 148 364 q 103 445 103 409 q 134 528 103 486 q 215 608 165 570 q 320 676 264 646 q 430 722 377 705 q 519 739 483 739 q 556 737 533 739 q 601 728 580 735 q 625 704 621 720 q 604 677 620 686 q 574 659 589 667 q 511 625 542 642 q 450 586 479 608 q 442 580 446 582 z "},"t":{"ha":633,"x_min":202,"x_max":708,"o":"m 708 749 q 673 732 694 747 q 627 696 652 716 q 579 662 602 676 q 542 647 557 647 l 449 647 l 369 248 q 363 213 366 231 q 361 178 361 195 q 388 105 361 127 q 464 83 414 83 q 514 91 490 83 q 562 110 539 99 q 449 20 518 54 q 309 -14 380 -14 q 226 21 250 -14 q 202 109 202 56 q 204 146 202 127 q 210 182 206 164 l 303 647 l 205 647 l 320 724 l 339 829 q 398 869 368 850 q 458 904 427 888 q 483 916 471 910 q 506 932 496 922 l 469 749 l 708 749 z "},"u":{"ha":968,"x_min":181,"x_max":968,"o":"m 968 102 q 908 71 932 90 q 862 33 884 52 q 810 1 840 14 q 731 -12 781 -12 q 668 54 668 -12 q 670 81 668 67 q 675 109 672 95 q 525 24 606 64 q 359 -16 443 -16 q 283 7 311 -16 q 244 67 256 31 q 233 146 233 104 q 236 195 233 171 q 244 243 239 220 l 298 513 q 302 536 300 524 q 303 560 303 549 q 236 630 303 630 q 181 618 207 630 q 250 669 213 642 q 327 714 287 696 q 410 733 368 733 q 459 713 445 733 q 473 660 473 692 q 466 597 473 628 q 452 536 458 566 q 427 418 440 477 q 402 300 414 359 q 396 260 399 280 q 393 220 393 240 q 434 117 393 146 q 544 87 474 87 q 617 107 583 87 q 682 147 651 127 l 762 542 q 765 576 765 562 q 756 611 765 597 q 724 626 748 626 q 706 624 715 626 q 689 618 697 621 q 747 662 712 635 q 820 707 783 688 q 887 727 858 727 q 920 713 910 727 q 930 678 930 699 q 928 655 930 667 l 833 180 q 829 150 829 163 q 850 103 829 115 q 903 92 871 92 q 936 95 920 92 q 968 102 952 98 z "},"v":{"ha":979,"x_min":125,"x_max":1001,"o":"m 372 -40 q 345 208 361 84 q 300 453 328 332 q 281 520 293 481 q 248 590 270 559 q 190 620 227 620 q 156 613 174 620 q 125 600 138 607 q 188 656 153 627 q 262 704 222 684 q 343 724 301 724 q 395 685 372 724 q 438 584 419 646 q 471 447 456 521 q 496 302 486 374 q 512 176 506 231 q 522 97 519 121 q 589 169 549 125 q 672 267 629 214 q 751 376 715 321 q 811 484 788 432 q 834 576 834 536 q 825 609 834 596 q 794 621 817 621 q 749 612 772 621 q 818 654 789 628 q 880 701 848 680 q 958 722 911 722 q 991 709 981 722 q 1001 675 1001 696 q 998 646 1001 661 q 933 487 981 567 q 817 329 885 406 q 672 183 749 252 q 516 57 594 114 q 372 -40 439 0 z "},"w":{"ha":1312,"x_min":132,"x_max":1330,"o":"m 819 -32 q 800 168 814 68 q 762 364 787 267 q 692 270 727 317 q 622 176 657 222 q 581 121 602 149 q 536 69 560 92 q 489 36 522 56 q 423 -2 457 16 q 370 -32 389 -21 q 358 53 365 -5 q 341 186 351 112 q 317 338 331 261 q 283 481 302 416 q 237 588 263 547 q 179 629 212 629 q 155 624 167 629 q 132 614 142 620 q 185 660 155 635 q 250 705 216 686 q 316 724 283 724 q 370 687 345 724 q 415 589 395 650 q 451 458 435 529 q 478 320 467 388 q 496 198 490 252 q 504 121 503 145 q 572 216 532 164 q 650 322 612 267 q 715 433 689 377 q 741 543 741 490 q 734 599 741 570 q 710 650 727 628 q 738 668 717 655 q 783 695 758 681 q 828 720 808 709 q 854 730 848 730 q 876 709 867 730 q 889 679 886 688 q 920 564 907 627 q 942 435 933 500 q 958 315 951 370 q 969 223 964 269 q 976 130 975 176 q 1042 218 1005 165 q 1113 329 1078 270 q 1170 446 1147 389 q 1192 549 1192 503 q 1182 601 1192 574 q 1141 627 1173 627 q 1123 624 1132 627 q 1105 616 1114 621 q 1158 655 1128 629 q 1217 705 1187 682 q 1272 727 1247 727 q 1318 702 1306 727 q 1330 648 1330 676 q 1299 520 1330 590 q 1223 380 1269 451 q 1129 245 1177 309 q 1046 138 1082 182 q 1019 102 1033 120 q 989 69 1005 85 q 940 34 972 53 q 874 -2 908 16 q 819 -32 841 -19 z "},"x":{"ha":986,"x_min":22,"x_max":1042,"o":"m 415 753 q 466 709 437 753 q 529 594 495 665 q 600 446 564 524 q 694 541 648 492 q 783 640 740 589 l 675 640 q 708 663 685 647 q 759 698 731 680 q 810 729 787 716 q 842 742 833 742 l 1042 742 q 988 702 1022 726 q 920 659 955 678 q 859 640 884 640 l 859 640 q 742 519 802 578 q 618 405 681 461 q 693 250 656 323 q 763 131 730 177 q 823 84 796 84 q 853 92 837 84 q 881 107 869 100 q 784 20 845 54 q 658 -14 722 -14 q 627 -6 637 -14 q 606 17 617 1 q 537 137 565 73 q 477 262 509 201 q 471 274 473 268 q 457 262 463 267 q 349 177 406 216 q 236 101 293 138 l 363 101 q 306 69 336 94 q 248 22 276 45 q 195 0 219 0 l 22 0 q 77 36 43 12 q 144 81 110 60 q 199 101 178 101 q 229 119 205 101 q 286 164 253 137 q 353 219 319 191 q 413 271 387 248 q 448 301 439 293 q 453 307 450 304 q 392 424 422 366 q 331 542 361 483 q 309 588 320 563 q 279 632 297 614 q 232 650 262 650 q 207 646 220 650 q 183 636 195 642 q 231 665 199 646 q 299 705 262 684 q 367 739 336 725 q 415 753 399 753 z "},"y":{"ha":963,"x_min":73,"x_max":930,"o":"m 194 -454 q 149 -449 178 -454 q 96 -432 120 -444 q 73 -398 73 -420 q 96 -361 73 -381 q 153 -320 119 -340 q 217 -284 186 -300 q 262 -257 248 -267 q 246 -274 254 -263 q 238 -296 238 -286 q 263 -330 238 -317 q 318 -348 288 -342 q 364 -353 349 -353 q 473 -321 427 -353 q 552 -235 519 -288 q 608 -119 585 -182 q 645 5 630 -56 q 669 113 659 66 q 496 26 588 66 q 308 -14 404 -14 q 192 18 238 -14 q 146 124 146 49 q 153 179 146 150 l 206 450 q 215 498 212 473 q 219 547 219 522 q 207 604 219 578 q 157 630 195 630 q 128 627 142 630 q 100 620 114 624 q 170 669 132 643 q 248 714 207 696 q 329 733 288 733 q 379 711 366 733 q 393 657 393 690 q 388 606 393 631 q 377 554 382 580 q 353 441 366 498 q 330 329 340 385 q 321 279 325 304 q 317 229 317 254 q 343 139 317 169 q 414 99 370 109 q 509 89 458 89 q 600 108 554 89 q 678 159 646 127 l 755 532 q 759 553 758 543 q 760 574 760 564 q 752 611 760 595 q 719 627 743 627 q 683 620 703 627 q 742 663 706 637 q 815 708 777 688 q 882 728 853 728 q 915 719 899 728 q 930 689 930 709 q 928 680 930 684 q 883 452 906 566 q 838 225 861 338 q 781 39 820 135 q 684 -144 742 -56 q 552 -302 627 -232 q 387 -413 477 -372 q 194 -454 297 -454 z "},"z":{"ha":845,"x_min":28,"x_max":810,"o":"m 810 741 q 677 634 736 694 q 567 507 618 574 q 466 372 516 439 q 361 242 416 304 q 239 132 307 180 l 585 129 q 739 178 670 128 q 588 51 679 102 q 399 -1 498 -1 q 214 -1 307 -1 q 28 0 121 0 q 140 96 85 38 q 239 208 194 155 q 407 416 322 308 q 591 608 492 524 q 555 607 573 608 q 519 606 537 606 q 393 608 456 606 q 267 614 330 611 l 260 614 q 204 605 230 614 q 153 581 178 596 q 192 622 165 597 q 250 672 218 646 q 311 718 282 699 q 359 741 340 736 q 393 745 376 744 q 427 745 410 745 q 568 742 497 745 q 709 739 639 739 q 760 739 735 739 q 810 741 785 740 z "},"{":{"ha":490,"x_min":64,"x_max":892,"o":"m 892 1273 q 838 1241 868 1266 q 777 1194 807 1217 q 725 1172 747 1172 q 694 1174 709 1172 q 663 1175 679 1175 q 624 1173 644 1175 q 585 1166 604 1171 q 520 1082 542 1120 q 488 1006 498 1044 q 471 925 477 968 q 454 825 465 881 q 413 712 440 758 q 346 632 387 667 q 250 562 305 597 q 326 503 294 538 q 358 414 358 469 q 338 316 358 365 q 299 217 319 268 q 279 109 279 165 q 311 -16 279 39 q 397 -101 342 -70 q 522 -132 452 -132 q 581 -127 552 -132 q 512 -175 548 -150 q 438 -217 477 -199 q 357 -234 399 -234 q 234 -204 290 -234 q 146 -120 178 -174 q 113 2 113 -67 q 133 108 113 58 q 172 208 153 159 q 192 309 192 257 q 154 408 192 371 q 64 470 117 446 q 109 492 89 478 q 150 520 130 506 q 209 564 186 545 q 246 601 232 582 q 269 647 260 620 q 286 719 277 675 q 297 792 293 755 q 309 865 301 829 q 384 1023 328 949 q 518 1153 439 1097 q 685 1242 597 1210 q 857 1274 774 1274 q 875 1274 866 1274 q 892 1273 884 1274 z "},"|":{"ha":334,"x_min":56,"x_max":504,"o":"m 56 -233 l 340 1169 l 420 1223 q 463 1244 440 1236 q 504 1270 486 1253 l 222 -132 q 199 -155 220 -142 q 148 -182 177 -168 q 92 -209 118 -195 q 56 -233 66 -222 z "},"}":{"ha":490,"x_min":-231,"x_max":595,"o":"m 595 570 q 451 476 509 541 q 374 321 393 410 q 363 256 368 289 q 352 191 359 224 q 279 27 333 104 q 148 -109 224 -50 q -19 -201 71 -168 q -196 -234 -108 -234 q -214 -234 -205 -234 q -231 -233 -222 -233 q -177 -201 -207 -226 q -118 -153 -147 -176 q -65 -130 -88 -130 q -34 -133 -50 -130 q -3 -135 -19 -135 q 75 -125 35 -135 q 138 -45 117 -83 q 170 29 159 -8 q 186 109 180 66 q 203 205 193 151 q 244 323 218 276 q 310 406 269 370 q 412 479 351 441 q 335 537 367 503 q 302 626 302 570 q 322 725 302 676 q 361 826 341 774 q 380 933 380 877 q 349 1057 380 1003 q 263 1142 317 1112 q 139 1173 208 1173 q 110 1172 124 1173 q 81 1167 95 1170 q 114 1191 92 1175 q 163 1224 137 1206 q 212 1255 189 1242 q 245 1270 235 1267 q 274 1273 259 1272 q 302 1274 288 1274 q 427 1244 372 1274 q 515 1161 482 1214 q 547 1038 547 1107 q 528 931 547 981 q 489 832 508 880 q 469 732 469 783 q 506 632 469 670 q 595 570 543 595 z "},"~":{"ha":878,"x_min":200,"x_max":936,"o":"m 936 663 q 867 600 909 635 q 775 531 825 565 q 677 476 726 498 q 590 454 629 454 q 539 470 559 454 q 501 506 519 486 q 459 541 483 526 q 397 557 436 557 q 341 497 368 516 q 289 468 314 477 q 242 448 264 458 q 200 416 220 438 q 268 491 224 449 q 367 571 313 532 q 474 636 421 610 q 569 661 528 661 q 618 645 599 661 q 656 609 638 629 q 700 572 675 588 q 766 557 725 557 q 821 596 791 581 q 881 625 850 611 q 936 663 911 640 z "},"†":{"ha":878,"x_min":286,"x_max":933,"o":"m 933 857 q 898 839 920 854 q 851 804 876 823 q 805 770 827 785 q 767 755 782 755 l 683 755 l 504 -132 q 480 -154 502 -141 q 429 -181 458 -167 q 374 -209 400 -196 q 338 -233 349 -222 l 537 755 l 286 755 q 319 779 296 762 q 371 813 343 795 q 421 844 398 831 q 453 857 444 857 l 559 857 l 621 1169 q 662 1197 642 1183 q 702 1223 682 1211 q 745 1244 722 1234 q 785 1270 769 1255 l 703 857 l 933 857 z "},"°":{"ha":385,"x_min":170,"x_max":595,"o":"m 280 698 q 204 722 238 698 q 170 791 170 745 q 173 814 170 803 q 217 889 180 849 q 304 965 254 929 q 405 1023 354 1000 q 490 1045 455 1045 q 564 1017 533 1045 q 595 944 595 989 q 592 921 595 932 q 548 848 585 886 q 463 775 512 809 q 363 720 413 741 q 280 698 314 698 m 347 944 q 339 898 339 923 q 361 832 339 861 q 420 797 382 803 q 429 844 429 821 q 407 909 429 880 q 347 944 385 938 z "},"¢":{"ha":652,"x_min":123,"x_max":773,"o":"m 773 733 q 749 705 773 724 q 693 666 726 686 q 630 631 660 646 q 590 615 601 616 q 599 621 593 616 q 604 630 604 626 q 582 648 604 640 q 528 662 559 656 q 469 670 496 667 q 432 673 441 673 q 369 649 397 673 q 323 588 342 625 q 295 512 304 551 q 286 444 286 473 q 347 299 286 351 q 497 248 408 248 q 583 265 542 248 q 667 291 623 283 l 666 289 q 611 250 648 273 q 535 207 574 227 q 473 178 496 186 l 452 62 q 412 34 433 49 q 371 7 392 20 q 327 -14 350 -5 q 286 -38 304 -22 q 301 54 296 7 q 321 144 306 100 q 313 143 317 144 q 304 142 309 142 q 206 170 247 142 q 144 243 165 197 q 123 343 123 289 q 152 468 123 412 q 228 570 181 524 q 329 652 274 615 q 438 719 385 688 q 451 798 448 770 q 459 841 453 825 q 487 870 466 856 q 555 907 508 884 q 595 927 574 917 q 631 950 615 937 l 595 774 q 614 775 604 775 q 633 776 623 776 q 664 773 642 776 q 712 765 687 770 q 755 751 737 760 q 773 733 773 743 z "},"£":{"ha":823,"x_min":85,"x_max":1011,"o":"m 827 941 l 827 943 l 852 960 q 822 981 846 972 q 766 995 798 989 q 707 1004 735 1001 q 666 1006 679 1006 q 562 994 615 1006 q 507 873 526 943 q 477 743 489 804 l 435 536 l 601 536 q 668 551 633 536 q 732 580 704 566 q 585 483 665 521 q 416 437 505 445 q 393 319 405 383 q 358 196 382 255 q 289 101 335 138 l 713 101 q 787 113 750 101 q 857 142 825 125 q 802 105 838 129 q 727 57 767 81 q 650 17 686 33 q 591 0 614 0 l 108 0 q 182 76 158 41 q 219 174 206 111 q 245 304 233 239 q 270 435 257 370 l 85 435 q 119 458 95 441 q 170 492 142 474 q 220 523 197 510 q 252 536 243 536 l 288 536 q 319 690 303 610 q 369 842 336 770 q 469 962 403 913 q 642 1065 548 1023 q 837 1107 735 1107 q 877 1105 848 1107 q 936 1096 905 1102 q 989 1079 966 1089 q 1011 1053 1011 1068 q 988 1022 1011 1040 q 931 987 964 1004 q 869 957 899 970 q 827 941 840 944 z "},"§":{"ha":878,"x_min":42,"x_max":1011,"o":"m 813 1051 q 834 1069 823 1057 q 846 1094 846 1082 q 820 1118 846 1108 q 759 1132 794 1127 q 691 1139 723 1137 q 648 1141 660 1141 q 501 1093 559 1141 q 443 951 443 1045 q 456 887 443 916 q 498 838 470 858 q 582 801 531 811 q 673 781 633 790 q 791 741 732 767 q 892 671 851 715 q 932 556 932 627 q 906 443 932 496 q 838 349 880 389 q 865 302 857 328 q 874 250 874 277 q 834 124 874 184 q 730 12 795 63 q 589 -79 665 -40 q 439 -139 513 -117 q 309 -161 366 -161 q 245 -157 288 -161 q 155 -145 201 -154 q 75 -118 108 -136 q 42 -71 42 -100 q 65 -21 42 -45 q 122 25 88 3 q 189 65 156 47 q 241 92 222 82 q 217 65 229 81 q 205 31 205 49 q 236 -14 205 4 q 311 -42 267 -32 q 395 -57 354 -53 q 456 -61 435 -61 q 579 -38 520 -61 q 674 32 637 -15 q 711 151 711 79 q 685 235 711 203 q 614 284 658 267 q 517 314 570 302 q 411 339 464 326 q 314 371 358 351 q 243 425 270 391 q 216 514 216 458 q 248 636 216 579 q 329 734 280 694 q 292 786 304 755 q 279 849 279 817 q 320 967 279 909 q 427 1075 361 1025 q 570 1163 494 1125 q 719 1222 646 1201 q 844 1244 791 1244 q 881 1241 854 1244 q 938 1234 908 1239 q 990 1219 968 1228 q 1011 1198 1011 1211 q 986 1160 1011 1182 q 927 1114 962 1137 q 860 1074 892 1091 q 813 1051 827 1057 m 498 838 l 500 837 q 498 838 500 837 l 498 838 m 392 701 q 388 683 391 691 q 382 665 385 674 q 378 618 378 644 q 405 529 378 564 q 476 473 432 494 q 572 438 521 452 q 674 415 624 425 q 761 393 724 406 q 768 425 764 410 q 771 458 771 441 q 743 552 771 513 q 671 616 715 591 q 577 657 627 642 q 484 681 527 672 q 437 690 460 686 q 392 701 414 694 z "},"•":{"ha":845,"x_min":359,"x_max":722,"o":"m 722 524 l 446 355 l 359 562 l 634 730 l 722 524 z "},"¶":{"ha":878,"x_min":117,"x_max":1140,"o":"m 1140 1076 q 1107 1053 1131 1069 q 1056 1018 1084 1036 q 1005 987 1028 1000 q 974 975 982 975 l 947 975 l 756 28 q 733 6 755 20 q 681 -23 711 -7 q 626 -52 652 -38 q 590 -73 600 -65 l 702 477 q 661 451 682 463 q 616 430 640 438 l 534 28 q 512 7 532 20 q 470 -18 492 -6 q 439 -34 448 -30 q 403 -52 422 -43 q 368 -73 384 -60 l 463 395 q 441 394 452 395 q 419 393 430 393 q 276 420 346 393 q 162 501 207 447 q 117 638 117 555 q 156 785 117 715 q 260 910 196 854 q 397 1005 323 966 q 539 1062 471 1044 q 608 1073 573 1071 q 677 1076 643 1076 l 1140 1076 m 581 975 q 555 975 568 975 q 530 976 543 976 q 346 923 412 976 q 279 745 279 870 q 302 628 279 682 q 372 541 326 574 q 486 508 418 508 l 581 975 m 803 975 l 725 975 l 629 497 q 669 502 650 498 q 708 509 689 505 l 803 975 z "},"ß":{"ha":838,"x_min":-258,"x_max":991,"o":"m 627 548 q 650 492 627 513 q 708 458 673 471 q 784 433 744 444 q 860 406 824 421 q 918 365 895 390 q 940 298 940 339 q 909 198 940 245 q 826 112 878 151 q 715 43 775 73 q 597 -2 655 14 q 494 -18 538 -18 q 442 -13 476 -18 q 380 7 408 -7 q 353 45 353 21 q 375 86 353 66 q 429 124 397 106 q 490 157 460 142 q 536 184 520 172 q 522 166 528 176 q 515 144 515 156 q 534 114 515 125 q 581 96 553 102 q 633 87 608 90 q 673 85 659 85 q 746 112 720 85 q 772 185 772 138 q 750 249 772 224 q 693 290 728 274 q 620 320 659 307 q 546 349 581 333 q 489 387 511 364 q 467 445 467 409 q 493 519 467 484 q 562 592 519 555 q 650 667 604 628 q 739 752 697 707 q 807 850 781 797 q 833 968 833 904 q 805 1077 833 1029 q 727 1151 776 1124 q 618 1178 678 1178 q 578 1176 598 1178 q 538 1169 558 1175 q 451 1021 476 1102 q 408 852 426 939 l 239 31 q 198 -91 228 -26 q 123 -220 168 -157 q 25 -335 79 -283 q -91 -418 -30 -387 q -216 -450 -152 -450 q -243 -445 -228 -450 q -258 -424 -258 -439 q -235 -383 -258 -404 q -179 -342 -212 -362 q -115 -307 -146 -323 q -69 -280 -84 -290 q -86 -297 -79 -287 q -94 -320 -94 -308 q -82 -342 -94 -336 q -57 -349 -70 -349 l -52 -349 q 40 -174 7 -272 q 92 17 72 -77 l 220 640 l 127 640 l 237 715 q 278 888 258 818 q 330 1010 298 958 q 419 1107 363 1061 q 570 1208 476 1154 q 673 1258 618 1237 q 786 1279 728 1279 q 939 1215 886 1279 q 991 1056 991 1151 q 965 922 991 979 q 897 822 939 865 q 809 745 856 779 q 722 681 763 711 q 654 618 680 650 q 627 548 627 587 z "},"®":{"ha":845,"x_min":-22,"x_max":1105,"o":"m 360 32 q 169 70 256 32 q 30 182 82 107 q -22 369 -22 257 q 23 576 -22 477 q 146 760 68 675 q 321 907 223 844 q 524 1005 418 970 q 732 1040 630 1040 q 917 998 831 1040 q 1053 879 1002 956 q 1105 697 1105 802 q 1058 503 1105 599 q 932 321 1011 406 q 756 172 854 237 q 556 69 659 106 q 360 32 454 32 m 559 937 q 384 900 461 937 q 252 800 306 864 q 170 653 198 736 q 141 477 141 570 q 160 357 141 413 q 224 254 180 300 q 252 300 243 274 q 267 353 261 326 l 338 713 l 262 713 q 294 736 271 720 q 345 771 317 753 q 396 802 373 789 q 428 815 419 815 l 608 815 q 664 812 631 815 q 729 800 696 809 q 782 772 761 791 q 804 722 804 753 q 773 649 804 682 q 703 589 743 615 q 633 546 663 563 q 682 503 656 534 q 731 435 707 471 q 777 373 755 399 q 814 347 798 347 q 833 350 824 347 q 850 358 842 353 q 765 278 821 308 q 652 248 710 248 q 613 268 631 248 q 579 319 596 289 q 543 380 563 349 q 497 431 523 410 q 435 452 471 452 q 416 397 429 422 q 387 349 404 373 q 436 345 408 345 q 469 346 452 345 q 501 347 485 347 q 440 312 467 337 q 382 266 414 288 q 306 245 351 245 q 269 245 287 245 q 232 246 250 246 q 367 159 289 187 q 527 132 446 132 q 694 170 618 132 q 826 274 770 208 q 911 421 881 339 q 941 589 941 503 q 890 778 941 701 q 752 896 838 856 q 559 937 665 937 m 454 562 l 559 562 q 618 574 595 562 q 642 628 642 587 q 614 684 642 666 q 550 707 587 702 q 484 713 513 713 l 454 562 z "},"©":{"ha":1171,"x_min":139,"x_max":1268,"o":"m 524 32 q 332 69 420 32 q 192 181 245 106 q 139 368 139 256 q 185 574 139 474 q 308 758 231 673 q 484 906 386 843 q 688 1005 582 970 q 895 1040 794 1040 q 1080 998 995 1040 q 1217 879 1165 956 q 1268 697 1268 802 q 1221 503 1268 599 q 1096 321 1175 406 q 920 172 1017 237 q 720 69 823 106 q 524 32 617 32 m 721 937 q 499 874 592 937 q 357 710 407 812 q 308 484 308 607 q 358 291 308 370 q 494 172 408 212 q 690 132 581 132 q 858 170 782 132 q 988 273 933 208 q 1073 420 1043 338 q 1103 588 1103 501 q 1052 777 1103 699 q 913 896 1000 855 q 721 937 827 937 m 1009 800 q 957 760 991 783 q 886 716 922 737 q 827 686 850 696 l 838 699 q 806 716 830 711 q 757 722 783 721 q 718 724 731 724 q 588 667 635 724 q 541 531 541 611 q 599 402 541 446 q 737 358 657 358 q 826 369 782 358 q 909 399 869 380 q 798 319 846 351 q 693 270 749 287 q 556 254 638 254 q 428 299 480 254 q 376 423 376 345 q 411 545 376 486 q 501 655 445 604 q 625 744 557 706 q 761 803 693 782 q 886 825 829 825 q 926 824 901 825 q 974 818 951 823 q 1009 800 998 812 z "},"™":{"ha":1255,"x_min":237,"x_max":1311,"o":"m 1221 608 l 1311 608 q 1273 585 1293 602 q 1234 553 1253 568 q 1200 538 1215 538 l 1110 538 q 1130 571 1124 553 q 1139 607 1136 589 q 1159 724 1149 665 q 1177 842 1169 783 q 1119 769 1147 806 q 1064 694 1090 733 q 1040 658 1052 677 q 1013 623 1028 639 q 982 601 1004 614 q 937 574 960 587 q 901 553 913 561 q 870 688 893 623 q 825 819 848 754 q 806 749 818 792 q 777 667 793 707 q 741 608 761 627 l 838 608 q 805 585 829 602 q 756 553 780 568 q 726 538 732 538 l 626 538 q 682 634 666 582 q 713 741 698 686 l 768 942 l 694 942 q 725 964 701 947 q 774 997 750 981 q 804 1012 798 1012 l 880 1012 q 943 850 911 930 q 1000 687 976 770 l 1131 859 q 1177 919 1162 899 q 1203 950 1191 939 q 1236 974 1215 962 q 1303 1012 1258 987 l 1253 680 q 1241 642 1250 663 q 1221 608 1233 621 m 687 1012 q 650 989 669 1006 q 611 957 630 972 q 576 942 592 942 l 490 942 l 444 707 q 422 651 438 679 q 381 608 406 623 l 498 608 q 461 586 481 603 q 422 554 441 569 q 388 538 403 538 l 279 538 q 321 590 309 557 q 340 654 334 623 q 367 798 355 726 q 395 942 380 870 l 237 942 q 270 965 246 948 q 318 997 294 982 q 349 1012 341 1012 l 687 1012 z "},"´":{"ha":812,"x_min":509,"x_max":937,"o":"m 937 1273 q 811 1147 884 1213 q 660 1023 739 1080 q 509 932 581 965 l 510 941 q 621 1020 569 975 q 720 1116 673 1066 q 747 1146 734 1131 q 777 1177 761 1162 q 853 1229 808 1206 q 937 1273 899 1253 z "},"¨":{"ha":812,"x_min":548,"x_max":1145,"o":"m 1145 1031 l 981 928 l 889 1036 l 1053 1137 l 1145 1031 m 804 1031 l 640 928 l 548 1036 l 712 1137 l 804 1031 z "},"≠":{"ha":878,"x_min":159,"x_max":892,"o":"m 892 563 q 854 542 876 558 q 809 507 832 526 q 765 474 786 488 q 728 460 744 460 l 609 460 l 526 357 l 851 357 q 816 338 835 352 q 783 313 797 323 q 754 292 772 306 q 716 267 735 278 q 684 256 696 256 l 437 256 q 380 193 411 222 q 310 146 349 164 q 259 124 281 133 q 214 92 238 115 q 289 172 252 131 q 359 256 326 212 l 159 256 q 196 273 174 258 q 242 308 218 289 q 288 342 266 328 q 326 357 311 357 l 441 357 l 515 460 l 203 460 q 238 480 218 465 q 271 505 258 494 q 299 527 281 513 q 336 552 317 541 q 368 563 355 563 l 578 563 q 596 596 587 579 q 616 627 606 612 q 665 666 631 650 q 734 697 700 682 q 782 730 768 712 q 733 645 760 686 q 680 563 707 604 l 892 563 z "},"Æ":{"ha":1603,"x_min":-36,"x_max":1442,"o":"m 1442 1076 q 1388 1042 1419 1067 q 1327 995 1357 1017 q 1277 973 1297 973 l 836 973 l 871 610 l 1227 610 q 1197 590 1210 604 q 1171 564 1183 577 q 1151 544 1164 557 q 1123 520 1137 531 q 1099 509 1109 509 l 881 509 q 897 357 890 433 q 918 205 903 280 q 946 134 926 166 q 1011 101 965 101 l 1283 101 q 1355 115 1314 101 q 1426 141 1397 130 q 1375 105 1411 128 q 1296 58 1339 82 q 1216 17 1253 33 q 1160 0 1178 0 l 890 0 q 806 16 838 0 q 760 85 774 33 q 730 260 736 168 q 715 437 724 352 q 617 406 677 415 q 494 396 557 397 q 388 396 432 395 q 268 241 332 315 q 132 101 203 168 l 153 101 q 281 106 214 101 q 403 142 347 111 q 288 68 335 96 q 198 25 241 39 q 100 5 155 10 q -36 0 46 0 l -33 3 q 127 174 56 87 q 262 355 199 262 q 391 549 326 448 q 517 741 453 646 q 637 937 581 836 q 648 955 643 946 q 659 973 653 964 l 602 973 q 490 968 545 973 q 380 943 435 962 q 483 1012 439 986 q 570 1052 528 1038 q 664 1071 612 1066 q 787 1076 715 1076 l 1442 1076 m 674 834 l 456 497 q 470 500 462 500 q 484 500 478 500 q 549 499 517 500 q 614 497 582 497 q 662 497 638 497 q 709 500 686 498 l 674 834 z "},"Ø":{"ha":1088,"x_min":119,"x_max":1170,"o":"m 492 -61 q 380 -45 430 -61 q 294 0 331 -29 q 278 -19 285 -11 q 262 -38 272 -27 q 233 -56 256 -44 q 186 -79 210 -67 q 153 -96 163 -90 q 119 -119 135 -107 q 183 -37 151 -78 q 248 46 216 5 q 195 154 212 92 q 178 289 178 216 q 182 366 178 328 q 194 442 186 404 q 290 701 221 576 q 391 848 331 775 q 526 979 451 920 q 685 1073 600 1038 q 861 1107 770 1107 q 935 1099 900 1107 q 940 1107 938 1103 q 947 1116 943 1112 q 994 1152 964 1135 q 1054 1183 1023 1168 q 1108 1213 1085 1198 q 1067 1136 1088 1175 q 1025 1060 1046 1098 q 1133 927 1097 1011 q 1170 747 1170 842 q 1167 687 1170 717 q 1158 629 1164 658 q 1115 487 1144 557 q 1048 355 1086 418 q 948 215 1008 288 q 814 80 888 142 q 659 -22 741 17 q 492 -61 576 -61 m 724 1004 q 574 962 638 1004 q 466 853 511 921 q 395 703 422 785 q 355 540 368 622 q 342 391 342 458 q 349 295 342 342 q 372 208 356 249 q 526 425 451 315 q 669 649 602 534 l 860 971 q 799 995 833 987 q 724 1004 765 1004 m 488 243 q 448 191 468 217 q 408 138 428 164 q 493 65 441 92 q 622 38 546 38 q 763 81 701 38 q 869 192 825 124 q 942 336 914 260 q 984 477 970 412 q 998 566 993 521 q 1003 655 1003 610 q 987 792 1003 726 q 934 907 970 858 q 852 776 893 841 q 769 646 811 711 q 631 443 702 544 q 488 243 561 342 z "},"∞":{"ha":1171,"x_min":157,"x_max":1257,"o":"m 863 294 q 738 340 789 294 q 654 447 687 387 q 557 377 613 413 q 441 317 502 341 q 326 292 381 292 q 206 335 255 292 q 157 452 157 378 q 182 553 157 501 q 250 652 208 604 q 343 737 292 699 q 448 797 394 774 q 549 819 502 819 q 637 791 595 819 q 714 724 680 763 q 771 649 749 684 q 846 705 802 675 q 938 762 889 735 q 1035 807 987 789 q 1124 825 1083 825 q 1199 800 1170 825 q 1243 738 1228 776 q 1257 660 1257 700 q 1219 531 1257 595 q 1121 413 1181 467 q 993 326 1061 359 q 863 294 924 294 m 948 722 q 885 704 914 722 q 833 658 857 685 q 791 606 809 631 q 842 511 812 559 q 916 428 873 462 q 1015 395 958 395 q 1028 395 1021 395 q 1040 396 1034 395 q 1094 557 1094 469 q 1057 673 1094 625 q 948 722 1020 722 m 626 505 q 567 602 603 553 q 484 684 532 650 q 378 719 437 717 q 339 643 355 684 q 324 559 324 602 q 378 435 324 478 q 509 392 432 392 q 555 413 531 392 q 598 460 578 433 q 626 505 617 486 z "},"±":{"ha":878,"x_min":106,"x_max":882,"o":"m 882 459 q 843 439 865 455 q 798 405 821 424 q 754 372 775 386 q 718 358 733 358 l 593 358 q 581 285 584 311 q 572 243 578 259 q 546 214 566 228 q 482 178 526 200 q 440 157 465 169 q 403 132 416 144 l 448 358 l 178 358 q 230 389 201 363 q 290 436 260 414 q 344 459 320 459 l 468 459 q 481 535 478 509 q 490 576 484 562 q 517 604 496 591 q 583 641 537 617 q 622 660 601 650 q 658 684 642 670 l 613 459 l 882 459 m 811 101 q 772 81 794 97 q 728 46 751 65 q 683 14 705 28 q 646 0 662 0 l 106 0 q 159 31 130 6 q 219 78 189 56 q 273 101 249 101 l 811 101 z "},"¥":{"ha":909,"x_min":164,"x_max":1128,"o":"m 700 471 q 761 471 730 471 q 821 470 791 470 q 888 484 854 470 q 949 514 922 498 q 828 417 905 453 q 676 376 751 381 l 661 297 l 786 297 q 854 311 819 297 q 918 341 889 324 q 789 246 866 284 q 635 202 711 208 q 606 149 623 174 q 569 101 590 123 l 810 101 q 753 68 783 92 q 695 22 724 43 q 644 0 666 0 l 382 0 q 457 87 430 41 q 497 195 485 132 l 271 195 q 304 218 281 202 q 355 253 328 235 q 405 284 382 271 q 437 297 428 297 l 517 297 l 531 369 l 307 369 q 339 392 316 376 q 390 427 363 409 q 440 458 418 446 q 472 471 463 471 l 533 471 q 518 550 529 500 q 489 659 507 600 q 447 778 471 718 q 394 886 423 837 q 332 966 366 936 q 263 996 299 996 q 211 985 238 996 q 164 960 184 973 q 238 1019 195 989 q 329 1069 281 1049 q 421 1089 377 1089 q 497 1057 462 1089 q 562 970 532 1024 q 615 853 592 917 q 656 724 639 789 q 683 606 673 660 q 696 520 693 552 q 770 599 726 550 q 859 704 814 648 q 933 815 903 760 q 964 913 964 870 q 941 970 964 949 q 883 991 919 991 q 841 987 862 991 q 892 1014 870 996 q 936 1050 915 1031 q 983 1081 958 1068 q 1046 1094 1009 1094 q 1104 1075 1080 1094 q 1128 1019 1128 1056 q 1095 919 1128 977 q 1007 796 1061 861 q 895 668 954 731 q 783 554 835 606 q 700 471 730 502 z "},"µ":{"ha":935,"x_min":93,"x_max":952,"o":"m 952 102 q 892 71 916 90 q 846 33 868 52 q 794 1 824 14 q 715 -12 764 -12 q 652 55 652 -12 q 654 84 652 69 q 659 113 656 99 q 549 30 611 70 q 418 -9 486 -9 q 329 18 372 -9 l 260 -330 q 235 -354 258 -341 q 183 -380 213 -366 q 128 -407 154 -393 q 93 -431 102 -420 l 282 502 q 287 528 285 515 q 288 555 288 542 q 272 610 288 590 q 220 630 256 630 q 165 618 190 630 q 233 669 196 642 q 310 714 269 696 q 391 733 350 733 q 443 711 429 733 q 456 656 456 689 q 450 594 456 625 q 437 532 443 563 q 414 434 428 490 q 389 321 400 377 q 378 226 378 266 q 418 123 378 152 q 528 95 459 95 q 603 105 572 95 q 665 150 634 116 l 745 542 q 747 572 747 557 q 739 609 747 593 q 707 626 731 626 q 690 624 699 626 q 673 618 681 621 q 730 661 695 635 q 803 707 766 687 q 869 727 840 727 q 905 709 896 727 q 913 667 913 690 q 906 604 913 635 q 892 542 898 573 q 855 370 874 456 q 820 199 836 285 q 816 177 817 188 q 814 154 814 165 q 833 105 814 119 q 886 92 852 92 q 919 95 903 92 q 952 102 936 98 z "},"∂":{"ha":878,"x_min":136,"x_max":906,"o":"m 370 -17 q 248 16 300 -17 q 166 104 195 49 q 136 228 136 160 q 168 367 136 297 q 254 501 200 437 q 376 614 309 564 q 517 692 444 663 q 656 721 589 721 q 731 710 697 721 q 643 947 707 838 q 471 1132 578 1056 q 526 1165 495 1140 q 587 1213 557 1190 q 634 1235 616 1235 q 668 1215 644 1235 q 713 1172 691 1195 q 744 1140 736 1149 q 867 916 829 1043 q 906 663 906 789 q 885 471 906 568 q 821 287 864 375 q 714 131 779 199 q 564 23 650 62 q 370 -17 478 -17 m 489 621 q 405 592 440 621 q 348 518 370 563 q 315 425 326 473 q 304 336 304 376 q 331 208 304 265 q 408 117 357 151 q 534 83 459 83 q 618 112 583 83 q 675 186 653 141 q 708 280 698 231 q 718 369 718 330 q 692 497 718 439 q 615 588 666 554 q 489 621 564 621 z "},"∏":{"ha":1246,"x_min":347,"x_max":1357,"o":"m 1357 1076 q 1317 1056 1339 1072 q 1272 1021 1295 1040 q 1228 988 1249 1002 q 1190 975 1207 975 l 1046 975 l 861 58 q 838 35 859 49 q 787 7 817 22 q 732 -22 758 -8 q 696 -44 706 -35 l 901 975 l 743 975 l 559 58 q 535 35 557 49 q 484 7 513 22 q 429 -21 455 -7 q 393 -44 403 -34 l 598 975 l 347 975 q 381 998 357 981 q 432 1032 404 1014 q 482 1063 459 1050 q 514 1076 505 1076 l 1357 1076 z "},"π":{"ha":1155,"x_min":297,"x_max":1137,"o":"m 1137 711 q 1103 693 1124 709 q 1057 658 1082 677 q 1009 625 1032 639 q 970 610 987 610 l 894 610 l 808 185 q 803 162 805 174 q 802 140 802 151 q 822 95 802 105 q 873 84 842 84 q 907 87 890 84 q 941 95 924 90 q 880 64 904 83 q 834 26 856 45 q 782 -5 812 7 q 706 -18 753 -18 q 656 2 670 -18 q 643 55 643 23 q 645 89 643 72 q 651 122 648 106 l 749 610 l 642 610 l 532 72 q 508 48 530 61 q 456 21 486 35 q 401 -6 427 7 q 368 -31 376 -20 l 498 610 l 297 610 q 330 633 307 617 q 381 668 353 650 q 431 699 408 686 q 463 711 454 711 l 1137 711 z "},"ª":{"ha":669,"x_min":110,"x_max":768,"o":"m 768 664 q 701 626 731 652 q 638 578 670 600 q 566 557 606 557 q 526 597 526 557 q 530 626 526 610 q 434 581 485 601 q 330 560 383 560 q 290 566 312 560 q 253 584 269 571 q 237 621 237 597 q 263 685 237 653 q 329 746 288 718 q 416 796 370 774 q 504 831 462 818 q 574 846 547 844 q 578 874 576 861 q 579 903 579 888 q 552 975 579 956 q 475 993 525 993 q 426 987 450 993 q 378 973 401 982 q 456 1028 415 1000 q 543 1075 498 1057 q 636 1094 589 1094 q 715 1073 682 1094 q 747 1000 747 1051 q 744 968 747 985 l 696 731 q 693 700 693 713 q 701 669 693 682 q 729 656 709 656 q 768 664 747 656 m 553 747 q 479 759 515 759 q 408 745 444 759 q 405 731 406 739 q 404 718 404 724 q 430 670 404 681 q 486 659 456 659 q 512 661 499 659 q 538 664 526 663 l 553 747 m 704 453 q 649 419 680 444 q 589 373 618 395 q 536 351 559 351 l 110 351 q 142 374 119 358 q 193 409 165 391 q 243 440 220 427 q 275 453 267 453 l 704 453 z "},"º":{"ha":669,"x_min":136,"x_max":849,"o":"m 427 568 q 339 586 381 568 q 272 640 298 605 q 245 726 245 675 q 274 830 245 778 q 349 928 302 882 q 452 1011 395 975 q 565 1068 508 1047 q 671 1089 623 1089 q 759 1067 718 1089 q 824 1008 800 1046 q 849 922 849 970 q 821 821 849 871 q 746 725 793 770 q 643 644 699 680 q 530 588 587 608 q 427 568 474 568 m 507 990 q 451 964 471 990 q 423 903 431 939 q 415 840 415 868 q 463 713 415 762 q 589 665 511 665 q 644 692 624 665 q 672 753 664 718 q 680 815 680 789 q 633 942 680 893 q 507 990 585 990 m 728 453 q 674 421 705 446 q 615 373 644 396 q 563 351 585 351 l 136 351 q 169 374 146 357 q 220 409 192 391 q 270 440 248 427 q 302 453 293 453 l 728 453 z "},"æ":{"ha":1272,"x_min":175,"x_max":1182,"o":"m 768 279 q 826 139 774 187 q 970 90 878 90 q 1061 103 1016 90 q 1146 138 1105 117 q 1042 61 1101 95 q 917 8 983 28 q 790 -11 852 -11 q 682 21 728 -11 q 617 112 636 52 q 517 57 568 85 q 412 9 466 28 q 300 -11 357 -11 q 243 -3 273 -11 q 195 24 214 5 q 175 77 175 43 q 177 100 175 89 q 240 209 191 160 q 359 293 290 258 q 498 349 427 329 q 625 370 569 368 q 640 442 632 406 q 648 516 648 478 q 612 615 648 585 q 509 644 576 644 q 376 614 439 644 q 469 676 420 645 q 570 727 517 707 q 678 748 623 748 q 785 705 755 748 q 811 592 815 663 q 896 656 848 624 q 996 711 943 689 q 1098 733 1048 733 q 1159 708 1137 733 q 1182 646 1182 684 q 1151 555 1182 600 q 1071 468 1120 510 q 966 390 1022 426 q 857 325 909 353 q 768 279 804 297 m 938 627 q 861 592 892 627 q 808 506 829 557 q 778 402 788 454 q 767 315 768 350 q 839 347 797 323 q 922 404 882 370 q 990 474 963 437 q 1017 545 1017 511 q 995 603 1017 578 q 938 627 972 627 m 604 268 l 480 268 q 424 266 452 268 q 368 258 396 264 q 350 217 357 239 q 343 173 343 195 q 378 106 343 123 q 455 89 413 89 q 508 99 479 89 q 558 128 536 109 q 585 173 580 146 l 604 268 z "},"ø":{"ha":809,"x_min":96,"x_max":863,"o":"m 773 693 q 840 604 818 657 q 863 495 863 551 q 831 353 863 425 q 746 215 800 281 q 625 99 692 150 q 484 18 557 47 q 341 -12 411 -12 q 289 -7 315 -12 q 239 9 262 -3 q 167 -26 205 -12 q 96 -64 129 -41 l 188 43 q 127 130 147 79 q 108 233 108 180 q 139 376 108 304 q 225 514 171 448 q 347 630 279 579 q 488 711 414 682 q 631 741 562 741 q 659 739 646 741 q 686 734 673 738 q 731 777 698 759 q 802 810 765 795 q 863 842 840 825 l 773 693 m 601 597 q 535 630 572 620 q 463 640 499 640 q 377 610 413 640 q 319 535 342 581 q 287 439 297 489 q 277 349 277 389 q 285 271 277 310 q 311 197 294 233 q 601 597 467 393 m 660 524 q 513 329 589 424 q 358 139 436 233 q 427 100 389 113 q 505 87 465 87 q 591 118 555 87 q 649 197 627 149 q 681 295 671 244 q 691 386 691 346 q 684 457 691 422 q 660 524 677 492 z "},"¿":{"ha":694,"x_min":59,"x_max":767,"o":"m 673 978 l 508 875 l 454 999 l 621 1101 l 673 978 m 252 -23 q 113 32 167 -23 q 59 172 59 87 q 84 287 59 237 q 150 377 110 337 q 237 453 191 417 q 327 524 283 488 q 403 601 371 559 q 444 693 435 642 q 446 714 446 703 q 448 734 446 724 q 474 761 451 747 q 526 788 496 774 q 581 814 556 802 q 614 837 606 826 q 611 820 612 828 q 611 804 611 812 q 610 789 611 794 q 559 690 597 734 q 470 607 521 646 q 368 524 419 567 q 278 428 317 481 q 222 303 238 375 q 218 260 218 283 q 249 162 218 202 q 327 100 279 121 q 429 79 375 79 q 520 113 482 79 q 579 197 559 147 q 600 294 600 247 q 589 357 600 328 l 757 459 q 767 391 767 425 q 732 271 767 330 q 639 158 696 211 q 513 64 582 105 q 376 0 444 24 q 252 -23 308 -23 z "},"¡":{"ha":351,"x_min":102,"x_max":494,"o":"m 494 970 l 328 869 l 275 993 l 440 1094 l 494 970 m 268 101 q 271 84 268 92 q 286 75 275 75 q 312 90 292 75 q 340 110 333 105 l 340 101 q 297 71 326 91 q 234 28 268 50 q 169 -8 199 7 q 124 -23 139 -23 q 106 -12 111 -23 q 102 11 102 0 q 104 30 102 20 q 108 47 106 39 l 286 749 q 319 772 295 762 q 369 793 343 782 q 409 820 395 805 l 269 116 q 268 101 268 109 z "},"¬":{"ha":878,"x_min":92,"x_max":1041,"o":"m 1041 630 q 998 592 1018 612 q 963 546 977 571 q 937 481 949 522 q 914 394 924 441 q 896 304 903 347 q 884 233 888 261 l 711 130 q 740 275 726 201 q 783 414 753 348 q 873 530 812 480 l 92 530 q 126 553 102 536 q 177 587 150 569 q 228 617 205 604 q 260 630 251 630 l 1041 630 z "},"≈":{"ha":878,"x_min":128,"x_max":929,"o":"m 929 686 q 860 624 903 659 q 768 555 817 588 q 670 499 718 522 q 583 477 621 477 q 531 493 552 477 q 492 529 511 509 q 450 566 473 550 q 389 581 426 581 q 373 562 381 572 q 357 542 366 551 q 303 500 334 515 q 242 474 272 486 q 193 441 212 462 q 261 515 217 473 q 360 595 306 556 q 467 659 414 633 q 562 684 521 684 q 612 668 591 684 q 651 632 632 652 q 695 595 670 611 q 760 580 720 580 q 813 619 783 604 q 874 648 844 634 q 929 686 905 662 m 864 366 q 794 304 837 339 q 703 236 752 269 q 605 181 653 203 q 518 159 557 159 q 466 175 487 159 q 427 211 446 191 q 385 246 408 231 q 326 262 361 262 q 310 242 317 252 q 294 222 303 231 q 240 181 270 195 q 180 155 210 168 q 128 121 151 143 q 196 194 151 153 q 295 275 241 236 q 402 340 349 314 q 496 366 456 366 q 546 350 526 366 q 584 314 566 334 q 628 277 602 293 q 694 262 653 262 q 749 300 719 286 q 809 329 779 315 q 864 366 840 342 z "},"«":{"ha":795,"x_min":50,"x_max":907,"o":"m 907 630 q 758 507 836 564 q 597 401 680 450 q 713 301 656 353 q 819 191 770 250 q 734 145 776 174 q 654 90 692 116 q 541 201 598 146 q 422 306 484 256 l 574 402 q 662 466 621 431 q 745 534 704 500 q 823 587 782 564 q 907 630 864 609 m 534 630 q 385 507 463 564 q 224 401 307 450 q 340 301 283 353 q 446 191 397 250 q 361 145 406 176 q 281 90 317 115 q 168 201 225 146 q 50 306 111 256 l 201 402 q 289 465 248 431 q 372 534 330 499 q 450 587 409 564 q 534 630 490 610 z "},"»":{"ha":795,"x_min":45,"x_max":904,"o":"m 418 90 q 568 212 489 156 q 729 318 646 269 q 612 418 669 366 q 505 528 555 469 q 591 574 551 546 q 672 630 631 603 q 785 518 728 574 q 904 413 842 463 l 749 317 q 649 244 696 283 q 551 168 602 205 q 487 126 520 146 q 418 90 453 106 m 45 90 q 194 212 116 156 q 355 318 273 269 q 239 417 296 366 q 132 528 182 469 q 218 575 177 547 q 298 630 258 603 q 411 518 354 574 q 530 413 469 463 l 374 317 q 289 254 329 288 q 207 186 248 220 q 129 134 170 156 q 45 90 87 111 z "},"Œ":{"ha":1391,"x_min":151,"x_max":1596,"o":"m 465 -58 q 288 -12 358 -58 q 184 112 218 33 q 151 292 151 191 q 155 369 151 331 q 167 446 159 408 q 262 704 194 580 q 364 851 304 779 q 498 982 424 924 q 658 1076 573 1041 q 833 1111 743 1111 q 1004 1060 935 1111 q 1108 926 1073 1008 q 1143 750 1143 844 q 1140 691 1143 720 q 1131 632 1137 661 q 1088 491 1117 560 q 1021 358 1059 421 q 921 218 981 291 q 787 83 861 146 q 631 -19 713 20 q 465 -58 549 -58 m 697 1007 q 547 966 611 1007 q 439 856 484 924 q 368 707 395 788 q 328 543 340 625 q 315 394 315 461 q 341 221 315 302 q 429 91 368 140 q 595 41 490 41 q 736 84 674 41 q 842 195 798 127 q 915 339 887 263 q 957 481 943 415 q 971 569 966 524 q 976 659 976 614 q 949 828 976 749 q 861 958 922 908 q 697 1007 800 1007 m 1596 1064 q 1532 1031 1569 1056 q 1461 984 1496 1006 q 1403 962 1426 962 l 936 962 l 861 599 l 1388 599 q 1344 579 1369 594 q 1301 553 1319 564 q 1266 531 1288 544 q 1223 508 1245 518 q 1186 498 1202 498 l 841 498 l 793 255 q 777 196 788 231 q 749 131 766 161 q 709 90 732 100 l 1267 90 q 1349 104 1302 90 q 1431 130 1396 118 q 1374 93 1415 116 q 1286 46 1334 70 q 1196 5 1238 22 q 1136 -12 1155 -12 l 527 -12 q 603 96 579 43 q 641 222 626 149 l 696 498 l 592 498 l 713 579 l 790 962 l 651 962 q 687 985 661 969 q 742 1020 712 1002 q 797 1051 772 1038 q 831 1064 821 1064 l 1596 1064 z "},"œ":{"ha":1272,"x_min":138,"x_max":1284,"o":"m 870 279 q 928 138 876 186 q 1073 90 981 90 q 1163 104 1117 90 q 1249 138 1209 117 q 1144 61 1204 95 q 1020 8 1085 28 q 892 -11 954 -11 q 770 32 817 -11 q 711 147 724 75 q 555 36 644 84 q 371 -12 466 -12 q 249 21 301 -12 q 167 110 196 54 q 138 234 138 166 q 169 377 138 305 q 255 514 201 449 q 377 630 309 579 q 518 711 445 682 q 661 741 592 741 q 803 692 743 741 q 883 564 863 643 q 975 641 922 602 q 1086 707 1027 680 q 1201 733 1145 733 q 1262 708 1240 733 q 1284 646 1284 683 q 1253 555 1284 600 q 1173 468 1222 510 q 1067 390 1124 427 q 958 326 1010 354 q 870 279 906 297 m 492 640 q 407 610 442 640 q 349 535 372 581 q 317 439 327 489 q 307 349 307 389 q 332 219 307 278 q 408 123 357 159 q 535 87 458 87 q 620 118 585 87 q 678 194 656 148 q 711 290 701 240 q 722 380 722 340 q 696 510 722 452 q 620 604 671 569 q 492 640 569 640 m 1040 627 q 962 592 994 627 q 910 506 930 557 q 881 402 890 454 q 870 315 871 350 q 941 348 899 323 q 1024 406 983 372 q 1093 477 1065 440 q 1121 547 1121 515 q 1097 604 1121 580 q 1040 627 1073 627 z "},"–":{"ha":694,"x_min":242,"x_max":637,"o":"m 637 459 q 598 439 620 455 q 553 405 576 423 q 509 372 530 386 q 472 358 488 358 l 242 358 q 281 378 260 362 q 326 413 303 394 q 371 445 349 431 q 409 459 392 459 l 637 459 z "},"—":{"ha":1389,"x_min":477,"x_max":1097,"o":"m 1097 459 q 1043 429 1074 454 q 983 381 1013 404 q 930 358 954 358 l 477 358 q 531 389 501 364 q 590 436 561 414 q 644 459 620 459 l 1097 459 z "},"“":{"ha":644,"x_min":271,"x_max":753,"o":"m 753 789 l 587 687 q 555 759 570 722 q 540 836 540 796 q 562 930 540 884 q 620 1015 585 977 q 697 1074 656 1053 q 719 1086 708 1080 q 739 1100 729 1092 q 690 1052 715 1080 q 647 991 665 1023 q 629 926 629 958 q 634 903 629 915 q 653 892 639 892 q 677 900 663 892 q 700 913 691 908 l 753 789 m 484 789 l 317 687 q 286 759 300 722 q 271 836 271 796 q 293 930 271 884 q 351 1015 315 977 q 428 1074 387 1053 q 449 1086 439 1080 q 469 1100 460 1092 q 421 1052 446 1080 q 378 991 395 1023 q 360 926 360 958 q 365 903 360 915 q 383 892 369 892 q 408 900 392 892 q 431 913 423 909 l 484 789 z "},"”":{"ha":644,"x_min":277,"x_max":760,"o":"m 560 687 q 610 735 584 707 q 653 796 635 763 q 671 861 671 829 q 667 884 671 872 q 648 895 663 895 q 624 887 637 895 q 601 873 610 880 l 546 999 l 713 1100 q 747 1033 733 1067 q 760 959 760 998 q 739 860 760 908 q 681 773 717 812 q 601 711 644 734 q 580 700 590 706 q 560 687 570 694 m 333 711 q 312 701 322 706 q 293 688 302 696 l 291 687 q 293 688 291 687 q 342 735 316 707 q 385 795 368 763 q 403 859 403 827 q 398 883 403 871 q 379 895 394 895 q 355 887 368 895 q 332 873 341 880 l 277 999 l 444 1100 q 462 1060 450 1085 q 483 1010 473 1035 q 492 970 492 985 l 492 966 q 442 819 479 889 q 333 711 405 748 z "},"‘":{"ha":351,"x_min":259,"x_max":473,"o":"m 473 789 l 306 687 q 274 759 289 722 q 259 836 259 796 q 281 930 259 884 q 339 1015 304 977 q 416 1074 375 1053 q 438 1086 427 1080 q 458 1100 448 1092 q 409 1052 435 1080 q 366 991 384 1023 q 349 926 349 958 q 353 903 349 915 q 372 892 357 892 q 396 900 380 892 q 419 913 412 909 l 473 789 z "},"’":{"ha":351,"x_min":265,"x_max":481,"o":"m 321 711 q 300 701 311 706 q 281 688 290 696 l 279 687 q 281 688 279 687 q 330 735 304 707 q 374 795 356 763 q 391 859 391 827 q 387 883 391 871 q 368 895 382 895 q 343 887 357 895 q 320 873 330 880 l 265 999 l 433 1100 q 450 1060 439 1085 q 471 1010 462 1035 q 481 970 481 985 l 481 966 q 431 819 468 889 q 321 711 393 748 z "},"÷":{"ha":878,"x_min":182,"x_max":888,"o":"m 689 623 l 524 520 l 471 646 l 635 747 l 689 623 m 888 459 q 832 428 863 452 q 771 380 801 403 q 721 358 741 358 l 182 358 q 238 390 207 365 q 298 437 269 414 q 348 459 328 459 l 888 459 m 602 182 l 435 81 l 381 205 l 547 307 l 602 182 z "},"€":{"ha":765,"x_min":62,"x_max":845,"o":"m 196 239 q 199 296 196 266 l 62 296 q 104 327 74 305 q 167 368 134 348 q 218 395 200 389 q 225 424 222 410 q 233 452 229 437 q 240 469 236 460 l 98 469 q 132 493 109 477 q 182 527 155 509 q 232 557 209 545 q 264 570 254 570 l 291 570 q 347 658 317 617 q 419 737 378 699 q 508 808 458 774 q 611 863 557 842 q 722 884 666 884 q 763 879 734 884 q 819 863 793 873 q 845 838 845 852 q 819 800 845 821 q 757 759 793 779 q 688 723 721 739 q 640 702 655 707 q 663 717 648 706 q 679 738 679 728 q 661 761 679 751 q 621 776 642 770 q 589 782 599 782 q 515 765 547 782 q 458 718 484 749 q 417 648 430 686 q 395 570 404 610 l 562 570 q 621 585 591 570 q 675 614 651 599 q 596 543 644 574 q 495 493 549 512 q 391 473 441 474 q 375 472 384 473 q 368 434 372 453 q 363 397 365 416 l 527 396 q 586 411 555 396 q 638 442 616 427 q 526 346 597 386 q 385 302 455 306 q 358 301 373 302 q 372 210 360 256 q 415 133 385 164 q 500 102 445 102 q 571 117 532 102 q 649 152 611 132 q 714 186 687 172 q 641 128 683 160 q 552 66 600 96 q 457 18 505 37 q 366 -1 409 -1 q 266 37 304 -1 q 212 131 229 75 q 196 239 196 186 z "},"‹":{"ha":527,"x_min":102,"x_max":587,"o":"m 587 630 q 438 507 516 564 q 277 401 360 450 q 393 301 336 353 q 498 191 450 250 q 414 145 459 176 q 334 90 370 115 q 221 201 278 146 q 102 306 164 256 l 254 402 q 342 465 300 431 q 425 534 383 499 q 503 587 462 564 q 587 630 543 610 z "},"›":{"ha":527,"x_min":98,"x_max":583,"o":"m 98 90 q 247 212 169 156 q 408 318 326 269 q 292 417 349 366 q 185 528 235 469 q 271 575 230 547 q 351 630 311 603 q 464 518 407 574 q 583 413 522 463 l 427 317 q 341 254 382 288 q 260 186 301 220 q 182 134 223 156 q 98 90 140 111 z "},"‡":{"ha":878,"x_min":188,"x_max":939,"o":"m 939 857 q 885 826 915 851 q 826 778 856 801 q 774 755 797 755 l 688 755 l 605 340 l 834 340 q 799 321 820 337 q 753 287 777 306 q 706 253 728 267 q 669 239 684 239 l 585 239 l 511 -132 q 487 -155 509 -142 q 436 -183 465 -169 q 380 -210 406 -197 q 343 -233 354 -223 l 439 239 l 188 239 q 221 262 198 245 q 272 296 245 278 q 322 327 300 314 q 354 340 345 340 l 459 340 l 543 755 l 294 755 q 326 779 303 762 q 377 813 349 795 q 427 844 404 831 q 458 857 450 857 l 564 857 l 627 1169 q 667 1197 647 1183 q 707 1223 687 1211 q 750 1245 728 1235 q 792 1270 772 1255 l 709 857 l 939 857 z "},"‚":{"ha":393,"x_min":109,"x_max":321,"o":"m 123 -210 q 171 -161 146 -190 q 214 -100 197 -133 q 232 -36 232 -68 q 228 -13 232 -24 q 209 -1 223 -1 q 184 -9 198 -1 q 160 -23 170 -18 l 109 102 l 273 203 q 306 130 290 168 q 321 52 321 93 q 298 -41 321 5 q 239 -125 275 -87 q 163 -185 203 -163 q 143 -197 153 -191 q 123 -210 133 -203 z "},"„":{"ha":644,"x_min":99,"x_max":581,"o":"m 113 -210 q 162 -161 136 -190 q 205 -100 187 -133 q 222 -36 222 -68 q 218 -13 222 -24 q 199 -1 214 -1 q 174 -9 189 -1 q 151 -23 160 -18 l 99 102 l 263 203 q 297 129 281 168 q 312 50 312 90 q 289 -42 312 3 q 229 -126 265 -88 q 153 -185 193 -163 q 133 -197 143 -191 q 113 -210 123 -203 m 381 -210 q 431 -161 405 -190 q 474 -100 456 -133 q 492 -36 492 -68 q 487 -12 492 -23 q 467 -1 482 -1 q 444 -11 458 -1 q 420 -23 429 -20 l 368 102 l 532 203 q 566 130 551 169 q 581 51 581 91 q 557 -44 581 2 q 496 -127 534 -90 q 419 -186 459 -164 q 400 -197 410 -192 q 381 -210 390 -203 z "},"‰":{"ha":1480,"x_min":46,"x_max":1514,"o":"m 423 414 q 284 475 330 414 q 237 623 237 535 q 284 800 237 717 q 402 944 332 884 q 464 988 425 963 q 548 1037 503 1013 q 635 1076 593 1061 q 707 1091 677 1091 q 821 1048 777 1091 q 880 945 866 1006 q 951 1093 919 1019 q 958 1108 953 1096 q 966 1122 964 1120 q 1045 1177 1001 1156 q 1131 1223 1089 1197 q 950 869 1057 1038 q 724 542 843 701 q 558 327 643 433 q 382 119 474 220 q 299 31 342 75 q 207 -49 255 -14 q 126 -97 168 -76 q 46 -145 85 -119 q 321 144 186 -8 q 576 459 456 296 q 499 426 538 438 q 423 414 460 414 m 526 990 q 506 988 513 990 q 431 868 459 938 q 403 730 403 799 q 422 624 403 674 q 483 544 442 574 q 585 513 524 513 q 600 513 593 513 q 614 515 607 514 q 633 537 623 526 q 659 574 646 556 q 704 677 687 622 q 720 783 720 733 q 670 931 720 873 q 526 990 619 990 m 785 -14 q 646 46 692 -14 q 600 193 600 106 q 646 372 600 288 q 764 515 692 456 q 826 560 787 535 q 910 609 865 585 q 997 647 955 632 q 1069 663 1040 663 q 1136 650 1107 663 q 1188 616 1166 637 q 1267 649 1229 636 q 1334 663 1306 663 q 1431 634 1391 663 q 1493 561 1472 606 q 1514 461 1514 515 q 1485 336 1514 401 q 1408 209 1457 271 q 1299 96 1360 146 q 1175 16 1239 46 q 1050 -14 1110 -14 q 983 -3 1013 -14 q 931 27 953 8 q 857 -3 894 8 q 785 -14 820 -14 m 888 563 q 877 562 882 563 q 867 562 872 562 q 793 440 822 509 q 765 300 765 370 q 794 175 765 233 q 884 96 824 117 q 867 194 867 140 q 911 370 867 287 q 1024 512 956 452 q 888 563 971 563 m 1247 461 q 1200 299 1247 385 q 1083 142 1154 213 q 1137 101 1105 116 q 1211 85 1169 85 q 1226 86 1219 85 q 1241 89 1234 87 q 1298 168 1273 121 q 1337 266 1322 215 q 1351 362 1351 317 q 1319 478 1351 433 q 1233 545 1286 524 q 1247 461 1247 505 m 1031 300 q 1048 203 1031 247 q 1074 281 1064 241 q 1084 357 1084 321 q 1065 453 1084 410 q 1031 300 1031 375 z "},"ı":{"ha":523,"x_min":174,"x_max":503,"o":"m 370 151 q 395 99 370 111 q 455 87 420 87 q 503 92 480 87 q 438 45 473 70 q 367 4 404 21 q 291 -14 330 -14 q 229 1 252 -14 q 205 58 205 16 q 207 81 205 70 q 211 104 208 92 l 283 459 q 288 488 286 473 q 290 516 290 502 q 279 557 290 541 q 240 574 268 574 q 207 571 223 574 q 174 564 190 568 q 328 663 251 613 q 488 751 406 713 l 374 185 q 370 151 370 166 z "},"ˆ":{"ha":812,"x_min":509,"x_max":1023,"o":"m 1023 1039 q 991 1015 1013 1031 q 943 982 969 999 q 895 951 917 964 q 862 937 873 939 q 800 1013 828 972 q 743 1094 772 1054 q 707 1065 726 1080 q 671 1036 689 1050 q 590 988 633 1006 q 509 939 546 970 q 566 986 528 954 q 653 1056 605 1017 q 750 1129 702 1094 q 837 1190 799 1165 q 892 1217 875 1214 q 961 1130 930 1176 q 1023 1039 991 1084 z "},"˜":{"ha":812,"x_min":509,"x_max":1237,"o":"m 1237 1123 q 1139 1040 1194 1081 q 1023 971 1084 999 q 899 944 962 944 q 837 958 860 944 q 797 990 814 972 q 757 1022 779 1008 q 698 1036 735 1036 q 656 1024 682 1036 q 602 997 631 1013 q 549 965 574 981 q 509 939 524 949 q 607 1033 549 987 q 730 1108 665 1078 q 861 1138 796 1138 q 911 1124 890 1138 q 954 1092 932 1110 q 1001 1059 975 1073 q 1069 1045 1028 1045 q 1124 1059 1093 1045 q 1186 1092 1156 1074 q 1237 1123 1216 1111 z "},"˘":{"ha":812,"x_min":579,"x_max":1173,"o":"m 1173 1215 q 1118 1115 1162 1164 q 1011 1023 1073 1065 q 885 957 949 982 q 772 932 821 932 q 656 975 701 932 q 588 1080 610 1017 q 582 1097 585 1088 q 579 1114 579 1105 q 601 1137 579 1123 q 652 1165 623 1150 q 709 1193 682 1179 q 745 1215 735 1206 q 775 1131 753 1173 q 830 1060 796 1088 q 913 1031 865 1031 q 970 1060 951 1031 q 1008 1114 989 1088 q 1057 1154 1027 1140 q 1118 1180 1087 1168 q 1173 1215 1149 1193 z "},"˙":{"ha":812,"x_min":548,"x_max":804,"o":"m 804 1031 l 640 928 l 548 1036 l 712 1137 l 804 1031 z "},"˚":{"ha":778,"x_min":539,"x_max":1023,"o":"m 671 873 q 581 903 622 873 q 539 987 539 933 q 564 1069 539 1027 q 629 1148 589 1110 q 717 1216 669 1186 q 812 1263 765 1246 q 895 1280 859 1280 q 984 1245 946 1280 q 1023 1158 1023 1211 q 998 1079 1023 1120 q 933 1002 973 1039 q 847 936 894 965 q 753 890 800 907 q 671 873 707 873 m 741 1179 q 719 1164 726 1179 q 709 1131 711 1149 q 707 1101 707 1112 q 741 1008 707 1044 q 833 972 776 972 q 851 1012 844 991 q 858 1055 858 1032 q 826 1142 858 1105 q 741 1179 793 1179 z "},"¸":{"ha":812,"x_min":54,"x_max":395,"o":"m 226 -81 q 257 -71 239 -73 q 291 -69 275 -69 q 342 -79 315 -69 q 370 -120 370 -90 q 345 -178 370 -148 q 281 -239 320 -209 q 198 -296 241 -269 q 115 -343 154 -322 q 54 -375 77 -363 q 116 -333 80 -353 q 179 -286 152 -313 q 206 -218 206 -259 q 181 -177 206 -186 q 132 -168 157 -168 q 96 -172 114 -168 q 62 -180 79 -176 q 168 -94 113 -140 q 281 -6 224 -48 q 395 66 339 37 l 226 -81 z "},"˝":{"ha":812,"x_min":509,"x_max":1139,"o":"m 1139 1273 q 1013 1147 1086 1213 q 862 1023 941 1081 q 711 932 783 966 l 712 941 q 809 1010 766 970 q 893 1093 852 1050 q 978 1177 934 1137 q 1025 1211 996 1193 q 1086 1245 1055 1229 q 1139 1273 1117 1261 m 937 1273 q 811 1147 884 1213 q 660 1023 739 1080 q 509 932 581 965 l 510 941 q 621 1020 569 975 q 720 1116 673 1066 q 747 1146 734 1131 q 777 1177 761 1162 q 853 1229 808 1206 q 937 1273 899 1253 z "},"˛":{"ha":812,"x_min":49,"x_max":468,"o":"m 468 -190 q 429 -225 458 -204 q 359 -268 399 -245 q 277 -309 319 -290 q 201 -340 235 -328 q 149 -352 167 -352 q 76 -318 102 -352 q 49 -241 49 -285 q 77 -149 49 -193 q 148 -67 104 -105 q 238 -2 191 -30 q 326 40 286 26 q 273 -9 300 20 q 228 -71 246 -37 q 210 -139 210 -104 q 242 -217 210 -184 q 319 -250 274 -250 q 396 -227 359 -250 q 468 -190 433 -205 z "},"ˇ":{"ha":812,"x_min":579,"x_max":1093,"o":"m 1093 1213 q 1037 1167 1076 1198 q 950 1097 998 1135 q 853 1024 901 1059 q 768 964 806 988 q 713 937 730 939 q 642 1022 672 975 q 579 1114 611 1068 q 612 1138 589 1122 q 660 1171 634 1154 q 708 1201 686 1188 q 741 1217 730 1215 q 802 1139 774 1180 q 859 1057 830 1098 q 895 1087 877 1072 q 932 1117 913 1102 q 962 1136 945 1128 q 994 1153 979 1145 q 1045 1181 1019 1167 q 1093 1213 1071 1196 z "},"Š":{"ha":806,"x_min":32,"x_max":1042,"o":"m 1042 1415 q 985 1369 1024 1400 q 898 1299 947 1337 q 802 1225 850 1261 q 715 1165 753 1190 q 661 1138 677 1141 q 590 1224 622 1178 q 528 1316 559 1270 q 561 1340 538 1324 q 609 1373 583 1356 q 657 1403 635 1390 q 690 1418 680 1416 q 752 1340 724 1381 q 808 1259 780 1299 l 882 1319 q 962 1367 919 1348 q 1042 1415 1005 1385 m 949 1046 q 923 1011 949 1034 q 861 966 897 989 q 792 925 825 943 q 747 901 760 907 q 769 921 757 907 q 781 947 781 934 q 760 969 781 960 q 708 983 738 978 q 652 991 678 989 q 615 993 625 993 q 501 977 554 993 q 414 921 448 960 q 380 811 380 881 q 407 723 380 758 q 477 666 433 688 q 572 627 520 644 q 676 594 624 611 q 771 555 728 578 q 841 497 814 532 q 867 406 867 461 q 826 265 867 330 q 717 147 785 199 q 569 58 650 95 q 408 1 488 21 q 263 -18 328 -18 q 205 -13 243 -18 q 127 3 168 -8 q 60 33 87 14 q 32 77 32 51 q 56 125 32 100 q 115 172 80 149 q 184 212 151 194 q 236 239 218 229 q 212 212 222 228 q 202 178 202 195 q 231 131 202 149 q 300 103 259 113 q 379 89 340 93 q 438 85 418 85 q 566 106 504 85 q 667 174 627 127 q 707 295 707 220 q 671 397 707 358 q 579 463 635 437 q 460 509 524 488 q 341 553 397 530 q 250 612 286 577 q 214 704 214 648 q 255 822 214 764 q 361 928 296 879 q 503 1016 427 978 q 651 1074 579 1053 q 776 1095 724 1095 q 815 1093 787 1095 q 874 1085 843 1090 q 927 1070 905 1079 q 949 1046 949 1061 z "},"š":{"ha":627,"x_min":54,"x_max":856,"o":"m 856 1044 q 799 997 838 1029 q 711 928 760 966 q 614 854 663 890 q 528 794 566 818 q 473 766 490 770 q 404 853 435 807 q 341 944 373 899 q 374 968 352 952 q 422 1001 396 984 q 470 1031 448 1019 q 503 1046 492 1044 q 564 969 536 1010 q 621 887 592 928 q 657 917 639 902 q 694 947 675 932 q 774 996 730 977 q 856 1044 818 1015 m 506 580 q 515 587 510 583 q 524 606 524 596 q 503 627 524 620 q 457 636 482 633 q 422 638 433 638 q 355 618 380 638 q 330 553 330 599 q 353 494 330 516 q 410 458 375 472 q 486 433 446 445 q 561 407 526 422 q 619 366 596 391 q 642 299 642 341 q 610 199 642 247 q 528 112 578 152 q 417 43 477 73 q 298 -2 357 14 q 195 -18 240 -18 q 143 -13 177 -18 q 81 7 109 -7 q 54 45 54 21 q 76 87 54 67 q 130 123 98 106 q 192 155 161 140 q 237 184 222 170 q 223 166 229 176 q 218 144 218 155 q 237 114 218 125 q 283 96 256 102 q 336 87 310 90 q 375 85 361 85 q 448 112 422 85 q 475 185 475 138 q 452 249 475 224 q 395 290 430 274 q 321 320 360 307 q 247 349 282 333 q 190 387 212 364 q 168 445 168 409 q 198 528 168 486 q 279 608 229 570 q 385 676 328 646 q 494 722 441 705 q 584 739 547 739 q 621 737 597 739 q 665 728 644 735 q 690 704 685 720 q 668 677 684 686 q 637 659 653 667 q 575 625 606 643 q 515 587 543 608 q 506 580 511 582 z "},"Ý":{"ha":1137,"x_min":198,"x_max":1286,"o":"m 783 465 q 761 337 773 403 q 726 211 749 272 q 659 101 703 150 l 897 101 q 842 68 872 93 q 782 22 811 43 q 732 0 753 0 l 472 0 q 545 86 517 41 q 585 191 572 130 l 623 381 q 625 408 625 393 q 614 492 625 446 q 591 574 603 537 q 560 655 581 604 q 510 765 539 706 q 445 876 480 823 q 372 963 410 929 q 297 996 334 996 q 245 985 272 996 q 198 960 218 973 q 272 1020 229 990 q 363 1069 315 1050 q 456 1089 412 1089 q 535 1057 496 1089 q 608 971 573 1025 q 673 854 643 918 q 727 726 703 790 q 765 608 750 662 q 785 520 781 553 q 855 577 813 542 q 943 654 897 612 q 1028 743 988 697 q 1094 832 1068 788 q 1119 913 1119 876 q 1097 970 1119 949 q 1039 991 1075 991 q 998 987 1019 991 q 1049 1013 1027 996 q 1092 1049 1071 1031 q 1139 1081 1114 1068 q 1202 1094 1165 1094 q 1261 1075 1236 1094 q 1286 1019 1286 1055 q 1257 935 1286 983 q 1181 833 1228 887 q 1077 725 1133 779 q 963 620 1020 670 q 859 530 907 570 q 783 465 812 490 m 1215 1432 q 1089 1305 1162 1372 q 938 1181 1017 1239 q 787 1090 859 1124 l 788 1099 q 899 1179 847 1133 q 998 1274 951 1225 q 1025 1305 1012 1289 q 1055 1335 1039 1321 q 1132 1388 1086 1364 q 1215 1432 1177 1411 z "},"ý":{"ha":963,"x_min":73,"x_max":997,"o":"m 194 -454 q 149 -449 178 -454 q 96 -432 120 -444 q 73 -398 73 -420 q 96 -361 73 -381 q 153 -320 119 -340 q 217 -284 186 -300 q 262 -257 248 -267 q 246 -274 254 -263 q 238 -296 238 -286 q 263 -330 238 -317 q 318 -348 288 -342 q 364 -353 349 -353 q 473 -321 427 -353 q 552 -235 519 -288 q 608 -119 585 -182 q 645 5 630 -56 q 669 113 659 66 q 496 26 588 66 q 308 -14 404 -14 q 192 18 238 -14 q 146 124 146 49 q 153 179 146 150 l 206 450 q 215 498 212 473 q 219 547 219 522 q 207 604 219 578 q 157 630 195 630 q 128 627 142 630 q 100 620 114 624 q 170 669 132 643 q 248 714 207 696 q 329 733 288 733 q 379 711 366 733 q 393 657 393 690 q 388 606 393 631 q 377 554 382 580 q 353 441 366 498 q 330 329 340 385 q 321 279 325 304 q 317 229 317 254 q 343 139 317 169 q 414 99 370 109 q 509 89 458 89 q 600 108 554 89 q 678 159 646 127 l 755 532 q 759 553 758 543 q 760 574 760 564 q 752 611 760 595 q 719 627 743 627 q 683 620 703 627 q 742 663 706 637 q 815 708 777 688 q 882 728 853 728 q 915 719 899 728 q 930 689 930 709 q 928 680 930 684 q 883 452 906 566 q 838 225 861 338 q 781 39 820 135 q 684 -144 742 -56 q 552 -302 627 -232 q 387 -413 477 -372 q 194 -454 297 -454 m 997 1154 q 871 1027 943 1094 q 720 903 798 961 q 568 812 641 846 l 570 821 q 681 901 629 855 q 779 996 732 947 q 807 1027 793 1011 q 836 1057 821 1043 q 913 1110 867 1086 q 997 1154 959 1133 z "},"Ä":{"ha":1354,"x_min":-36,"x_max":1351,"o":"m 1080 -14 q 1026 12 1038 -14 q 1008 71 1014 37 q 972 249 990 159 q 933 426 955 338 q 829 409 889 415 q 707 400 770 403 q 590 396 645 397 q 498 395 534 395 q 459 396 479 395 q 419 396 439 396 q 278 246 352 318 q 132 101 204 174 q 270 105 199 101 q 403 142 342 109 q 288 69 335 97 q 198 26 241 41 q 100 5 155 11 q -36 0 45 0 q 215 260 96 123 q 451 536 334 397 q 620 733 534 635 q 781 937 705 831 q 794 956 787 946 q 808 973 800 965 q 667 970 736 973 q 530 943 599 968 q 636 1015 590 988 q 726 1054 682 1041 q 823 1072 770 1067 q 949 1076 876 1076 l 975 1076 q 1088 634 1037 849 q 1172 185 1140 419 q 1188 120 1177 149 q 1244 92 1199 92 q 1299 102 1271 92 q 1351 125 1328 112 q 1293 86 1326 109 q 1220 40 1259 62 q 1145 2 1182 17 q 1080 -14 1109 -14 m 753 497 q 833 497 793 497 q 915 498 874 497 l 914 500 l 810 886 q 660 693 735 789 q 507 501 584 596 l 509 501 q 631 499 570 501 q 753 497 692 497 m 1202 1190 l 1038 1087 l 946 1194 l 1110 1295 l 1202 1190 m 861 1190 l 697 1087 l 605 1194 l 769 1295 l 861 1190 z "},"Å":{"ha":1354,"x_min":-36,"x_max":1351,"o":"m 1080 -14 q 1026 12 1038 -14 q 1008 71 1014 37 q 972 249 990 159 q 933 426 955 338 q 829 409 889 415 q 707 400 770 403 q 590 396 645 397 q 498 395 534 395 q 459 396 479 395 q 419 396 439 396 q 278 246 352 318 q 132 101 204 174 q 270 105 199 101 q 403 142 342 109 q 288 69 335 97 q 198 26 241 41 q 100 5 155 11 q -36 0 45 0 q 215 260 96 123 q 451 536 334 397 q 620 733 534 635 q 781 937 705 831 q 794 956 787 946 q 808 973 800 965 q 667 970 736 973 q 530 943 599 968 q 636 1015 590 988 q 726 1054 682 1041 q 823 1072 770 1067 q 949 1076 876 1076 l 975 1076 q 1088 634 1037 849 q 1172 185 1140 419 q 1188 120 1177 149 q 1244 92 1199 92 q 1299 102 1271 92 q 1351 125 1328 112 q 1293 86 1326 109 q 1220 40 1259 62 q 1145 2 1182 17 q 1080 -14 1109 -14 m 753 497 q 833 497 793 497 q 915 498 874 497 l 914 500 l 810 886 q 660 693 735 789 q 507 501 584 596 l 509 501 q 631 499 570 501 q 753 497 692 497 m 814 1032 q 723 1062 764 1032 q 682 1146 682 1092 q 706 1227 682 1186 q 771 1307 731 1269 q 860 1375 812 1345 q 954 1422 907 1404 q 1038 1439 1001 1439 q 1127 1404 1088 1439 q 1165 1317 1165 1369 q 1140 1238 1165 1278 q 1076 1161 1116 1198 q 989 1095 1036 1124 q 896 1049 942 1066 q 814 1032 850 1032 m 884 1338 q 861 1323 869 1338 q 851 1290 854 1308 q 849 1260 849 1271 q 884 1167 849 1202 q 976 1131 918 1131 q 994 1171 987 1150 q 1000 1214 1000 1191 q 968 1301 1000 1263 q 884 1338 936 1338 z "},"Ç":{"ha":949,"x_min":106,"x_max":1190,"o":"m 1190 1054 q 1163 1029 1190 1048 q 1098 987 1135 1010 q 1028 946 1061 964 q 986 922 996 928 q 1006 938 990 926 q 1021 955 1021 950 q 993 976 1021 967 q 925 990 964 985 q 852 999 886 996 q 806 1002 817 1002 q 526 934 646 1002 q 341 745 407 866 q 275 464 275 624 q 314 266 275 355 q 430 124 353 177 q 625 72 508 72 q 739 85 677 72 q 861 118 801 98 q 970 157 922 138 q 816 60 903 102 q 634 -7 728 17 q 452 -32 539 -32 q 264 17 341 -32 q 146 149 186 65 q 106 340 106 233 q 158 584 106 469 q 298 794 210 699 q 500 959 387 890 q 736 1067 612 1029 q 981 1105 861 1105 q 1025 1102 992 1105 q 1097 1092 1059 1099 q 1162 1076 1135 1086 q 1190 1054 1190 1067 m 476 -81 q 508 -71 490 -73 q 541 -69 526 -69 q 592 -79 565 -69 q 620 -120 620 -90 q 595 -178 620 -148 q 531 -239 570 -209 q 448 -296 492 -269 q 366 -343 404 -322 q 304 -375 327 -363 q 366 -333 330 -353 q 429 -286 402 -313 q 456 -218 456 -259 q 432 -177 456 -186 q 382 -168 407 -168 q 347 -172 364 -168 q 312 -180 329 -176 q 418 -94 363 -140 q 532 -6 474 -48 q 646 66 589 37 l 476 -81 z "},"É":{"ha":1021,"x_min":160,"x_max":1229,"o":"m 1229 1076 q 1165 1042 1202 1067 q 1094 995 1129 1017 q 1036 973 1059 973 l 569 973 l 494 610 l 1021 610 q 977 591 1002 606 q 935 564 952 576 q 900 543 921 555 q 857 519 878 530 q 819 509 835 509 l 474 509 l 426 267 q 410 208 421 243 q 382 142 399 173 q 342 101 366 112 l 900 101 q 982 115 935 101 q 1064 141 1029 130 q 1007 104 1048 127 q 919 57 967 81 q 829 17 871 33 q 769 0 788 0 l 160 0 q 236 108 212 55 q 274 234 259 161 l 329 509 l 225 509 l 347 591 l 423 973 l 284 973 q 320 997 294 981 q 375 1031 345 1013 q 430 1063 405 1050 q 464 1076 454 1076 l 1229 1076 m 1158 1432 q 1031 1305 1104 1372 q 880 1181 959 1239 q 729 1090 802 1124 l 730 1099 q 841 1179 789 1133 q 940 1274 893 1225 q 968 1305 954 1289 q 997 1335 981 1321 q 1074 1388 1028 1364 q 1158 1432 1120 1411 z "},"Ñ":{"ha":1430,"x_min":209,"x_max":1580,"o":"m 1580 1076 q 1525 1043 1550 1063 q 1475 1003 1500 1023 q 1418 975 1449 983 q 1324 559 1377 762 q 1195 155 1272 357 q 1180 115 1187 135 q 1160 77 1172 94 q 1124 40 1148 59 q 1073 4 1099 21 q 1027 -26 1046 -14 q 1015 58 1027 23 q 979 134 1003 92 q 905 264 941 199 q 834 395 870 330 q 699 633 768 515 q 553 863 630 751 l 467 435 q 432 266 450 352 q 379 101 413 179 l 621 101 q 587 79 610 95 q 535 44 563 62 q 484 13 507 26 q 454 0 461 0 l 209 0 q 307 167 277 76 q 356 355 336 258 q 414 663 387 509 q 465 973 442 818 l 294 973 q 327 997 304 980 q 378 1031 351 1013 q 429 1063 406 1050 q 460 1076 452 1076 l 742 1076 q 703 1053 721 1066 q 667 1025 686 1039 q 922 644 804 841 q 1147 245 1039 447 q 1200 419 1174 332 q 1245 596 1227 507 q 1279 784 1264 690 q 1307 973 1295 878 l 1133 973 q 1166 997 1143 980 q 1217 1031 1190 1013 q 1267 1063 1244 1050 q 1299 1076 1290 1076 l 1580 1076 m 1407 1282 q 1309 1199 1364 1240 q 1193 1130 1255 1158 q 1069 1103 1132 1103 q 1007 1117 1030 1103 q 967 1148 984 1131 q 927 1180 949 1166 q 868 1194 905 1194 q 827 1183 852 1194 q 772 1156 801 1172 q 719 1123 744 1139 q 680 1098 694 1107 q 777 1191 719 1145 q 901 1267 835 1237 q 1031 1297 966 1297 q 1081 1283 1060 1297 q 1124 1250 1103 1269 q 1172 1218 1145 1232 q 1239 1204 1198 1204 q 1295 1218 1263 1204 q 1356 1251 1326 1232 q 1407 1282 1386 1270 z "},"Ö":{"ha":1088,"x_min":151,"x_max":1143,"o":"m 465 -61 q 288 -16 358 -61 q 184 109 218 30 q 151 289 151 188 q 155 366 151 328 q 167 442 159 404 q 262 701 194 576 q 364 848 304 775 q 498 979 424 920 q 658 1073 573 1038 q 833 1107 743 1107 q 1004 1056 935 1107 q 1108 923 1073 1005 q 1143 747 1143 840 q 1140 687 1143 717 q 1131 629 1137 658 q 1088 487 1117 557 q 1021 355 1059 418 q 921 215 981 288 q 787 80 861 142 q 631 -22 713 17 q 465 -61 549 -61 m 697 1004 q 547 962 611 1004 q 439 853 484 921 q 368 703 395 785 q 328 540 340 622 q 315 391 315 458 q 341 218 315 298 q 429 87 368 137 q 595 38 490 38 q 736 81 674 38 q 842 192 798 124 q 915 336 887 260 q 957 477 943 412 q 971 566 966 521 q 976 655 976 610 q 949 825 976 745 q 861 954 922 905 q 697 1004 800 1004 m 1134 1190 l 970 1087 l 878 1194 l 1042 1295 l 1134 1190 m 793 1190 l 629 1087 l 536 1194 l 701 1295 l 793 1190 z "},"Ü":{"ha":1356,"x_min":229,"x_max":1518,"o":"m 1518 1076 q 1462 1042 1493 1066 q 1402 996 1432 1017 q 1351 975 1373 975 l 1295 975 l 1158 291 q 1123 189 1147 241 q 1060 102 1098 136 l 1306 102 q 1251 68 1282 94 q 1191 22 1220 43 q 1141 0 1161 0 l 895 0 q 952 74 929 37 q 986 161 976 110 q 835 74 914 115 q 672 6 756 33 q 500 -20 588 -20 q 302 34 376 -20 q 229 220 229 87 q 233 287 229 253 q 244 353 237 320 l 368 975 l 243 975 q 276 998 253 981 q 327 1032 300 1014 q 377 1063 354 1050 q 409 1076 400 1076 l 721 1076 q 666 1042 696 1066 q 605 996 635 1017 q 553 975 575 975 l 514 975 q 455 686 486 830 q 397 396 424 541 q 391 357 393 376 q 389 318 389 338 q 427 181 389 233 q 530 106 466 130 q 671 83 594 83 q 780 98 721 83 q 895 137 838 113 q 991 188 951 161 l 1150 975 l 1011 975 q 1043 998 1020 981 q 1095 1032 1067 1014 q 1145 1063 1122 1050 q 1177 1076 1168 1076 l 1518 1076 m 1297 1190 l 1133 1087 l 1040 1194 l 1204 1295 l 1297 1190 m 956 1190 l 791 1087 l 699 1194 l 863 1295 l 956 1190 z "},"á":{"ha":928,"x_min":139,"x_max":1000,"o":"m 757 156 q 776 105 757 120 q 830 90 795 90 q 875 95 853 90 q 811 47 846 73 q 740 5 777 22 q 664 -12 703 -12 q 611 -1 631 -12 q 590 47 590 11 q 592 73 590 60 q 596 98 593 85 q 519 47 559 74 q 437 3 479 21 q 348 -16 394 -16 q 192 41 245 -16 q 139 199 139 98 q 183 398 139 302 q 303 572 227 495 q 474 695 378 650 q 673 741 570 741 q 769 726 723 741 q 863 698 816 711 l 763 207 q 759 182 760 195 q 757 156 757 169 m 684 532 q 524 641 640 641 q 421 602 464 641 q 352 504 379 563 q 313 381 326 444 q 300 272 300 319 q 345 133 300 181 q 481 85 389 85 q 529 97 500 85 q 582 125 557 108 q 610 162 606 142 l 684 532 m 1000 1154 q 874 1027 947 1094 q 723 903 802 961 q 572 812 644 846 l 573 821 q 684 901 632 855 q 783 996 736 947 q 810 1027 797 1011 q 840 1057 824 1043 q 917 1110 871 1086 q 1000 1154 962 1133 z "},"à":{"ha":928,"x_min":139,"x_max":875,"o":"m 757 156 q 776 105 757 120 q 830 90 795 90 q 875 95 853 90 q 811 47 846 73 q 740 5 777 22 q 664 -12 703 -12 q 611 -1 631 -12 q 590 47 590 11 q 592 73 590 60 q 596 98 593 85 q 519 47 559 74 q 437 3 479 21 q 348 -16 394 -16 q 192 41 245 -16 q 139 199 139 98 q 183 398 139 302 q 303 572 227 495 q 474 695 378 650 q 673 741 570 741 q 769 726 723 741 q 863 698 816 711 l 763 207 q 759 182 760 195 q 757 156 757 169 m 684 532 q 524 641 640 641 q 421 602 464 641 q 352 504 379 563 q 313 381 326 444 q 300 272 300 319 q 345 133 300 181 q 481 85 389 85 q 529 97 500 85 q 582 125 557 108 q 610 162 606 142 l 684 532 m 836 920 q 786 885 819 908 q 720 842 753 862 q 671 817 688 821 q 565 922 608 859 q 495 1054 523 985 q 524 1076 500 1060 q 577 1110 547 1092 q 630 1142 606 1128 q 660 1155 654 1155 q 664 1151 664 1155 q 664 1144 665 1147 q 732 1017 688 1079 q 836 920 777 956 z "},"â":{"ha":928,"x_min":139,"x_max":958,"o":"m 757 156 q 776 105 757 120 q 830 90 795 90 q 875 95 853 90 q 811 47 846 73 q 740 5 777 22 q 664 -12 703 -12 q 611 -1 631 -12 q 590 47 590 11 q 592 73 590 60 q 596 98 593 85 q 519 47 559 74 q 437 3 479 21 q 348 -16 394 -16 q 192 41 245 -16 q 139 199 139 98 q 183 398 139 302 q 303 572 227 495 q 474 695 378 650 q 673 741 570 741 q 769 726 723 741 q 863 698 816 711 l 763 207 q 759 182 760 195 q 757 156 757 169 m 684 532 q 524 641 640 641 q 421 602 464 641 q 352 504 379 563 q 313 381 326 444 q 300 272 300 319 q 345 133 300 181 q 481 85 389 85 q 529 97 500 85 q 582 125 557 108 q 610 162 606 142 l 684 532 m 958 920 q 925 896 947 911 q 877 862 903 880 q 829 832 851 845 q 796 817 807 819 q 734 894 762 853 q 677 975 706 935 q 642 945 660 960 q 605 916 623 930 q 524 869 568 887 q 444 820 480 850 q 500 866 462 835 q 588 936 539 898 q 685 1010 636 975 q 771 1070 733 1046 q 826 1097 809 1095 q 895 1010 864 1057 q 958 920 926 964 z "},"ä":{"ha":928,"x_min":139,"x_max":970,"o":"m 757 156 q 776 105 757 120 q 830 90 795 90 q 875 95 853 90 q 811 47 846 73 q 740 5 777 22 q 664 -12 703 -12 q 611 -1 631 -12 q 590 47 590 11 q 592 73 590 60 q 596 98 593 85 q 519 47 559 74 q 437 3 479 21 q 348 -16 394 -16 q 192 41 245 -16 q 139 199 139 98 q 183 398 139 302 q 303 572 227 495 q 474 695 378 650 q 673 741 570 741 q 769 726 723 741 q 863 698 816 711 l 763 207 q 759 182 760 195 q 757 156 757 169 m 684 532 q 524 641 640 641 q 421 602 464 641 q 352 504 379 563 q 313 381 326 444 q 300 272 300 319 q 345 133 300 181 q 481 85 389 85 q 529 97 500 85 q 582 125 557 108 q 610 162 606 142 l 684 532 m 970 912 l 806 809 l 714 916 l 878 1017 l 970 912 m 629 912 l 465 809 l 373 916 l 537 1017 l 629 912 z "},"ã":{"ha":928,"x_min":139,"x_max":1073,"o":"m 757 156 q 776 105 757 120 q 830 90 795 90 q 875 95 853 90 q 811 47 846 73 q 740 5 777 22 q 664 -12 703 -12 q 611 -1 631 -12 q 590 47 590 11 q 592 73 590 60 q 596 98 593 85 q 519 47 559 74 q 437 3 479 21 q 348 -16 394 -16 q 192 41 245 -16 q 139 199 139 98 q 183 398 139 302 q 303 572 227 495 q 474 695 378 650 q 673 741 570 741 q 769 726 723 741 q 863 698 816 711 l 763 207 q 759 182 760 195 q 757 156 757 169 m 684 532 q 524 641 640 641 q 421 602 464 641 q 352 504 379 563 q 313 381 326 444 q 300 272 300 319 q 345 133 300 181 q 481 85 389 85 q 529 97 500 85 q 582 125 557 108 q 610 162 606 142 l 684 532 m 1073 1004 q 975 921 1029 962 q 859 852 920 880 q 734 825 798 825 q 673 839 696 825 q 632 870 650 852 q 593 902 615 888 q 534 916 571 916 q 492 905 518 916 q 438 878 467 894 q 385 845 410 861 q 345 820 359 829 q 443 913 385 867 q 566 989 500 959 q 696 1019 632 1019 q 747 1005 726 1019 q 789 972 768 991 q 837 940 810 954 q 905 926 864 926 q 960 940 929 926 q 1022 973 991 954 q 1073 1004 1052 991 z "},"å":{"ha":928,"x_min":139,"x_max":933,"o":"m 757 156 q 776 105 757 120 q 830 90 795 90 q 875 95 853 90 q 811 47 846 73 q 740 5 777 22 q 664 -12 703 -12 q 611 -1 631 -12 q 590 47 590 11 q 592 73 590 60 q 596 98 593 85 q 519 47 559 74 q 437 3 479 21 q 348 -16 394 -16 q 192 41 245 -16 q 139 199 139 98 q 183 398 139 302 q 303 572 227 495 q 474 695 378 650 q 673 741 570 741 q 769 726 723 741 q 863 698 816 711 l 763 207 q 759 182 760 195 q 757 156 757 169 m 684 532 q 524 641 640 641 q 421 602 464 641 q 352 504 379 563 q 313 381 326 444 q 300 272 300 319 q 345 133 300 181 q 481 85 389 85 q 529 97 500 85 q 582 125 557 108 q 610 162 606 142 l 684 532 m 582 754 q 491 784 532 754 q 450 868 450 814 q 474 949 450 908 q 539 1029 499 991 q 628 1097 580 1067 q 722 1144 675 1126 q 806 1161 769 1161 q 895 1126 857 1161 q 933 1039 933 1091 q 908 960 933 1000 q 844 883 884 920 q 757 817 804 846 q 664 771 710 788 q 582 754 618 754 m 652 1060 q 629 1045 637 1060 q 620 1011 622 1030 q 617 982 617 993 q 652 889 617 924 q 744 852 686 853 q 762 892 755 872 q 768 936 768 913 q 736 1023 768 985 q 652 1060 704 1060 z "},"ç":{"ha":759,"x_min":142,"x_max":872,"o":"m 689 578 q 700 589 692 581 q 708 602 708 597 q 689 623 708 613 q 642 639 669 632 q 590 649 614 646 q 556 653 566 653 q 446 623 492 653 q 369 543 399 592 q 325 435 339 493 q 310 322 310 377 q 375 148 310 206 q 554 90 441 90 q 647 102 601 90 q 734 135 692 114 q 629 61 688 94 q 504 7 569 27 q 377 -12 439 -12 q 207 48 273 -12 q 142 215 142 109 q 177 371 142 294 q 273 517 213 448 q 409 639 333 586 q 565 722 484 692 q 722 753 646 753 q 756 750 732 753 q 807 741 781 747 q 853 726 834 735 q 872 703 872 716 q 849 672 872 692 q 792 632 825 653 q 730 596 760 612 q 689 578 701 581 m 380 -81 q 412 -71 394 -73 q 446 -69 430 -69 q 497 -79 469 -69 q 524 -120 524 -90 q 499 -178 524 -148 q 435 -239 475 -209 q 352 -296 396 -269 q 270 -343 309 -322 q 208 -375 231 -363 q 271 -333 235 -353 q 334 -286 307 -313 q 361 -218 361 -259 q 336 -177 361 -186 q 286 -168 311 -168 q 251 -172 269 -168 q 216 -180 233 -176 q 323 -94 267 -140 q 436 -6 378 -48 q 550 66 494 37 l 380 -81 z "},"é":{"ha":752,"x_min":108,"x_max":871,"o":"m 269 279 q 310 167 273 208 q 403 108 347 126 q 522 90 460 90 q 634 103 578 90 q 743 138 691 117 q 628 60 694 94 q 492 8 563 26 q 355 -11 421 -11 q 231 20 287 -11 q 141 105 175 51 q 108 228 108 159 q 113 274 108 252 q 167 404 126 341 q 266 522 208 467 q 388 619 323 577 q 512 686 452 661 q 617 721 563 708 q 728 733 672 733 q 801 710 768 733 q 834 642 834 686 q 802 565 834 604 q 715 491 769 527 q 598 423 662 455 q 471 363 534 391 q 354 314 407 335 q 269 279 300 292 m 537 627 q 388 583 446 627 q 301 467 330 538 q 269 315 272 396 q 339 337 292 320 q 443 378 387 353 q 551 432 500 403 q 636 490 603 460 q 670 545 670 519 q 646 591 670 572 q 591 618 623 610 q 537 627 559 627 m 871 1154 q 745 1027 817 1094 q 593 903 672 961 q 442 812 515 846 l 444 821 q 554 901 503 855 q 653 996 606 947 q 681 1027 667 1011 q 710 1057 694 1043 q 787 1110 741 1086 q 871 1154 833 1133 z "},"è":{"ha":752,"x_min":108,"x_max":834,"o":"m 269 279 q 310 167 273 208 q 403 108 347 126 q 522 90 460 90 q 634 103 578 90 q 743 138 691 117 q 628 60 694 94 q 492 8 563 26 q 355 -11 421 -11 q 231 20 287 -11 q 141 105 175 51 q 108 228 108 159 q 113 274 108 252 q 167 404 126 341 q 266 522 208 467 q 388 619 323 577 q 512 686 452 661 q 617 721 563 708 q 728 733 672 733 q 801 710 768 733 q 834 642 834 686 q 802 565 834 604 q 715 491 769 527 q 598 423 662 455 q 471 363 534 391 q 354 314 407 335 q 269 279 300 292 m 537 627 q 388 583 446 627 q 301 467 330 538 q 269 315 272 396 q 339 337 292 320 q 443 378 387 353 q 551 432 500 403 q 636 490 603 460 q 670 545 670 519 q 646 591 670 572 q 591 618 623 610 q 537 627 559 627 m 707 920 q 656 885 690 908 q 591 842 623 862 q 541 817 558 821 q 436 922 478 859 q 366 1054 393 985 q 394 1076 370 1060 q 447 1110 418 1092 q 501 1142 477 1128 q 530 1155 525 1155 q 535 1151 534 1155 q 534 1144 535 1147 q 603 1017 558 1079 q 707 920 647 956 z "},"ê":{"ha":752,"x_min":108,"x_max":834,"o":"m 269 279 q 310 167 273 208 q 403 108 347 126 q 522 90 460 90 q 634 103 578 90 q 743 138 691 117 q 628 60 694 94 q 492 8 563 26 q 355 -11 421 -11 q 231 20 287 -11 q 141 105 175 51 q 108 228 108 159 q 113 274 108 252 q 167 404 126 341 q 266 522 208 467 q 388 619 323 577 q 512 686 452 661 q 617 721 563 708 q 728 733 672 733 q 801 710 768 733 q 834 642 834 686 q 802 565 834 604 q 715 491 769 527 q 598 423 662 455 q 471 363 534 391 q 354 314 407 335 q 269 279 300 292 m 537 627 q 388 583 446 627 q 301 467 330 538 q 269 315 272 396 q 339 337 292 320 q 443 378 387 353 q 551 432 500 403 q 636 490 603 460 q 670 545 670 519 q 646 591 670 572 q 591 618 623 610 q 537 627 559 627 m 828 920 q 796 896 818 911 q 748 862 774 880 q 700 832 722 845 q 667 817 677 819 q 605 894 633 853 q 548 975 576 935 q 512 945 530 960 q 475 916 494 930 q 394 869 438 887 q 314 820 351 850 q 371 866 332 835 q 458 936 410 898 q 555 1010 507 975 q 642 1070 604 1046 q 696 1097 680 1095 q 765 1010 734 1057 q 828 920 796 964 z "},"ë":{"ha":752,"x_min":108,"x_max":841,"o":"m 269 279 q 310 167 273 208 q 403 108 347 126 q 522 90 460 90 q 634 103 578 90 q 743 138 691 117 q 628 60 694 94 q 492 8 563 26 q 355 -11 421 -11 q 231 20 287 -11 q 141 105 175 51 q 108 228 108 159 q 113 274 108 252 q 167 404 126 341 q 266 522 208 467 q 388 619 323 577 q 512 686 452 661 q 617 721 563 708 q 728 733 672 733 q 801 710 768 733 q 834 642 834 686 q 802 565 834 604 q 715 491 769 527 q 598 423 662 455 q 471 363 534 391 q 354 314 407 335 q 269 279 300 292 m 537 627 q 388 583 446 627 q 301 467 330 538 q 269 315 272 396 q 339 337 292 320 q 443 378 387 353 q 551 432 500 403 q 636 490 603 460 q 670 545 670 519 q 646 591 670 572 q 591 618 623 610 q 537 627 559 627 m 841 912 l 677 809 l 585 916 l 749 1017 l 841 912 m 500 912 l 336 809 l 243 916 l 408 1017 l 500 912 z "},"í":{"ha":523,"x_min":174,"x_max":798,"o":"m 370 151 q 395 99 370 111 q 455 87 420 87 q 503 92 480 87 q 438 45 473 70 q 367 4 404 21 q 291 -14 330 -14 q 229 1 252 -14 q 205 58 205 16 q 207 81 205 70 q 211 104 208 92 l 283 459 q 288 488 286 473 q 290 516 290 502 q 279 557 290 541 q 240 574 268 574 q 207 571 223 574 q 174 564 190 568 q 328 663 251 613 q 488 751 406 713 l 374 185 q 370 151 370 166 m 798 1154 q 671 1027 744 1094 q 520 903 599 961 q 369 812 441 846 l 370 821 q 481 901 429 855 q 580 996 533 947 q 608 1027 594 1011 q 637 1057 621 1043 q 714 1110 668 1086 q 798 1154 760 1133 z "},"ì":{"ha":523,"x_min":174,"x_max":633,"o":"m 370 151 q 395 99 370 111 q 455 87 420 87 q 503 92 480 87 q 438 45 473 70 q 367 4 404 21 q 291 -14 330 -14 q 229 1 252 -14 q 205 58 205 16 q 207 81 205 70 q 211 104 208 92 l 283 459 q 288 488 286 473 q 290 516 290 502 q 279 557 290 541 q 240 574 268 574 q 207 571 223 574 q 174 564 190 568 q 328 663 251 613 q 488 751 406 713 l 374 185 q 370 151 370 166 m 633 920 q 583 885 616 908 q 517 842 550 862 q 468 817 485 821 q 362 922 405 859 q 292 1054 320 985 q 321 1076 297 1060 q 374 1110 345 1092 q 428 1142 404 1128 q 457 1155 452 1155 q 461 1151 461 1155 q 461 1144 462 1147 q 529 1017 485 1079 q 633 920 574 956 z "},"î":{"ha":523,"x_min":174,"x_max":755,"o":"m 370 151 q 395 99 370 111 q 455 87 420 87 q 503 92 480 87 q 438 45 473 70 q 367 4 404 21 q 291 -14 330 -14 q 229 1 252 -14 q 205 58 205 16 q 207 81 205 70 q 211 104 208 92 l 283 459 q 288 488 286 473 q 290 516 290 502 q 279 557 290 541 q 240 574 268 574 q 207 571 223 574 q 174 564 190 568 q 328 663 251 613 q 488 751 406 713 l 374 185 q 370 151 370 166 m 755 920 q 723 896 745 911 q 674 862 701 880 q 626 832 648 845 q 593 817 604 819 q 531 894 559 853 q 475 975 503 935 q 439 945 457 960 q 402 916 420 930 q 321 869 365 887 q 241 820 277 850 q 298 866 259 835 q 385 936 336 898 q 482 1010 433 975 q 568 1070 530 1046 q 623 1097 606 1095 q 692 1010 661 1057 q 755 920 723 964 z "},"ï":{"ha":523,"x_min":170,"x_max":768,"o":"m 370 151 q 395 99 370 111 q 455 87 420 87 q 503 92 480 87 q 438 45 473 70 q 367 4 404 21 q 291 -14 330 -14 q 229 1 252 -14 q 205 58 205 16 q 207 81 205 70 q 211 104 208 92 l 283 459 q 288 488 286 473 q 290 516 290 502 q 279 557 290 541 q 240 574 268 574 q 207 571 223 574 q 174 564 190 568 q 328 663 251 613 q 488 751 406 713 l 374 185 q 370 151 370 166 m 768 912 l 604 809 l 511 916 l 675 1017 l 768 912 m 427 912 l 262 809 l 170 916 l 334 1017 l 427 912 z "},"ñ":{"ha":987,"x_min":171,"x_max":1102,"o":"m 949 101 q 881 51 918 77 q 806 7 845 25 q 725 -11 766 -11 q 655 60 655 -11 q 660 106 655 83 q 669 151 664 129 q 697 291 682 221 q 726 430 712 360 q 730 460 728 445 q 732 491 732 475 q 695 590 732 558 q 594 621 659 621 q 518 599 548 621 q 469 541 488 576 q 439 465 450 505 q 420 389 428 425 l 373 150 q 372 136 372 143 q 383 101 372 117 q 415 85 394 85 q 433 88 425 85 q 451 94 442 90 q 390 51 426 77 q 317 5 355 25 q 250 -16 280 -16 q 216 -2 226 -16 q 206 34 206 12 q 208 56 206 45 q 212 77 210 66 q 258 304 233 191 q 305 531 283 417 q 308 549 307 540 q 309 566 309 557 q 290 615 309 601 q 237 629 270 629 q 203 625 220 629 q 171 616 186 622 q 232 649 207 629 q 279 687 256 668 q 332 718 302 705 q 408 731 361 731 q 474 666 474 731 q 471 634 474 650 q 464 603 468 618 q 553 660 504 632 q 656 707 603 688 q 760 725 709 725 q 858 694 814 725 q 902 603 902 663 q 899 574 902 589 l 825 205 q 822 181 823 193 q 820 157 820 169 q 889 90 820 90 q 919 93 904 90 q 949 101 934 96 m 1102 1004 q 1004 921 1059 962 q 888 852 949 880 q 764 825 827 825 q 702 839 725 825 q 662 870 679 852 q 622 902 644 888 q 563 916 600 916 q 522 905 547 916 q 467 878 496 894 q 414 845 439 861 q 374 820 389 829 q 472 913 414 867 q 595 989 530 959 q 726 1019 661 1019 q 776 1005 755 1019 q 819 972 798 991 q 866 940 840 954 q 934 926 893 926 q 989 940 958 926 q 1051 973 1021 954 q 1102 1004 1081 991 z "},"ó":{"ha":809,"x_min":65,"x_max":898,"o":"m 298 -12 q 176 21 229 -12 q 94 110 123 54 q 65 234 65 166 q 97 377 65 305 q 182 514 128 449 q 304 630 237 579 q 446 711 372 682 q 589 741 519 741 q 710 708 659 741 q 790 619 762 675 q 818 496 818 564 q 787 353 818 425 q 702 215 755 281 q 582 99 649 150 q 442 18 515 47 q 298 -12 369 -12 m 420 640 q 334 610 370 640 q 277 535 299 581 q 244 439 254 489 q 234 349 234 389 q 259 219 234 278 q 335 123 284 159 q 463 87 386 87 q 548 118 512 87 q 606 194 583 148 q 638 290 628 240 q 649 380 649 340 q 624 510 649 452 q 547 604 598 569 q 420 640 496 640 m 898 1154 q 772 1027 844 1094 q 621 903 699 961 q 469 812 542 846 l 471 821 q 582 901 530 855 q 680 996 633 947 q 708 1027 694 1011 q 737 1057 722 1043 q 814 1110 768 1086 q 898 1154 860 1133 z "},"ò":{"ha":809,"x_min":65,"x_max":818,"o":"m 298 -12 q 176 21 229 -12 q 94 110 123 54 q 65 234 65 166 q 97 377 65 305 q 182 514 128 449 q 304 630 237 579 q 446 711 372 682 q 589 741 519 741 q 710 708 659 741 q 790 619 762 675 q 818 496 818 564 q 787 353 818 425 q 702 215 755 281 q 582 99 649 150 q 442 18 515 47 q 298 -12 369 -12 m 420 640 q 334 610 370 640 q 277 535 299 581 q 244 439 254 489 q 234 349 234 389 q 259 219 234 278 q 335 123 284 159 q 463 87 386 87 q 548 118 512 87 q 606 194 583 148 q 638 290 628 240 q 649 380 649 340 q 624 510 649 452 q 547 604 598 569 q 420 640 496 640 m 734 920 q 684 885 717 908 q 618 842 650 862 q 568 817 585 821 q 463 922 505 859 q 393 1054 420 985 q 421 1076 397 1060 q 474 1110 445 1092 q 528 1142 504 1128 q 557 1155 552 1155 q 562 1151 562 1155 q 562 1144 562 1147 q 630 1017 585 1079 q 734 920 674 956 z "},"ô":{"ha":809,"x_min":65,"x_max":855,"o":"m 298 -12 q 176 21 229 -12 q 94 110 123 54 q 65 234 65 166 q 97 377 65 305 q 182 514 128 449 q 304 630 237 579 q 446 711 372 682 q 589 741 519 741 q 710 708 659 741 q 790 619 762 675 q 818 496 818 564 q 787 353 818 425 q 702 215 755 281 q 582 99 649 150 q 442 18 515 47 q 298 -12 369 -12 m 420 640 q 334 610 370 640 q 277 535 299 581 q 244 439 254 489 q 234 349 234 389 q 259 219 234 278 q 335 123 284 159 q 463 87 386 87 q 548 118 512 87 q 606 194 583 148 q 638 290 628 240 q 649 380 649 340 q 624 510 649 452 q 547 604 598 569 q 420 640 496 640 m 855 920 q 823 896 845 911 q 775 862 801 880 q 727 832 749 845 q 694 817 705 819 q 632 894 660 853 q 575 975 604 935 q 539 945 557 960 q 503 916 521 930 q 421 869 465 887 q 341 820 378 850 q 398 866 359 835 q 485 936 437 898 q 582 1010 534 975 q 669 1070 631 1046 q 724 1097 707 1095 q 792 1010 762 1057 q 855 920 823 964 z "},"ö":{"ha":809,"x_min":65,"x_max":868,"o":"m 298 -12 q 176 21 229 -12 q 94 110 123 54 q 65 234 65 166 q 97 377 65 305 q 182 514 128 449 q 304 630 237 579 q 446 711 372 682 q 589 741 519 741 q 710 708 659 741 q 790 619 762 675 q 818 496 818 564 q 787 353 818 425 q 702 215 755 281 q 582 99 649 150 q 442 18 515 47 q 298 -12 369 -12 m 420 640 q 334 610 370 640 q 277 535 299 581 q 244 439 254 489 q 234 349 234 389 q 259 219 234 278 q 335 123 284 159 q 463 87 386 87 q 548 118 512 87 q 606 194 583 148 q 638 290 628 240 q 649 380 649 340 q 624 510 649 452 q 547 604 598 569 q 420 640 496 640 m 868 912 l 704 809 l 612 916 l 776 1017 l 868 912 m 527 912 l 363 809 l 271 916 l 435 1017 l 527 912 z "},"õ":{"ha":809,"x_min":65,"x_max":970,"o":"m 298 -12 q 176 21 229 -12 q 94 110 123 54 q 65 234 65 166 q 97 377 65 305 q 182 514 128 449 q 304 630 237 579 q 446 711 372 682 q 589 741 519 741 q 710 708 659 741 q 790 619 762 675 q 818 496 818 564 q 787 353 818 425 q 702 215 755 281 q 582 99 649 150 q 442 18 515 47 q 298 -12 369 -12 m 420 640 q 334 610 370 640 q 277 535 299 581 q 244 439 254 489 q 234 349 234 389 q 259 219 234 278 q 335 123 284 159 q 463 87 386 87 q 548 118 512 87 q 606 194 583 148 q 638 290 628 240 q 649 380 649 340 q 624 510 649 452 q 547 604 598 569 q 420 640 496 640 m 970 1004 q 872 921 927 962 q 756 852 818 880 q 632 825 695 825 q 570 839 593 825 q 530 870 547 852 q 491 902 513 888 q 431 916 469 916 q 390 905 416 916 q 336 878 364 894 q 282 845 307 861 q 243 820 257 829 q 340 913 282 867 q 464 989 398 959 q 594 1019 530 1019 q 645 1005 623 1019 q 687 972 666 991 q 735 940 708 954 q 802 926 762 926 q 858 940 827 926 q 919 973 889 954 q 970 1004 949 991 z "},"ú":{"ha":968,"x_min":181,"x_max":1029,"o":"m 968 102 q 908 71 932 90 q 862 33 884 52 q 810 1 840 14 q 731 -12 781 -12 q 668 54 668 -12 q 670 81 668 67 q 675 109 672 95 q 525 24 606 64 q 359 -16 443 -16 q 283 7 311 -16 q 244 67 256 31 q 233 146 233 104 q 236 195 233 171 q 244 243 239 220 l 298 513 q 302 536 300 524 q 303 560 303 549 q 236 630 303 630 q 181 618 207 630 q 250 669 213 642 q 327 714 287 696 q 410 733 368 733 q 459 713 445 733 q 473 660 473 692 q 466 597 473 628 q 452 536 458 566 q 427 418 440 477 q 402 300 414 359 q 396 260 399 280 q 393 220 393 240 q 434 117 393 146 q 544 87 474 87 q 617 107 583 87 q 682 147 651 127 l 762 542 q 765 576 765 562 q 756 611 765 597 q 724 626 748 626 q 706 624 715 626 q 689 618 697 621 q 747 662 712 635 q 820 707 783 688 q 887 727 858 727 q 920 713 910 727 q 930 678 930 699 q 928 655 930 667 l 833 180 q 829 150 829 163 q 850 103 829 115 q 903 92 871 92 q 936 95 920 92 q 968 102 952 98 m 1029 1154 q 903 1027 976 1094 q 752 903 831 961 q 601 812 673 846 l 602 821 q 713 901 661 855 q 812 996 765 947 q 840 1027 826 1011 q 869 1057 853 1043 q 946 1110 900 1086 q 1029 1154 991 1133 z "},"ù":{"ha":968,"x_min":181,"x_max":968,"o":"m 968 102 q 908 71 932 90 q 862 33 884 52 q 810 1 840 14 q 731 -12 781 -12 q 668 54 668 -12 q 670 81 668 67 q 675 109 672 95 q 525 24 606 64 q 359 -16 443 -16 q 283 7 311 -16 q 244 67 256 31 q 233 146 233 104 q 236 195 233 171 q 244 243 239 220 l 298 513 q 302 536 300 524 q 303 560 303 549 q 236 630 303 630 q 181 618 207 630 q 250 669 213 642 q 327 714 287 696 q 410 733 368 733 q 459 713 445 733 q 473 660 473 692 q 466 597 473 628 q 452 536 458 566 q 427 418 440 477 q 402 300 414 359 q 396 260 399 280 q 393 220 393 240 q 434 117 393 146 q 544 87 474 87 q 617 107 583 87 q 682 147 651 127 l 762 542 q 765 576 765 562 q 756 611 765 597 q 724 626 748 626 q 706 624 715 626 q 689 618 697 621 q 747 662 712 635 q 820 707 783 688 q 887 727 858 727 q 920 713 910 727 q 930 678 930 699 q 928 655 930 667 l 833 180 q 829 150 829 163 q 850 103 829 115 q 903 92 871 92 q 936 95 920 92 q 968 102 952 98 m 865 920 q 815 885 848 908 q 749 842 782 862 q 700 817 717 821 q 594 922 637 859 q 524 1054 552 985 q 553 1076 529 1060 q 606 1110 576 1092 q 660 1142 635 1128 q 689 1155 684 1155 q 693 1151 693 1155 q 693 1144 694 1147 q 761 1017 717 1079 q 865 920 806 956 z "},"û":{"ha":968,"x_min":181,"x_max":987,"o":"m 968 102 q 908 71 932 90 q 862 33 884 52 q 810 1 840 14 q 731 -12 781 -12 q 668 54 668 -12 q 670 81 668 67 q 675 109 672 95 q 525 24 606 64 q 359 -16 443 -16 q 283 7 311 -16 q 244 67 256 31 q 233 146 233 104 q 236 195 233 171 q 244 243 239 220 l 298 513 q 302 536 300 524 q 303 560 303 549 q 236 630 303 630 q 181 618 207 630 q 250 669 213 642 q 327 714 287 696 q 410 733 368 733 q 459 713 445 733 q 473 660 473 692 q 466 597 473 628 q 452 536 458 566 q 427 418 440 477 q 402 300 414 359 q 396 260 399 280 q 393 220 393 240 q 434 117 393 146 q 544 87 474 87 q 617 107 583 87 q 682 147 651 127 l 762 542 q 765 576 765 562 q 756 611 765 597 q 724 626 748 626 q 706 624 715 626 q 689 618 697 621 q 747 662 712 635 q 820 707 783 688 q 887 727 858 727 q 920 713 910 727 q 930 678 930 699 q 928 655 930 667 l 833 180 q 829 150 829 163 q 850 103 829 115 q 903 92 871 92 q 936 95 920 92 q 968 102 952 98 m 987 920 q 955 896 977 911 q 906 862 932 880 q 858 832 880 845 q 825 817 836 819 q 763 894 791 853 q 707 975 735 935 q 671 945 689 960 q 634 916 652 930 q 553 869 597 887 q 473 820 509 850 q 530 866 491 835 q 617 936 568 898 q 714 1010 665 975 q 800 1070 762 1046 q 855 1097 838 1095 q 924 1010 893 1057 q 987 920 955 964 z "},"ü":{"ha":968,"x_min":181,"x_max":1000,"o":"m 968 102 q 908 71 932 90 q 862 33 884 52 q 810 1 840 14 q 731 -12 781 -12 q 668 54 668 -12 q 670 81 668 67 q 675 109 672 95 q 525 24 606 64 q 359 -16 443 -16 q 283 7 311 -16 q 244 67 256 31 q 233 146 233 104 q 236 195 233 171 q 244 243 239 220 l 298 513 q 302 536 300 524 q 303 560 303 549 q 236 630 303 630 q 181 618 207 630 q 250 669 213 642 q 327 714 287 696 q 410 733 368 733 q 459 713 445 733 q 473 660 473 692 q 466 597 473 628 q 452 536 458 566 q 427 418 440 477 q 402 300 414 359 q 396 260 399 280 q 393 220 393 240 q 434 117 393 146 q 544 87 474 87 q 617 107 583 87 q 682 147 651 127 l 762 542 q 765 576 765 562 q 756 611 765 597 q 724 626 748 626 q 706 624 715 626 q 689 618 697 621 q 747 662 712 635 q 820 707 783 688 q 887 727 858 727 q 920 713 910 727 q 930 678 930 699 q 928 655 930 667 l 833 180 q 829 150 829 163 q 850 103 829 115 q 903 92 871 92 q 936 95 920 92 q 968 102 952 98 m 1000 912 l 836 809 l 743 916 l 907 1017 l 1000 912 m 659 912 l 494 809 l 402 916 l 566 1017 l 659 912 z "},"À":{"ha":1354,"x_min":-36,"x_max":1351,"o":"m 1080 -14 q 1026 12 1038 -14 q 1008 71 1014 37 q 972 249 990 159 q 933 426 955 338 q 829 409 889 415 q 707 400 770 403 q 590 396 645 397 q 498 395 534 395 q 459 396 479 395 q 419 396 439 396 q 278 246 352 318 q 132 101 204 174 q 270 105 199 101 q 403 142 342 109 q 288 69 335 97 q 198 26 241 41 q 100 5 155 11 q -36 0 45 0 q 215 260 96 123 q 451 536 334 397 q 620 733 534 635 q 781 937 705 831 q 794 956 787 946 q 808 973 800 965 q 667 970 736 973 q 530 943 599 968 q 636 1015 590 988 q 726 1054 682 1041 q 823 1072 770 1067 q 949 1076 876 1076 l 975 1076 q 1088 634 1037 849 q 1172 185 1140 419 q 1188 120 1177 149 q 1244 92 1199 92 q 1299 102 1271 92 q 1351 125 1328 112 q 1293 86 1326 109 q 1220 40 1259 62 q 1145 2 1182 17 q 1080 -14 1109 -14 m 753 497 q 833 497 793 497 q 915 498 874 497 l 914 500 l 810 886 q 660 693 735 789 q 507 501 584 596 l 509 501 q 631 499 570 501 q 753 497 692 497 m 1068 1198 q 1018 1163 1051 1186 q 952 1120 985 1140 q 903 1095 920 1099 q 797 1200 840 1137 q 727 1332 755 1263 q 755 1354 732 1338 q 809 1388 779 1370 q 862 1420 838 1407 q 892 1433 886 1433 q 896 1429 896 1433 q 896 1422 897 1425 q 964 1295 920 1357 q 1068 1198 1008 1234 z "},"Ã":{"ha":1354,"x_min":-36,"x_max":1351,"o":"m 1080 -14 q 1026 12 1038 -14 q 1008 71 1014 37 q 972 249 990 159 q 933 426 955 338 q 829 409 889 415 q 707 400 770 403 q 590 396 645 397 q 498 395 534 395 q 459 396 479 395 q 419 396 439 396 q 278 246 352 318 q 132 101 204 174 q 270 105 199 101 q 403 142 342 109 q 288 69 335 97 q 198 26 241 41 q 100 5 155 11 q -36 0 45 0 q 215 260 96 123 q 451 536 334 397 q 620 733 534 635 q 781 937 705 831 q 794 956 787 946 q 808 973 800 965 q 667 970 736 973 q 530 943 599 968 q 636 1015 590 988 q 726 1054 682 1041 q 823 1072 770 1067 q 949 1076 876 1076 l 975 1076 q 1088 634 1037 849 q 1172 185 1140 419 q 1188 120 1177 149 q 1244 92 1199 92 q 1299 102 1271 92 q 1351 125 1328 112 q 1293 86 1326 109 q 1220 40 1259 62 q 1145 2 1182 17 q 1080 -14 1109 -14 m 753 497 q 833 497 793 497 q 915 498 874 497 l 914 500 l 810 886 q 660 693 735 789 q 507 501 584 596 l 509 501 q 631 499 570 501 q 753 497 692 497 m 1305 1282 q 1207 1199 1261 1240 q 1091 1130 1152 1158 q 966 1103 1029 1103 q 905 1117 928 1103 q 864 1148 882 1131 q 825 1180 847 1166 q 766 1194 803 1194 q 724 1183 750 1194 q 670 1156 699 1172 q 616 1123 642 1139 q 577 1098 591 1107 q 674 1191 616 1145 q 798 1267 732 1237 q 928 1297 864 1297 q 979 1283 958 1297 q 1021 1250 1000 1269 q 1069 1218 1042 1232 q 1137 1204 1096 1204 q 1192 1218 1161 1204 q 1254 1251 1223 1232 q 1305 1282 1284 1270 z "},"Õ":{"ha":1088,"x_min":151,"x_max":1236,"o":"m 465 -61 q 288 -16 358 -61 q 184 109 218 30 q 151 289 151 188 q 155 366 151 328 q 167 442 159 404 q 262 701 194 576 q 364 848 304 775 q 498 979 424 920 q 658 1073 573 1038 q 833 1107 743 1107 q 1004 1056 935 1107 q 1108 923 1073 1005 q 1143 747 1143 840 q 1140 687 1143 717 q 1131 629 1137 658 q 1088 487 1117 557 q 1021 355 1059 418 q 921 215 981 288 q 787 80 861 142 q 631 -22 713 17 q 465 -61 549 -61 m 697 1004 q 547 962 611 1004 q 439 853 484 921 q 368 703 395 785 q 328 540 340 622 q 315 391 315 458 q 341 218 315 298 q 429 87 368 137 q 595 38 490 38 q 736 81 674 38 q 842 192 798 124 q 915 336 887 260 q 957 477 943 412 q 971 566 966 521 q 976 655 976 610 q 949 825 976 745 q 861 954 922 905 q 697 1004 800 1004 m 1236 1282 q 1138 1199 1193 1240 q 1022 1130 1084 1158 q 898 1103 961 1103 q 836 1117 859 1103 q 796 1148 813 1131 q 756 1180 779 1166 q 697 1194 734 1194 q 656 1183 682 1194 q 602 1156 630 1172 q 548 1123 573 1139 q 509 1098 523 1107 q 606 1191 548 1145 q 730 1267 664 1237 q 860 1297 795 1297 q 910 1283 889 1297 q 953 1250 932 1269 q 1001 1218 974 1232 q 1068 1204 1027 1204 q 1124 1218 1093 1204 q 1185 1251 1155 1232 q 1236 1282 1215 1270 z "},"ÿ":{"ha":963,"x_min":73,"x_max":967,"o":"m 194 -454 q 149 -449 178 -454 q 96 -432 120 -444 q 73 -398 73 -420 q 96 -361 73 -381 q 153 -320 119 -340 q 217 -284 186 -300 q 262 -257 248 -267 q 246 -274 254 -263 q 238 -296 238 -286 q 263 -330 238 -317 q 318 -348 288 -342 q 364 -353 349 -353 q 473 -321 427 -353 q 552 -235 519 -288 q 608 -119 585 -182 q 645 5 630 -56 q 669 113 659 66 q 496 26 588 66 q 308 -14 404 -14 q 192 18 238 -14 q 146 124 146 49 q 153 179 146 150 l 206 450 q 215 498 212 473 q 219 547 219 522 q 207 604 219 578 q 157 630 195 630 q 128 627 142 630 q 100 620 114 624 q 170 669 132 643 q 248 714 207 696 q 329 733 288 733 q 379 711 366 733 q 393 657 393 690 q 388 606 393 631 q 377 554 382 580 q 353 441 366 498 q 330 329 340 385 q 321 279 325 304 q 317 229 317 254 q 343 139 317 169 q 414 99 370 109 q 509 89 458 89 q 600 108 554 89 q 678 159 646 127 l 755 532 q 759 553 758 543 q 760 574 760 564 q 752 611 760 595 q 719 627 743 627 q 683 620 703 627 q 742 663 706 637 q 815 708 777 688 q 882 728 853 728 q 915 719 899 728 q 930 689 930 709 q 928 680 930 684 q 883 452 906 566 q 838 225 861 338 q 781 39 820 135 q 684 -144 742 -56 q 552 -302 627 -232 q 387 -413 477 -372 q 194 -454 297 -454 m 967 912 l 803 809 l 711 916 l 875 1017 l 967 912 m 626 912 l 462 809 l 370 916 l 534 1017 l 626 912 z "},"Ÿ":{"ha":1137,"x_min":230,"x_max":1196,"o":"m 1153 1225 l 989 1123 l 895 1230 l 1061 1331 l 1153 1225 m 812 1225 l 648 1123 l 554 1230 l 720 1331 l 812 1225 m 761 465 q 739 337 751 403 q 704 211 727 272 q 637 101 681 150 l 875 101 q 819 68 850 93 q 760 22 789 43 q 709 0 730 0 l 450 0 q 523 86 495 41 q 562 191 550 130 l 600 381 q 603 399 602 390 q 604 417 604 408 q 596 502 604 459 q 578 585 588 544 q 554 662 570 612 q 515 769 538 712 q 462 879 492 827 q 399 963 433 930 q 329 996 365 996 q 277 985 304 996 q 230 960 250 973 q 304 1020 260 990 q 395 1069 347 1050 q 488 1089 444 1089 q 564 1057 528 1089 q 629 970 599 1024 q 682 852 659 916 q 723 724 705 788 q 750 606 740 659 q 763 520 760 552 q 837 599 793 550 q 925 704 882 648 q 999 816 969 761 q 1029 913 1029 871 q 1007 970 1029 949 q 949 991 985 991 q 908 987 928 991 q 959 1013 937 996 q 1002 1049 981 1031 q 1049 1081 1023 1068 q 1112 1094 1075 1094 q 1171 1075 1146 1094 q 1196 1019 1196 1055 q 1161 919 1196 977 q 1072 794 1126 860 q 958 665 1018 728 q 844 548 897 601 q 761 465 791 496 z "},"Â":{"ha":1354,"x_min":-36,"x_max":1351,"o":"m 1080 -14 q 1026 12 1038 -14 q 1008 71 1014 37 q 972 249 990 159 q 933 426 955 338 q 829 409 889 415 q 707 400 770 403 q 590 396 645 397 q 498 395 534 395 q 459 396 479 395 q 419 396 439 396 q 278 246 352 318 q 132 101 204 174 q 270 105 199 101 q 403 142 342 109 q 288 69 335 97 q 198 26 241 41 q 100 5 155 11 q -36 0 45 0 q 215 260 96 123 q 451 536 334 397 q 620 733 534 635 q 781 937 705 831 q 794 956 787 946 q 808 973 800 965 q 667 970 736 973 q 530 943 599 968 q 636 1015 590 988 q 726 1054 682 1041 q 823 1072 770 1067 q 949 1076 876 1076 l 975 1076 q 1088 634 1037 849 q 1172 185 1140 419 q 1188 120 1177 149 q 1244 92 1199 92 q 1299 102 1271 92 q 1351 125 1328 112 q 1293 86 1326 109 q 1220 40 1259 62 q 1145 2 1182 17 q 1080 -14 1109 -14 m 753 497 q 833 497 793 497 q 915 498 874 497 l 914 500 l 810 886 q 660 693 735 789 q 507 501 584 596 l 509 501 q 631 499 570 501 q 753 497 692 497 m 1190 1198 q 1157 1174 1179 1190 q 1109 1140 1135 1158 q 1061 1110 1083 1123 q 1028 1095 1039 1097 q 966 1172 994 1131 q 909 1253 938 1213 q 873 1223 892 1238 q 837 1194 855 1208 q 756 1147 800 1165 q 675 1098 712 1128 q 732 1144 694 1113 q 820 1214 771 1176 q 917 1288 868 1253 q 1003 1348 965 1324 q 1058 1375 1041 1373 q 1127 1289 1096 1335 q 1190 1198 1158 1242 z "},"Ê":{"ha":1021,"x_min":160,"x_max":1229,"o":"m 1229 1076 q 1165 1042 1202 1067 q 1094 995 1129 1017 q 1036 973 1059 973 l 569 973 l 494 610 l 1021 610 q 977 591 1002 606 q 935 564 952 576 q 900 543 921 555 q 857 519 878 530 q 819 509 835 509 l 474 509 l 426 267 q 410 208 421 243 q 382 142 399 173 q 342 101 366 112 l 900 101 q 982 115 935 101 q 1064 141 1029 130 q 1007 104 1048 127 q 919 57 967 81 q 829 17 871 33 q 769 0 788 0 l 160 0 q 236 108 212 55 q 274 234 259 161 l 329 509 l 225 509 l 347 591 l 423 973 l 284 973 q 320 997 294 981 q 375 1031 345 1013 q 430 1063 405 1050 q 464 1076 454 1076 l 1229 1076 m 1115 1198 q 1083 1174 1105 1190 q 1035 1140 1061 1158 q 986 1110 1008 1123 q 954 1095 964 1097 q 891 1172 920 1131 q 835 1253 863 1213 q 799 1223 817 1238 q 762 1194 781 1208 q 681 1147 725 1165 q 601 1098 637 1128 q 658 1144 619 1113 q 745 1214 696 1176 q 842 1288 793 1253 q 928 1348 890 1324 q 983 1375 966 1373 q 1052 1289 1021 1335 q 1115 1198 1083 1242 z "},"Á":{"ha":1354,"x_min":-36,"x_max":1351,"o":"m 1080 -14 q 1026 12 1038 -14 q 1008 71 1014 37 q 972 249 990 159 q 933 426 955 338 q 829 409 889 415 q 707 400 770 403 q 590 396 645 397 q 498 395 534 395 q 459 396 479 395 q 419 396 439 396 q 278 246 352 318 q 132 101 204 174 q 270 105 199 101 q 403 142 342 109 q 288 69 335 97 q 198 26 241 41 q 100 5 155 11 q -36 0 45 0 q 215 260 96 123 q 451 536 334 397 q 620 733 534 635 q 781 937 705 831 q 794 956 787 946 q 808 973 800 965 q 667 970 736 973 q 530 943 599 968 q 636 1015 590 988 q 726 1054 682 1041 q 823 1072 770 1067 q 949 1076 876 1076 l 975 1076 q 1088 634 1037 849 q 1172 185 1140 419 q 1188 120 1177 149 q 1244 92 1199 92 q 1299 102 1271 92 q 1351 125 1328 112 q 1293 86 1326 109 q 1220 40 1259 62 q 1145 2 1182 17 q 1080 -14 1109 -14 m 753 497 q 833 497 793 497 q 915 498 874 497 l 914 500 l 810 886 q 660 693 735 789 q 507 501 584 596 l 509 501 q 631 499 570 501 q 753 497 692 497 m 1232 1432 q 1106 1305 1179 1372 q 955 1181 1034 1239 q 804 1090 876 1124 l 805 1099 q 916 1179 864 1133 q 1015 1274 968 1225 q 1042 1305 1029 1289 q 1072 1335 1056 1321 q 1148 1388 1103 1364 q 1232 1432 1194 1411 z "},"Ë":{"ha":1021,"x_min":160,"x_max":1229,"o":"m 1229 1076 q 1165 1042 1202 1067 q 1094 995 1129 1017 q 1036 973 1059 973 l 569 973 l 494 610 l 1021 610 q 977 591 1002 606 q 935 564 952 576 q 900 543 921 555 q 857 519 878 530 q 819 509 835 509 l 474 509 l 426 267 q 410 208 421 243 q 382 142 399 173 q 342 101 366 112 l 900 101 q 982 115 935 101 q 1064 141 1029 130 q 1007 104 1048 127 q 919 57 967 81 q 829 17 871 33 q 769 0 788 0 l 160 0 q 236 108 212 55 q 274 234 259 161 l 329 509 l 225 509 l 347 591 l 423 973 l 284 973 q 320 997 294 981 q 375 1031 345 1013 q 430 1063 405 1050 q 464 1076 454 1076 l 1229 1076 m 1128 1190 l 964 1087 l 871 1194 l 1036 1295 l 1128 1190 m 787 1190 l 623 1087 l 530 1194 l 694 1295 l 787 1190 z "},"È":{"ha":1021,"x_min":160,"x_max":1229,"o":"m 1229 1076 q 1165 1042 1202 1067 q 1094 995 1129 1017 q 1036 973 1059 973 l 569 973 l 494 610 l 1021 610 q 977 591 1002 606 q 935 564 952 576 q 900 543 921 555 q 857 519 878 530 q 819 509 835 509 l 474 509 l 426 267 q 410 208 421 243 q 382 142 399 173 q 342 101 366 112 l 900 101 q 982 115 935 101 q 1064 141 1029 130 q 1007 104 1048 127 q 919 57 967 81 q 829 17 871 33 q 769 0 788 0 l 160 0 q 236 108 212 55 q 274 234 259 161 l 329 509 l 225 509 l 347 591 l 423 973 l 284 973 q 320 997 294 981 q 375 1031 345 1013 q 430 1063 405 1050 q 464 1076 454 1076 l 1229 1076 m 994 1198 q 943 1163 977 1186 q 878 1120 910 1140 q 828 1095 845 1099 q 723 1200 765 1137 q 652 1332 680 1263 q 681 1354 657 1338 q 734 1388 705 1370 q 788 1420 764 1407 q 817 1433 812 1433 q 822 1429 821 1433 q 821 1422 822 1425 q 889 1295 845 1357 q 994 1198 934 1234 z "},"Í":{"ha":627,"x_min":157,"x_max":932,"o":"m 789 1076 q 750 1056 772 1072 q 704 1021 728 1040 q 660 987 681 1002 q 623 973 638 973 l 566 973 l 428 289 q 396 188 419 243 q 338 101 374 132 l 577 101 q 538 81 560 97 q 493 46 516 65 q 449 14 470 28 q 412 0 428 0 l 157 0 q 228 79 208 40 q 260 179 248 117 l 421 973 l 281 973 q 315 997 292 980 q 366 1031 338 1013 q 415 1063 393 1050 q 448 1076 438 1076 l 789 1076 m 932 1432 q 806 1305 879 1372 q 655 1181 734 1239 q 504 1090 576 1124 l 505 1099 q 616 1179 564 1133 q 715 1274 668 1225 q 743 1305 729 1289 q 772 1335 756 1321 q 849 1388 803 1364 q 932 1432 895 1411 z "},"Î":{"ha":627,"x_min":157,"x_max":890,"o":"m 789 1076 q 750 1056 772 1072 q 704 1021 728 1040 q 660 987 681 1002 q 623 973 638 973 l 566 973 l 428 289 q 396 188 419 243 q 338 101 374 132 l 577 101 q 538 81 560 97 q 493 46 516 65 q 449 14 470 28 q 412 0 428 0 l 157 0 q 228 79 208 40 q 260 179 248 117 l 421 973 l 281 973 q 315 997 292 980 q 366 1031 338 1013 q 415 1063 393 1050 q 448 1076 438 1076 l 789 1076 m 890 1198 q 858 1174 880 1190 q 809 1140 836 1158 q 761 1110 783 1123 q 728 1095 739 1097 q 666 1172 694 1131 q 610 1253 638 1213 q 574 1223 592 1238 q 537 1194 555 1208 q 456 1147 500 1165 q 376 1098 412 1128 q 433 1144 394 1113 q 520 1214 471 1176 q 617 1288 568 1253 q 703 1348 665 1324 q 758 1375 741 1373 q 827 1289 796 1335 q 890 1198 858 1242 z "},"Ï":{"ha":627,"x_min":157,"x_max":903,"o":"m 789 1076 q 750 1056 772 1072 q 704 1021 728 1040 q 660 987 681 1002 q 623 973 638 973 l 566 973 l 428 289 q 396 188 419 243 q 338 101 374 132 l 577 101 q 538 81 560 97 q 493 46 516 65 q 449 14 470 28 q 412 0 428 0 l 157 0 q 228 79 208 40 q 260 179 248 117 l 421 973 l 281 973 q 315 997 292 980 q 366 1031 338 1013 q 415 1063 393 1050 q 448 1076 438 1076 l 789 1076 m 903 1190 l 739 1087 l 646 1194 l 810 1295 l 903 1190 m 562 1190 l 397 1087 l 305 1194 l 469 1295 l 562 1190 z "},"Ì":{"ha":627,"x_min":157,"x_max":789,"o":"m 789 1076 q 750 1056 772 1072 q 704 1021 728 1040 q 660 987 681 1002 q 623 973 638 973 l 566 973 l 428 289 q 396 188 419 243 q 338 101 374 132 l 577 101 q 538 81 560 97 q 493 46 516 65 q 449 14 470 28 q 412 0 428 0 l 157 0 q 228 79 208 40 q 260 179 248 117 l 421 973 l 281 973 q 315 997 292 980 q 366 1031 338 1013 q 415 1063 393 1050 q 448 1076 438 1076 l 789 1076 m 768 1198 q 718 1163 751 1186 q 652 1120 685 1140 q 603 1095 620 1099 q 497 1200 540 1137 q 427 1332 455 1263 q 456 1354 432 1338 q 509 1388 479 1370 q 563 1420 538 1407 q 592 1433 587 1433 q 596 1429 596 1433 q 596 1422 597 1425 q 664 1295 620 1357 q 768 1198 709 1234 z "},"Ó":{"ha":1088,"x_min":151,"x_max":1164,"o":"m 465 -61 q 288 -16 358 -61 q 184 109 218 30 q 151 289 151 188 q 155 366 151 328 q 167 442 159 404 q 262 701 194 576 q 364 848 304 775 q 498 979 424 920 q 658 1073 573 1038 q 833 1107 743 1107 q 1004 1056 935 1107 q 1108 923 1073 1005 q 1143 747 1143 840 q 1140 687 1143 717 q 1131 629 1137 658 q 1088 487 1117 557 q 1021 355 1059 418 q 921 215 981 288 q 787 80 861 142 q 631 -22 713 17 q 465 -61 549 -61 m 697 1004 q 547 962 611 1004 q 439 853 484 921 q 368 703 395 785 q 328 540 340 622 q 315 391 315 458 q 341 218 315 298 q 429 87 368 137 q 595 38 490 38 q 736 81 674 38 q 842 192 798 124 q 915 336 887 260 q 957 477 943 412 q 971 566 966 521 q 976 655 976 610 q 949 825 976 745 q 861 954 922 905 q 697 1004 800 1004 m 1164 1432 q 1038 1305 1110 1372 q 886 1181 965 1239 q 735 1090 808 1124 l 736 1099 q 847 1179 795 1133 q 946 1274 899 1225 q 974 1305 960 1289 q 1003 1335 987 1321 q 1080 1388 1034 1364 q 1164 1432 1126 1411 z "},"Ô":{"ha":1088,"x_min":151,"x_max":1143,"o":"m 465 -61 q 288 -16 358 -61 q 184 109 218 30 q 151 289 151 188 q 155 366 151 328 q 167 442 159 404 q 262 701 194 576 q 364 848 304 775 q 498 979 424 920 q 658 1073 573 1038 q 833 1107 743 1107 q 1004 1056 935 1107 q 1108 923 1073 1005 q 1143 747 1143 840 q 1140 687 1143 717 q 1131 629 1137 658 q 1088 487 1117 557 q 1021 355 1059 418 q 921 215 981 288 q 787 80 861 142 q 631 -22 713 17 q 465 -61 549 -61 m 697 1004 q 547 962 611 1004 q 439 853 484 921 q 368 703 395 785 q 328 540 340 622 q 315 391 315 458 q 341 218 315 298 q 429 87 368 137 q 595 38 490 38 q 736 81 674 38 q 842 192 798 124 q 915 336 887 260 q 957 477 943 412 q 971 566 966 521 q 976 655 976 610 q 949 825 976 745 q 861 954 922 905 q 697 1004 800 1004 m 1121 1198 q 1089 1174 1111 1190 q 1041 1140 1067 1158 q 992 1110 1015 1123 q 960 1095 970 1097 q 898 1172 926 1131 q 841 1253 869 1213 q 805 1223 823 1238 q 768 1194 787 1208 q 687 1147 731 1165 q 607 1098 644 1128 q 664 1144 625 1113 q 751 1214 703 1176 q 848 1288 800 1253 q 935 1348 897 1324 q 989 1375 972 1373 q 1058 1289 1027 1335 q 1121 1198 1089 1242 z "},"Ò":{"ha":1088,"x_min":151,"x_max":1143,"o":"m 465 -61 q 288 -16 358 -61 q 184 109 218 30 q 151 289 151 188 q 155 366 151 328 q 167 442 159 404 q 262 701 194 576 q 364 848 304 775 q 498 979 424 920 q 658 1073 573 1038 q 833 1107 743 1107 q 1004 1056 935 1107 q 1108 923 1073 1005 q 1143 747 1143 840 q 1140 687 1143 717 q 1131 629 1137 658 q 1088 487 1117 557 q 1021 355 1059 418 q 921 215 981 288 q 787 80 861 142 q 631 -22 713 17 q 465 -61 549 -61 m 697 1004 q 547 962 611 1004 q 439 853 484 921 q 368 703 395 785 q 328 540 340 622 q 315 391 315 458 q 341 218 315 298 q 429 87 368 137 q 595 38 490 38 q 736 81 674 38 q 842 192 798 124 q 915 336 887 260 q 957 477 943 412 q 971 566 966 521 q 976 655 976 610 q 949 825 976 745 q 861 954 922 905 q 697 1004 800 1004 m 1000 1198 q 949 1163 983 1186 q 884 1120 916 1140 q 834 1095 851 1099 q 729 1200 771 1137 q 659 1332 686 1263 q 687 1354 663 1338 q 740 1388 711 1370 q 794 1420 770 1407 q 823 1433 818 1433 q 828 1429 827 1433 q 827 1422 828 1425 q 896 1295 851 1357 q 1000 1198 940 1234 z "},"Ú":{"ha":1356,"x_min":229,"x_max":1518,"o":"m 1518 1076 q 1462 1042 1493 1066 q 1402 996 1432 1017 q 1351 975 1373 975 l 1295 975 l 1158 291 q 1123 189 1147 241 q 1060 102 1098 136 l 1306 102 q 1251 68 1282 94 q 1191 22 1220 43 q 1141 0 1161 0 l 895 0 q 952 74 929 37 q 986 161 976 110 q 835 74 914 115 q 672 6 756 33 q 500 -20 588 -20 q 302 34 376 -20 q 229 220 229 87 q 233 287 229 253 q 244 353 237 320 l 368 975 l 243 975 q 276 998 253 981 q 327 1032 300 1014 q 377 1063 354 1050 q 409 1076 400 1076 l 721 1076 q 666 1042 696 1066 q 605 996 635 1017 q 553 975 575 975 l 514 975 q 455 686 486 830 q 397 396 424 541 q 391 357 393 376 q 389 318 389 338 q 427 181 389 233 q 530 106 466 130 q 671 83 594 83 q 780 98 721 83 q 895 137 838 113 q 991 188 951 161 l 1150 975 l 1011 975 q 1043 998 1020 981 q 1095 1032 1067 1014 q 1145 1063 1122 1050 q 1177 1076 1168 1076 l 1518 1076 m 1326 1432 q 1200 1305 1273 1372 q 1049 1181 1128 1239 q 898 1090 970 1124 l 899 1099 q 1010 1179 958 1133 q 1109 1274 1062 1225 q 1137 1305 1123 1289 q 1166 1335 1150 1321 q 1243 1388 1197 1364 q 1326 1432 1289 1411 z "},"Û":{"ha":1356,"x_min":229,"x_max":1518,"o":"m 1518 1076 q 1462 1042 1493 1066 q 1402 996 1432 1017 q 1351 975 1373 975 l 1295 975 l 1158 291 q 1123 189 1147 241 q 1060 102 1098 136 l 1306 102 q 1251 68 1282 94 q 1191 22 1220 43 q 1141 0 1161 0 l 895 0 q 952 74 929 37 q 986 161 976 110 q 835 74 914 115 q 672 6 756 33 q 500 -20 588 -20 q 302 34 376 -20 q 229 220 229 87 q 233 287 229 253 q 244 353 237 320 l 368 975 l 243 975 q 276 998 253 981 q 327 1032 300 1014 q 377 1063 354 1050 q 409 1076 400 1076 l 721 1076 q 666 1042 696 1066 q 605 996 635 1017 q 553 975 575 975 l 514 975 q 455 686 486 830 q 397 396 424 541 q 391 357 393 376 q 389 318 389 338 q 427 181 389 233 q 530 106 466 130 q 671 83 594 83 q 780 98 721 83 q 895 137 838 113 q 991 188 951 161 l 1150 975 l 1011 975 q 1043 998 1020 981 q 1095 1032 1067 1014 q 1145 1063 1122 1050 q 1177 1076 1168 1076 l 1518 1076 m 1284 1198 q 1252 1174 1274 1190 q 1203 1140 1230 1158 q 1155 1110 1177 1123 q 1122 1095 1133 1097 q 1060 1172 1088 1131 q 1004 1253 1032 1213 q 968 1223 986 1238 q 931 1194 949 1208 q 850 1147 894 1165 q 770 1098 806 1128 q 827 1144 788 1113 q 914 1214 865 1176 q 1011 1288 962 1253 q 1097 1348 1059 1324 q 1152 1375 1135 1373 q 1221 1289 1190 1335 q 1284 1198 1252 1242 z "},"Ù":{"ha":1356,"x_min":229,"x_max":1518,"o":"m 1518 1076 q 1462 1042 1493 1066 q 1402 996 1432 1017 q 1351 975 1373 975 l 1295 975 l 1158 291 q 1123 189 1147 241 q 1060 102 1098 136 l 1306 102 q 1251 68 1282 94 q 1191 22 1220 43 q 1141 0 1161 0 l 895 0 q 952 74 929 37 q 986 161 976 110 q 835 74 914 115 q 672 6 756 33 q 500 -20 588 -20 q 302 34 376 -20 q 229 220 229 87 q 233 287 229 253 q 244 353 237 320 l 368 975 l 243 975 q 276 998 253 981 q 327 1032 300 1014 q 377 1063 354 1050 q 409 1076 400 1076 l 721 1076 q 666 1042 696 1066 q 605 996 635 1017 q 553 975 575 975 l 514 975 q 455 686 486 830 q 397 396 424 541 q 391 357 393 376 q 389 318 389 338 q 427 181 389 233 q 530 106 466 130 q 671 83 594 83 q 780 98 721 83 q 895 137 838 113 q 991 188 951 161 l 1150 975 l 1011 975 q 1043 998 1020 981 q 1095 1032 1067 1014 q 1145 1063 1122 1050 q 1177 1076 1168 1076 l 1518 1076 m 1162 1198 q 1112 1163 1145 1186 q 1046 1120 1079 1140 q 997 1095 1014 1099 q 891 1200 934 1137 q 821 1332 849 1263 q 850 1354 826 1338 q 903 1388 873 1370 q 957 1420 932 1407 q 986 1433 981 1433 q 990 1429 990 1433 q 990 1422 991 1425 q 1058 1295 1014 1357 q 1162 1198 1103 1234 z "},"…":{"ha":1389,"x_min":267,"x_max":1173,"o":"m 486 79 l 318 -23 l 267 102 l 431 203 l 486 79 m 828 79 l 663 -23 l 611 102 l 775 203 l 828 79 m 1173 79 l 1006 -23 l 954 102 l 1120 203 l 1173 79 z "}," ":{"ha":461,"x_min":0,"x_max":0,"o":""},"¤":{"ha":878,"x_min":33,"x_max":812,"o":"m 685 737 q 718 633 718 690 q 684 525 718 574 q 610 437 651 475 l 692 338 q 657 314 680 330 q 608 281 634 298 q 559 251 582 264 q 525 235 537 238 l 448 329 q 374 299 412 312 q 296 286 336 286 q 233 295 264 286 q 174 323 201 304 q 105 276 146 304 q 33 239 64 249 l 153 342 q 125 395 133 363 q 118 455 118 427 q 142 560 118 511 q 210 644 167 609 l 208 644 l 123 747 q 203 802 163 772 q 288 849 243 831 l 367 753 q 451 790 406 773 q 541 808 495 808 q 608 796 575 808 q 665 760 640 784 q 737 807 699 782 q 812 844 775 831 l 685 737 m 375 709 q 318 682 338 709 q 290 618 298 655 q 282 553 282 582 q 330 428 282 473 q 458 382 378 382 q 513 409 492 382 q 543 472 534 436 q 551 534 551 508 q 502 661 551 613 q 375 709 452 709 z "},"­":{"ha":435,"x_min":113,"x_max":507,"o":"m 507 459 q 468 439 490 455 q 423 405 446 423 q 379 372 400 386 q 342 358 358 358 l 113 358 q 152 378 130 362 q 197 413 174 394 q 241 445 220 431 q 279 459 262 459 l 507 459 z "}," ":{"ha":461,"x_min":0,"x_max":0,"o":""},"ƒ":{"ha":639,"x_min":56,"x_max":754,"o":"m 56 0 l 251 972 l 754 972 l 560 0 l 56 0 m 303 907 l 136 70 l 509 70 l 676 907 l 303 907 z "},"∫":{"ha":878,"x_min":56,"x_max":1006,"o":"m 56 0 l 251 972 l 1006 972 l 812 0 l 56 0 m 303 907 l 136 70 l 760 70 l 928 907 l 303 907 z "},"∙":{"ha":878,"x_min":56,"x_max":998,"o":"m 56 0 l 251 972 l 998 972 l 804 0 l 56 0 m 303 907 l 136 70 l 752 70 l 920 907 l 303 907 z "},"≥":{"ha":878,"x_min":56,"x_max":992,"o":"m 56 0 l 251 972 l 992 972 l 798 0 l 56 0 m 303 907 l 136 70 l 747 70 l 914 907 l 303 907 z "},"◊":{"ha":878,"x_min":56,"x_max":980,"o":"m 56 0 l 251 972 l 980 972 l 786 0 l 56 0 m 303 907 l 136 70 l 734 70 l 902 907 l 303 907 z "},"√":{"ha":987,"x_min":56,"x_max":1114,"o":"m 56 0 l 251 972 l 1114 972 l 920 0 l 56 0 m 303 907 l 136 70 l 868 70 l 1036 907 l 303 907 z "},"≤":{"ha":878,"x_min":56,"x_max":969,"o":"m 56 0 l 251 972 l 969 972 l 775 0 l 56 0 m 303 907 l 136 70 l 724 70 l 891 907 l 303 907 z "},"":{"ha":971,"x_min":56,"x_max":1066,"o":"m 56 0 l 251 972 l 1066 972 l 872 0 l 56 0 m 303 907 l 136 70 l 821 70 l 988 907 l 303 907 z "},"":{"ha":959,"x_min":56,"x_max":1055,"o":"m 56 0 l 251 972 l 1055 972 l 861 0 l 56 0 m 303 907 l 136 70 l 810 70 l 977 907 l 303 907 z "},"Ω":{"ha":1165,"x_min":56,"x_max":1270,"o":"m 56 0 l 251 972 l 1270 972 l 1076 0 l 56 0 m 303 907 l 136 70 l 1025 70 l 1192 907 l 303 907 z "},"∑":{"ha":903,"x_min":56,"x_max":1008,"o":"m 56 0 l 251 972 l 1008 972 l 814 0 l 56 0 m 303 907 l 136 70 l 762 70 l 930 907 l 303 907 z "},"ˉ":{"ha":812,"x_min":56,"x_max":944,"o":"m 56 0 l 251 972 l 944 972 l 750 0 l 56 0 m 303 907 l 136 70 l 699 70 l 866 907 l 303 907 z "},"∕":{"ha":50,"x_min":-283,"x_max":415,"o":"m -283 0 l -88 972 l 415 972 l 221 0 l -283 0 m -36 907 l -203 70 l 170 70 l 337 907 l -36 907 z "},"∆":{"ha":1139,"x_min":56,"x_max":1215,"o":"m 56 0 l 251 972 l 1215 972 l 1021 0 l 56 0 m 303 907 l 136 70 l 970 70 l 1137 907 l 303 907 z "}}}
